SplineFontDB: 3.2
FontName: DrukaatieBurti-Bold
FullName: Drukaatie burti trekni
FamilyName: Drukaatie burti
Weight: Bold
Copyright: License: SIL OFL.\nAuthor: Karlis Kalviskis\nLast update: 2023.02.15.\nContact: karlo@lu.lv
UComments: "Creted from DrukaatieBurti Bold. Embolden by 24 em units."
Version: 0.14.4
ItalicAngle: 0
UnderlinePosition: -173
UnderlineWidth: 100
Ascent: 1638
Descent: 410
InvalidEm: 0
LayerCount: 2
Layer: 0 1 "Back" 1
Layer: 1 1 "Fore" 0
XUID: [1021 827 580535596 12029684]
FSType: 0
OS2Version: 3
OS2_WeightWidthSlopeOnly: 1
OS2_UseTypoMetrics: 1
CreationTime: 1277802766
ModificationTime: 1677181967
PfmFamily: 65
TTFWeight: 700
TTFWidth: 5
LineGap: 87
VLineGap: 0
Panose: 3 8 8 2 4 5 2 3 2 4
OS2TypoAscent: 1420
OS2TypoAOffset: 0
OS2TypoDescent: -442
OS2TypoDOffset: 0
OS2TypoLinegap: 307
OS2WinAscent: 1825
OS2WinAOffset: 0
OS2WinDescent: 443
OS2WinDOffset: 0
HheadAscent: 1825
HheadAOffset: 0
HheadDescent: -443
HheadDOffset: 0
OS2SubXSize: 1434
OS2SubYSize: 1332
OS2SubXOff: 0
OS2SubYOff: 292
OS2SupXSize: 1434
OS2SupYSize: 1332
OS2SupXOff: 0
OS2SupYOff: 928
OS2StrikeYSize: 100
OS2StrikeYPos: 420
OS2CapHeight: 1344
OS2XHeight: 855
OS2FamilyClass: 2568
OS2Vendor: '    '
OS2CodePages: 00000093.00000000
OS2UnicodeRanges: 8000007f.0000004a.00000020.00000000
Lookup: 4 0 0 "'dlig' Discretionary Ligatures in Latin lookup 0" { "My Spelling"  } ['dlig' ('DFLT' <'dflt' > 'latn' <'LVI ' > ) ]
Lookup: 258 0 0 "'kern' Horizontal Kerning in Latin lookup 0" { "'TVWYFf' Horizontal Kerning in Latin lookup 0-1" [307,60,2] "'beforeTVWY' Horizontal Kerning in Latin lookup 0-2" [307,30,0] } ['kern' ('DFLT' <'dflt' > 'latn' <'dflt' > ) ]
MarkAttachClasses: 1
DEI: 91125
KernClass2: 3 3 "'beforeTVWY' Horizontal Kerning in Latin lookup 0-2"

StartChar: .notdef
Encoding: 65536 -1 0
Width: 1837
VWidth: 1894
Flags: W
HStem: -402 124<179 1656> 1038 122<179 1656>
VStem: 46 133<-278 1038> 242 118<513 974> 844 119<-78 356> 1656 134<-278 1038>
LayerCount: 2
Fore
SplineSet
360 974 m 1,0,-1
 360 513 l 1,1,-1
 843 974 l 1,2,-1
 988 974 l 1,3,-1
 657 656 l 1,4,-1
 963 389 l 1,5,-1
 963 -78 l 1,6,-1
 1434 389 l 1,7,-1
 1585 389 l 1,8,-1
 1267 62 l 1,9,-1
 1585 -233 l 1,10,-1
 1437 -233 l 1,11,-1
 1193 -21 l 1,12,-1
 953 -233 l 1,13,-1
 844 -233 l 1,14,-1
 844 356 l 1,15,-1
 581 591 l 1,16,-1
 351 389 l 1,17,-1
 242 389 l 1,18,-1
 242 974 l 1,19,-1
 360 974 l 1,0,-1
46 -402 m 1,20,-1
 46 1160 l 1,21,-1
 1790 1160 l 1,22,-1
 1790 -402 l 1,23,-1
 46 -402 l 1,20,-1
179 -278 m 1,24,-1
 1656 -278 l 1,25,-1
 1656 1038 l 1,26,-1
 179 1038 l 1,27,-1
 179 -278 l 1,24,-1
EndSplineSet
EndChar

StartChar: exclam
Encoding: 33 33 2
Width: 754
Flags: W
HStem: -48 304<237.524 446.889>
VStem: 171 335<10.8438 186.145>
LayerCount: 2
Fore
SplineSet
160 933 m 0,0,1
 160 1191 160 1191 265 1410 c 0,2,3
 276 1432 276 1432 420 1449 c 1,4,-1
 482 1440 l 1,5,6
 545 1406 545 1406 569 1284 c 0,7,8
 593 1162 593 1162 593 1098 c 0,9,10
 593 1097 593 1097 593 1095 c 0,11,12
 593 1029 593 1029 556 808 c 0,13,14
 518 582 518 582 508 532 c 0,15,16
 497 484 497 484 429 441 c 1,17,-1
 343 397 l 1,18,19
 327 397 327 397 290 416 c 1,20,21
 258 416 258 416 253 434 c 1,22,23
 160 675 160 675 160 933 c 0,0,1
399 1256 m 0,24,25
 399 1254 399 1254 399 1252 c 0,26,27
 399 1233 399 1233 407 1212 c 0,28,29
 416 1190 416 1190 490 1116 c 1,30,-1
 509 1228 l 1,31,-1
 491 1339 l 1,32,-1
 477 1357 l 2,33,34
 476 1359 476 1359 424 1400 c 1,35,36
 413 1374 413 1374 407 1325 c 0,37,38
 399 1276 399 1276 399 1256 c 0,24,25
EndSplineSet
Refer: 13 46 N 1 0 0 1 16 -12 2
Validated: 1
EndChar

StartChar: numbersign
Encoding: 35 35 3
Width: 1306
VWidth: 1894
Flags: W
HStem: 264 131<516.267 754.616> 267 155<100.688 234.784> 270 179<985 1115.76> 667 142<533 732.499> 680 172<54.7722 265.636> 710 172<1002 1241.06>
VStem: 234 274<31.3031 241.536> 269 247<426 661 664.028 665 838 1150.39> 272 274<838 1156.9> 727 237<26.0596 108 110 243.248> 765 247<883.031 1262.75>
LayerCount: 2
Fore
SplineSet
642 395 m 0,0,1
 748 396 748 396 763 418 c 1,2,3
 765 429 765 429 765 500.5 c 128,-1,4
 765 572 765 572 752.5 615 c 128,-1,5
 740 658 740 658 735 662 c 1,6,7
 726 666 726 666 684 666 c 128,-1,8
 642 666 642 666 616 667 c 0,9,10
 610 667 610 667 603 667 c 0,11,12
 584 667 584 667 568 665 c 0,13,14
 547 662 547 662 529 661 c 1,15,-1
 516 401 l 1,16,17
 638 395 638 395 642 395 c 0,0,1
759 247 m 128,-1,19
 759 256 759 256 755 260 c 1,20,21
 743 264 743 264 695.5 264 c 128,-1,22
 648 264 648 264 596.5 252 c 128,-1,23
 545 240 545 240 508 230 c 1,24,25
 499 45 499 45 497.5 21.5 c 128,-1,26
 496 -2 496 -2 466 -2 c 2,27,-1
 463 -2 l 1,28,29
 294 3 294 3 264 44 c 128,-1,30
 234 85 234 85 234 118 c 2,31,-1
 234 178 l 1,32,-1
 243 251 l 1,33,-1
 164 267 l 1,34,35
 82 297 82 297 81 334 c 0,36,37
 81 402 81 402 221 422 c 1,38,-1
 269 426 l 1,39,-1
 269 665 l 1,40,-1
 193 680 l 2,41,42
 78 703 78 703 54 725 c 0,43,44
 31 748 31 748 31 774 c 0,45,46
 31 852 31 852 146 852 c 1,47,-1
 267 838 l 1,48,-1
 272 936 l 1,49,50
 274 1060 274 1060 302 1125 c 128,-1,51
 330 1190 330 1190 341 1196 c 0,52,53
 377 1216 377 1216 408 1216 c 0,54,-1
 409 1216 l 0,55,56
 441 1216 441 1216 457 1215 c 0,57,58
 518 1215 518 1215 545 1186 c 0,59,60
 546 1185 546 1185 546 1151.5 c 128,-1,61
 546 1118 546 1118 533 813 c 1,62,63
 570 812 570 812 626 810 c 0,64,65
 629 810 629 810 632 809 c 0,66,67
 686 809 686 809 734 840 c 1,68,-1
 739 942 l 1,69,70
 740 1110 740 1110 765 1193 c 0,71,72
 794 1286 794 1286 881 1286 c 0,73,74
 1012 1286 1012 1286 1012 1201 c 0,75,76
 1012 1201 1012 1201 1012 1200 c 1,77,-1
 1002 882 l 1,78,-1
 1075 882 l 2,79,80
 1141 882 1141 882 1185 872 c 128,-1,81
 1229 862 1229 862 1245.5 831 c 128,-1,82
 1262 800 1262 800 1262 782 c 0,83,84
 1262 722 1262 722 1160 722 c 1,85,-1
 997 710 l 1,86,87
 992 580 992 580 985 449 c 1,88,89
 1004 445 1004 445 1045 440 c 0,90,91
 1140 428 1140 428 1140 346 c 0,92,93
 1140 298 1140 298 1116.5 284 c 128,-1,94
 1093 270 1093 270 1041 270 c 1,95,-1
 980 268 l 1,96,-1
 964 30 l 1,97,98
 959 -34 959 -34 903 -37 c 0,99,100
 901 -37 901 -37 898 -37 c 0,101,102
 843 -37 843 -37 761 34 c 0,103,104
 727 62 727 62 727 108 c 1,105,-1
 728 110 l 1,106,107
 728 157 728 157 743.5 197.5 c 128,-1,18
 759 238 759 238 759 247 c 128,-1,19
EndSplineSet
Validated: 1
EndChar

StartChar: dollar
Encoding: 36 36 4
Width: 1323
VWidth: 1894
Flags: W
HStem: -92 322<124.85 250.836>
VStem: 193 359<805.336 1114.46> 486.5 203.5<-175.506 -21.0045> 628.5 201.5<1307.41 1429.64> 646 183<340.986 628.69 820 1033.54> 992 267<225.148 596.543>
LayerCount: 2
Fore
SplineSet
1061 1232 m 2,0,-1
 1067 1232 l 1,1,2
 1113 1230 1113 1230 1129 1197 c 1,3,-1
 1138 1164 l 1,4,-1
 1138 1149 l 1,5,-1
 1100 1079 l 1,6,7
 1070 1031 1070 1031 1027 992.5 c 128,-1,8
 984 954 984 954 946.5 954 c 128,-1,9
 909 954 909 954 880 987.5 c 128,-1,10
 851 1021 851 1021 838 1034 c 1,11,12
 826 1020 826 1020 826 914 c 2,13,-1
 826 820 l 1,14,-1
 861 816 l 1,15,16
 969 802 969 802 1022.5 779.5 c 128,-1,17
 1076 757 1076 757 1133 702 c 0,18,19
 1259 579 1259 579 1259 424 c 2,20,-1
 1259 422 l 2,21,22
 1259 338 1259 338 1222.5 244 c 128,-1,23
 1186 150 1186 150 1135 97 c 128,-1,24
 1084 44 1084 44 1055.5 32 c 128,-1,25
 1027 20 1027 20 967.5 12 c 128,-1,26
 908 4 908 4 897 -1 c 128,-1,27
 886 -6 886 -6 874.5 -28 c 128,-1,28
 863 -50 863 -50 844.5 -61 c 128,-1,29
 826 -72 826 -72 779 -72 c 128,-1,30
 732 -72 732 -72 714 -50 c 128,-1,31
 696 -28 696 -28 688 -21 c 1,32,-1
 690 -61 l 1,33,-1
 690 -64 l 1,34,35
 673 -203 673 -203 588 -208 c 1,36,37
 538 -208 538 -208 515 -176.5 c 128,-1,38
 492 -145 492 -145 486.5 -76 c 128,-1,39
 481 -7 481 -7 468 11.5 c 128,-1,40
 455 30 455 30 392 48 c 2,41,-1
 314 69 l 1,42,43
 309 57 309 57 300 19.5 c 128,-1,44
 291 -18 291 -18 242 -55 c 128,-1,45
 193 -92 193 -92 159 -92 c 0,46,47
 62 -92 62 -92 62 -23 c 0,48,49
 62 -23 62 -23 62 -22 c 0,50,51
 62 6 62 6 80 30 c 128,-1,52
 98 54 98 54 98 86 c 1,53,-1
 97 108 l 1,54,-1
 97 113 l 2,55,56
 97 166 97 166 124 198 c 128,-1,57
 151 230 151 230 205 230 c 1,58,-1
 430 202 l 1,59,60
 431 210 431 210 432 220 c 1,61,-1
 403 659 l 1,62,-1
 362 680 l 2,63,64
 315 704 315 704 273 748 c 128,-1,65
 231 792 231 792 212 830 c 128,-1,66
 193 868 193 868 193 947 c 128,-1,67
 193 1026 193 1026 218 1079 c 128,-1,68
 243 1132 243 1132 287.5 1179 c 128,-1,69
 332 1226 332 1226 350 1261 c 1,70,71
 349 1272 349 1272 349 1282 c 0,72,73
 349 1390 349 1390 408 1457 c 0,74,75
 424 1474 424 1474 450.5 1474 c 128,-1,76
 477 1474 477 1474 497 1441 c 1,77,-1
 550 1317 l 1,78,79
 557 1308 557 1308 578 1304 c 1,80,-1
 613 1307 l 1,81,82
 619 1320 619 1320 628.5 1361.5 c 128,-1,83
 638 1403 638 1403 658.5 1430.5 c 128,-1,84
 679 1458 679 1458 723 1458 c 128,-1,85
 767 1458 767 1458 798.5 1431 c 128,-1,86
 830 1404 830 1404 830 1363 c 2,87,-1
 830 1234 l 1,88,89
 883 1212 883 1212 932 1190 c 1,90,-1
 971 1207 l 1,91,92
 1024 1232 1024 1232 1061 1232 c 2,0,-1
552 1013 m 128,-1,94
 552 872 552 872 564 843 c 128,-1,95
 576 814 576 814 582 806 c 1,96,97
 588 804 588 804 608 804 c 128,-1,98
 628 804 628 804 635 810 c 1,99,100
 646 835 646 835 649 984 c 1,101,-1
 651 1145 l 1,102,-1
 568 1180 l 1,103,104
 564 1177 564 1177 558 1165.5 c 128,-1,93
 552 1154 552 1154 552 1013 c 128,-1,94
880 652 m 0,105,106
 873 652 873 652 866 653 c 0,107,108
 842 653 842 653 835 648 c 1,109,110
 829 629 829 629 829 501 c 128,-1,111
 829 373 829 373 839.5 259.5 c 128,-1,112
 850 146 850 146 858 128 c 1,113,114
 864 124 864 124 873.5 124 c 128,-1,115
 883 124 883 124 903 137.5 c 128,-1,116
 923 151 923 151 948 170 c 1,117,118
 991 309 991 309 992 416 c 1,119,-1
 992 420 l 2,120,121
 992 524 992 524 966 607 c 1,122,123
 916 650 916 650 880 652 c 0,105,106
646 630 m 1,124,-1
 593 625 l 1,125,126
 588 620 588 620 586 609 c 1,127,-1
 630 166 l 1,128,129
 639 129 639 129 670 101 c 1,130,131
 671 112 671 112 671 126 c 2,132,-1
 646 630 l 1,124,-1
EndSplineSet
Validated: 1
EndChar

StartChar: percent
Encoding: 37 37 5
Width: 1399
VWidth: 1894
Flags: W
HStem: -16 168<999.391 1132.77> 460 162<1059.64 1162.72> 712 152<243.389 388.128> 1242 150<278.978 409.647>
VStem: 59 169<883.637 1181.8> 440 198<931.637 1236.95> 790 199<161.125 386.012> 1175 162<193.417 458.758>
LayerCount: 2
Fore
SplineSet
1108 170 m 0,0,1
 1175 224 1175 224 1175 358 c 0,2,3
 1175 392 1175 392 1158.5 426 c 128,-1,4
 1142 460 1142 460 1123.5 460 c 128,-1,5
 1105 460 1105 460 1061 417 c 128,-1,6
 1017 374 1017 374 1011.5 342 c 128,-1,7
 1006 310 1006 310 999 284 c 128,-1,8
 992 258 992 258 989 239 c 1,9,-1
 989 226 l 2,10,11
 989 212 989 212 1008 182 c 128,-1,12
 1027 152 1027 152 1057 152 c 128,-1,13
 1087 152 1087 152 1108 170 c 0,0,1
1103 622 m 0,14,15
 1228 622 1228 622 1300 512 c 0,16,17
 1321 480 1321 480 1329 449 c 128,-1,18
 1337 418 1337 418 1337 342 c 128,-1,19
 1337 266 1337 266 1331 234 c 0,20,21
 1315 149 1315 149 1213 57 c 0,22,23
 1157 5 1157 5 1121.5 -5.5 c 128,-1,24
 1086 -16 1086 -16 1049 -16 c 128,-1,25
 1012 -16 1012 -16 955 3 c 0,26,27
 842 40 842 40 808 205 c 0,28,29
 790 290 790 290 790 358 c 0,30,-1
 790 359 l 0,31,32
 790 426 790 426 838.5 488 c 128,-1,33
 887 550 887 550 936.5 559 c 128,-1,34
 986 568 986 568 1023.5 595 c 128,-1,35
 1061 622 1061 622 1103 622 c 0,14,15
394 1238 m 128,-1,37
 386 1242 386 1242 351.5 1242 c 128,-1,38
 317 1242 317 1242 310 1239 c 0,39,40
 275 1222 275 1222 251.5 1098 c 128,-1,41
 228 974 228 974 228 952 c 0,42,43
 228 908 228 908 279 880 c 0,44,45
 309 864 309 864 327 864 c 128,-1,46
 345 864 345 864 379.5 897.5 c 128,-1,47
 414 931 414 931 427 974.5 c 128,-1,48
 440 1018 440 1018 440 1101.5 c 128,-1,49
 440 1185 440 1185 421 1209.5 c 128,-1,36
 402 1234 402 1234 394 1238 c 128,-1,37
59 916 m 0,50,51
 59 1158 59 1158 114 1270 c 1,52,53
 168 1392 168 1392 326 1392 c 128,-1,54
 484 1392 484 1392 533.5 1337.5 c 128,-1,55
 583 1283 583 1283 610.5 1202.5 c 128,-1,56
 638 1122 638 1122 638 1077 c 128,-1,57
 638 1032 638 1032 589 922 c 0,58,59
 496 712 496 712 339 712 c 0,60,61
 272 712 272 712 187.5 751 c 128,-1,62
 103 790 103 790 81 830 c 128,-1,63
 59 870 59 870 59 916 c 0,50,51
1263 1308 m 16,64,65
 1286 1294 1286 1294 1286 1280 c 0,66,-1
 1286 1279 l 0,67,68
 1286 1272 1286 1272 1281 1265 c 0,69,70
 339 -100 339 -100 287 -111 c 0,71,72
 227 -124 227 -124 187 -124 c 0,73,74
 132 -124 132 -124 110 -100 c 8,75,76
 94 -81 94 -81 94 -50 c 2,77,-1
 94 -40 l 2,78,79
 94 22 94 22 229.5 232 c 128,-1,80
 365 442 365 442 479.5 580 c 128,-1,81
 594 718 594 718 639.5 783 c 128,-1,82
 685 848 685 848 726.5 904 c 128,-1,83
 768 960 768 960 869.5 1126 c 128,-1,84
 971 1292 971 1292 1004 1334 c 0,85,86
 1039 1376 1039 1376 1071 1395 c 0,87,88
 1092 1407 1092 1407 1104 1407 c 0,89,90
 1113 1407 1113 1407 1119 1402 c 0,91,92
 1156 1372 1156 1372 1263 1308 c 16,64,65
EndSplineSet
Validated: 1
EndChar

StartChar: ampersand
Encoding: 38 38 6
Width: 1297
VWidth: 1894
Flags: W
HStem: -74 153<358.899 495.143> 90 146<894.286 1249.43> 463 98<1043.65 1206.86> 1210 174<524.95 609.304>
VStem: 31 279<131.5 449.602> 276 234<860.628 1172.82>
LayerCount: 2
Fore
SplineSet
1253 157 m 0,0,1
 1253 104 1253 104 1210.5 97 c 128,-1,2
 1168 90 1168 90 1033 90 c 128,-1,3
 898 90 898 90 815 130 c 1,4,-1
 783 144 l 1,5,-1
 744 106 l 1,6,7
 646 22 646 22 545.5 -26 c 128,-1,8
 445 -74 445 -74 387.5 -74 c 128,-1,9
 330 -74 330 -74 242.5 -47 c 128,-1,10
 155 -20 155 -20 111.5 9 c 128,-1,11
 68 38 68 38 49.5 123 c 128,-1,12
 31 208 31 208 31 258 c 0,13,14
 31 468 31 468 226 654 c 1,15,-1
 306 728 l 1,16,-1
 291 782 l 1,17,-1
 276 978 l 1,18,19
 276 1125 276 1125 372 1266 c 0,20,21
 419 1335 419 1335 461.5 1359.5 c 128,-1,22
 504 1384 504 1384 549 1384 c 128,-1,23
 594 1384 594 1384 689.5 1331 c 128,-1,24
 785 1278 785 1278 804 1190 c 1,25,-1
 809 1036 l 1,26,27
 809 962 809 962 755.5 854.5 c 128,-1,28
 702 747 702 747 623 704 c 0,29,30
 602 693 602 693 591 687 c 1,31,32
 651 525 651 525 753 384 c 1,33,34
 783 409 783 409 854 473.5 c 128,-1,35
 925 538 925 538 965.5 552 c 128,-1,36
 1006 566 1006 566 1042.5 566 c 128,-1,37
 1079 566 1079 566 1143 561 c 128,-1,38
 1207 556 1207 556 1207 514 c 128,-1,39
 1207 472 1207 472 1184 463 c 128,-1,40
 1161 454 1161 454 1101 442 c 128,-1,41
 1041 430 1041 430 969 360 c 0,42,43
 896 290 896 290 894 280 c 2,44,-1
 892 265 l 1,45,46
 911 256 911 256 982 249 c 128,-1,47
 1053 242 1053 242 1065.5 239 c 128,-1,48
 1078 236 1078 236 1093 236 c 1,49,-1
 1188 244 l 1,50,51
 1253 244 1253 244 1253 157 c 0,0,1
559 1210 m 0,52,53
 549 1210 549 1210 539.5 1204 c 128,-1,54
 530 1198 530 1198 510 1166 c 1,55,56
 512 1004 512 1004 543 856 c 1,57,58
 620 988 620 988 629 1116 c 1,59,-1
 614 1158 l 1,60,61
 587 1210 587 1210 559 1210 c 0,52,53
310 303 m 2,62,63
 310 191 310 191 384 79 c 1,64,65
 445 81 445 81 472 104.5 c 128,-1,66
 499 128 499 128 553.5 165 c 128,-1,67
 608 202 608 202 625 217 c 1,68,69
 609 240 609 240 552 309 c 128,-1,70
 495 378 495 378 457 456.5 c 128,-1,71
 419 535 419 535 400 556 c 1,72,73
 388 548 388 548 369 529 c 1,74,75
 311 416 311 416 310 304 c 1,76,-1
 310 303 l 2,62,63
EndSplineSet
Validated: 1
EndChar

StartChar: parenleft
Encoding: 40 40 7
Width: 481
VWidth: 1894
Flags: W
VStem: 36 310<192.549 825.146>
LayerCount: 2
Fore
SplineSet
484 1542 m 2,0,1
 577 1542 577 1542 577 1465 c 0,2,3
 577 1428 577 1428 537 1372 c 128,-1,4
 497 1316 497 1316 463 1266 c 1,5,6
 346 918 346 918 346 608 c 128,-1,7
 346 298 346 298 438 18 c 1,8,9
 512 -62 512 -62 545.5 -117 c 128,-1,10
 579 -172 579 -172 604 -195 c 128,-1,11
 629 -218 629 -218 629 -253 c 128,-1,12
 629 -288 629 -288 602 -295 c 0,13,14
 542 -310 542 -310 501 -310 c 0,15,16
 434 -310 434 -310 429 -277 c 1,17,18
 423 -266 423 -266 384 -231 c 128,-1,19
 345 -196 345 -196 292 -134 c 128,-1,20
 239 -72 239 -72 199 -30 c 128,-1,21
 159 12 159 12 112 110 c 0,22,23
 36 266 36 266 36 532 c 0,24,25
 36 644 36 644 62 756 c 0,26,27
 136 1074 136 1074 277 1318 c 0,28,29
 364 1466 364 1466 398 1503 c 0,30,31
 435 1542 435 1542 481 1542 c 2,32,-1
 483 1542 l 1,33,-1
 484 1542 l 2,0,1
EndSplineSet
Validated: 1
EndChar

StartChar: parenright
Encoding: 41 41 8
Width: 450
VWidth: 1894
Flags: W
VStem: 102 308<429.672 931>
LayerCount: 2
Fore
SplineSet
-99 1532 m 1,0,1
 -99 1532 -99 1532 -35 1543 c 1,2,-1
 24 1539 l 1,3,-1
 64 1500 l 1,4,5
 67 1496 67 1496 108 1452 c 0,6,7
 145 1413 145 1413 193 1349 c 0,8,9
 244 1282 244 1282 281 1240 c 0,10,11
 317 1199 317 1199 361 1096 c 0,12,13
 402 998 402 998 406 931 c 2,14,-1
 414 812 l 1,15,-1
 410 659 l 1,16,17
 406 556 406 556 372.5 447 c 128,-1,18
 339 338 339 338 278 190 c 128,-1,19
 217 42 217 42 123 -101 c 128,-1,20
 29 -244 29 -244 -4 -278 c 0,21,22
 -35 -311 -35 -311 -66 -312 c 1,23,-1
 -94 -314 l 1,24,-1
 -96 -314 l 1,25,26
 -186 -308 -186 -308 -187 -249 c 1,27,-1
 -187 -246 l 2,28,29
 -118 -141 -118 -141 -105 -119 c 0,30,31
 -50 -27 -50 -27 4 66 c 1,32,33
 102 377 102 377 102 672 c 0,34,35
 102 968 102 968 9 1250 c 1,36,37
 -51 1363 -51 1363 -72 1383 c 0,38,39
 -134 1443 -134 1443 -134 1476 c 2,40,-1
 -134 1480 l 1,41,42
 -129 1527 -129 1527 -99 1532 c 1,0,1
EndSplineSet
Validated: 1
EndChar

StartChar: asterisk
Encoding: 42 42 9
Width: 1057
VWidth: 1894
Flags: W
HStem: 533 226<768.475 885.635>
VStem: 448 142<882.097 1046> 476 137<207.671 344>
LayerCount: 2
Fore
SplineSet
348 236 m 0,0,1
 334 236 334 236 321 243 c 0,2,3
 261 275 261 275 260 344 c 2,4,-1
 260 346 l 2,5,6
 260 413 260 413 279.5 434 c 128,-1,7
 299 455 299 455 304 462 c 1,8,-1
 217 459 l 1,9,10
 190 464 190 464 163 497.5 c 128,-1,11
 136 531 136 531 136 580.5 c 128,-1,12
 136 630 136 630 147.5 660 c 128,-1,13
 159 690 159 690 202.5 716 c 128,-1,14
 246 742 246 742 269 742 c 2,15,-1
 279 742 l 1,16,17
 270 757 270 757 251 789 c 128,-1,18
 232 821 232 821 232 863 c 0,19,20
 232 955 232 955 324 955 c 0,21,22
 373 955 373 955 405.5 902.5 c 128,-1,23
 438 850 438 850 451 830 c 1,24,25
 449 854 449 854 448 887 c 1,26,27
 448 1056 448 1056 526 1057 c 0,28,29
 576 1057 576 1057 590 966 c 0,30,31
 597 916 597 916 601 881 c 1,32,33
 694 1030 694 1030 760 1030 c 0,34,35
 773 1030 773 1030 780.5 1023 c 128,-1,36
 788 1016 788 1016 793 1011.5 c 128,-1,37
 798 1007 798 1007 816 991 c 128,-1,38
 834 975 834 975 834 925 c 2,39,-1
 834 920 l 2,40,41
 834 875 834 875 806 831.5 c 128,-1,42
 778 788 778 788 768 768 c 1,43,44
 783 764 783 764 822.5 759 c 128,-1,45
 862 754 862 754 888 730.5 c 128,-1,46
 914 707 914 707 914 645 c 128,-1,47
 914 583 914 583 886.5 561 c 128,-1,48
 859 539 859 539 810 533 c 128,-1,49
 761 527 761 527 760.5 521.5 c 128,-1,50
 760 516 760 516 760 513.5 c 128,-1,51
 760 511 760 511 764.5 503 c 128,-1,52
 769 495 769 495 803.5 473.5 c 128,-1,53
 838 452 838 452 838 392 c 0,54,55
 838 292 838 292 765 286 c 1,56,-1
 764 286 l 2,57,58
 716 286 716 286 677.5 331 c 128,-1,59
 639 376 639 376 624 393 c 1,60,61
 625 381 625 381 625 354 c 128,-1,62
 625 327 625 327 613 257.5 c 128,-1,63
 601 188 601 188 557 188 c 2,64,-1
 556 188 l 1,65,-1
 549 189 l 1,66,67
 495 201 495 201 476 344 c 1,68,69
 406 236 406 236 348 236 c 0,0,1
EndSplineSet
Validated: 1
EndChar

StartChar: plus
Encoding: 43 43 10
Width: 1087
VWidth: 1894
Flags: W
HStem: 534 217<678.215 939.091>
VStem: 423 186<740.77 1049.54> 445 190<195.183 501.27>
LayerCount: 2
Fore
SplineSet
115 570 m 2,0,1
 115 629 115 629 176 673.5 c 128,-1,2
 237 718 237 718 343 728 c 1,3,-1
 417 732 l 1,4,-1
 423 855 l 1,5,-1
 423 869 l 2,6,7
 423 1005 423 1005 448.5 1051 c 128,-1,8
 474 1097 474 1097 515 1097 c 128,-1,9
 556 1097 556 1097 578 1080.5 c 128,-1,10
 600 1064 600 1064 604.5 1021 c 128,-1,11
 609 978 609 978 609 871 c 128,-1,12
 609 764 609 764 617 740 c 1,13,14
 624 734 624 734 643 733 c 1,15,-1
 816 751 l 1,16,-1
 817 751 l 2,17,18
 968 751 968 751 969 634 c 1,19,-1
 969 631 l 2,20,21
 969 559 969 559 940 541.5 c 128,-1,22
 911 524 911 524 870 524 c 1,23,-1
 744 534 l 1,24,25
 701 534 701 534 668 524 c 1,26,-1
 631 509 l 1,27,-1
 635 316 l 1,28,29
 633 140 633 140 546 140 c 0,30,31
 546 140 546 140 545 140 c 0,32,33
 487 140 487 140 466 193.5 c 128,-1,34
 445 247 445 247 445 347.5 c 128,-1,35
 445 448 445 448 420 503 c 1,36,-1
 376 506 l 1,37,-1
 190 472 l 1,38,-1
 135 506 l 1,39,-1
 115 562 l 1,40,-1
 115 570 l 2,0,1
EndSplineSet
Validated: 1
EndChar

StartChar: comma
Encoding: 44 44 11
Width: 617
VWidth: 1894
Flags: W
HStem: -210 416<230.031 258>
VStem: 155 305<-19.582 161.453>
LayerCount: 2
Fore
SplineSet
233 -210 m 2,0,1
 199 -210 199 -210 177 -194.5 c 128,-1,2
 155 -179 155 -179 155 -157 c 128,-1,3
 155 -135 155 -135 165.5 -120.5 c 128,-1,4
 176 -106 176 -106 198 -82.5 c 128,-1,5
 220 -59 220 -59 228 -48 c 1,6,7
 219 -38 219 -38 197 -17 c 0,8,9
 155 23 155 23 155 72 c 0,10,11
 155 160 155 160 253 196 c 0,12,13
 278 206 278 206 304 206 c 0,14,15
 356 206 356 206 410 166 c 0,16,17
 460 130 460 130 460 82 c 128,-1,18
 460 34 460 34 452.5 1 c 128,-1,19
 445 -32 445 -32 381.5 -112 c 128,-1,20
 318 -192 318 -192 258 -205 c 1,21,-1
 258 -210 l 1,22,-1
 233 -210 l 2,0,1
EndSplineSet
Validated: 1
EndChar

StartChar: hyphen
Encoding: 45 45 12
Width: 1087
VWidth: 1894
Flags: W
HStem: 534 217<678.215 816 817 939.091> 534 198<343 773.533>
LayerCount: 2
Fore
SplineSet
586 517 m 1,0,1
 586 517 586 517 376 506 c 1,2,-1
 190 472 l 1,3,-1
 135 506 l 1,4,-1
 115 562 l 1,5,-1
 115 570 l 2,6,7
 115 629 115 629 176 673.5 c 128,-1,8
 237 718 237 718 343 728 c 1,9,-1
 417 732 l 1,10,11
 530 732 530 732 643 733 c 1,12,-1
 816 751 l 1,13,-1
 817 751 l 2,14,15
 968 751 968 751 969 634 c 1,16,-1
 969 631 l 2,17,18
 969 559 969 559 940 541.5 c 128,-1,19
 911 524 911 524 870 524 c 1,20,-1
 744 534 l 1,21,22
 642 534 642 534 586 517 c 1,0,1
EndSplineSet
Validated: 1
EndChar

StartChar: period
Encoding: 46 46 13
Width: 654
VWidth: 1894
Flags: W
HStem: -36 304<221.524 430.889>
VStem: 155 335<22.8438 198.145>
LayerCount: 2
Fore
SplineSet
425 258 m 0,0,1
 490 232 490 232 490 155 c 128,-1,2
 490 78 490 78 457.5 37 c 128,-1,3
 425 -4 425 -4 384.5 -20 c 128,-1,4
 344 -36 344 -36 327 -36 c 0,5,6
 264 -36 264 -36 209.5 7 c 128,-1,7
 155 50 155 50 155 85 c 128,-1,8
 155 120 155 120 181 169 c 128,-1,9
 207 218 207 218 237 236 c 128,-1,10
 267 254 267 254 299.5 258 c 128,-1,11
 332 262 332 262 351.5 265 c 128,-1,12
 371 268 371 268 385 268 c 128,-1,13
 399 268 399 268 425 258 c 0,0,1
EndSplineSet
Validated: 1
EndChar

StartChar: slash
Encoding: 47 47 14
Width: 792
VWidth: 1894
Flags: W
LayerCount: 2
Fore
SplineSet
948 1400 m 1,0,1
 960 1387 960 1387 950 1369 c 0,2,3
 588 575 588 575 103 -179 c 0,4,5
 89 -201 89 -201 59 -188 c 1,6,-1
 -40 -168 l 2,7,8
 -79 -160 -79 -160 -93.5 -144.5 c 128,-1,9
 -108 -129 -108 -129 -108 -98 c 2,10,-1
 -108 -90 l 2,11,12
 -108 -64 -108 -64 -78.5 -11.5 c 128,-1,13
 -49 41 -49 41 84 291.5 c 128,-1,14
 217 542 217 542 413 881 c 128,-1,15
 609 1220 609 1220 644 1307 c 0,16,17
 718 1495 718 1495 804 1504 c 1,18,-1
 811 1504 l 2,19,20
 835 1504 835 1504 948 1400 c 1,0,1
EndSplineSet
Validated: 1
EndChar

StartChar: zero
Encoding: 48 48 15
Width: 1183
VWidth: 1894
Flags: W
HStem: -60 152<448.482 796.564> 1293 123<613.141 743.657>
VStem: 59 262<298.825 698.557> 578 220<775.587 921.316> 894 236<324.363 939.467>
LayerCount: 2
Fore
SplineSet
59 448 m 2,0,1
 59 488 59 488 97 673.5 c 128,-1,2
 135 859 135 859 142.5 930 c 128,-1,3
 150 1001 150 1001 185 1057.5 c 128,-1,4
 220 1114 220 1114 267 1216.5 c 128,-1,5
 314 1319 314 1319 378 1353 c 1,6,7
 444 1386 444 1386 496 1386 c 128,-1,8
 548 1386 548 1386 600.5 1401 c 128,-1,9
 653 1416 653 1416 707.5 1416 c 128,-1,10
 762 1416 762 1416 804 1391 c 128,-1,11
 846 1366 846 1366 900 1295 c 128,-1,12
 954 1224 954 1224 966 1191.5 c 128,-1,13
 978 1159 978 1159 1001 1127 c 1,14,15
 1079 1029 1079 1029 1104 847.5 c 128,-1,16
 1129 666 1129 666 1130 560 c 0,17,18
 1130 361 1130 361 1053 174 c 0,19,20
 1018 88 1018 88 961 38 c 128,-1,21
 904 -12 904 -12 789.5 -36 c 128,-1,22
 675 -60 675 -60 600 -60 c 0,23,24
 344 -60 344 -60 231 31.5 c 128,-1,25
 118 123 118 123 88.5 226.5 c 128,-1,26
 59 330 59 330 59 370 c 2,27,-1
 59 448 l 2,0,1
782 1209 m 1,28,29
 722 1272 722 1272 719 1274 c 0,30,31
 690 1293 690 1293 670 1293 c 0,32,33
 659 1293 659 1293 651 1287 c 0,34,35
 637 1277 637 1277 624 1262 c 0,36,37
 610 1245 610 1245 596 1228 c 1,38,39
 321 879 321 879 321 556 c 0,40,41
 321 333 321 333 452 112 c 1,42,43
 583 92 583 92 600 92 c 0,44,45
 725 94 725 94 753.5 108.5 c 128,-1,46
 782 123 782 123 797 132 c 1,47,48
 894 454 894 454 894 600 c 0,49,-1
 900 734 l 0,50,51
 900 1047 900 1047 782 1209 c 1,28,29
578 850 m 0,52,53
 642 980 642 980 718 980 c 0,54,55
 758 980 758 980 778 958.5 c 128,-1,56
 798 937 798 937 798 909.5 c 128,-1,57
 798 882 798 882 787 851 c 128,-1,58
 776 820 776 820 691 638.5 c 128,-1,59
 606 457 606 457 573 386.5 c 128,-1,60
 540 316 540 316 515 287 c 128,-1,61
 490 258 490 258 451 258 c 128,-1,62
 412 258 412 258 398 270 c 128,-1,63
 384 282 384 282 384 316 c 128,-1,64
 384 350 384 350 465 567 c 128,-1,65
 546 784 546 784 578 850 c 0,52,53
EndSplineSet
Validated: 1
EndChar

StartChar: one
Encoding: 49 49 16
Width: 739
VWidth: 1894
Flags: W
HStem: 1366 20G<606 630.5>
VStem: 353 301<568 856> 371 279<174 853.688>
LayerCount: 2
Fore
SplineSet
62 580 m 1,0,1
 66 612 66 612 97 698 c 0,2,3
 132 793 132 793 392 1299 c 0,4,5
 423 1360 423 1360 447 1389 c 128,-1,6
 471 1418 471 1418 526.5 1418 c 128,-1,7
 582 1418 582 1418 593 1383 c 1,8,9
 600 1386 600 1386 612 1386 c 0,10,11
 649 1386 649 1386 649 1362 c 0,12,13
 654 1044 654 1044 654 747 c 128,-1,14
 654 450 654 450 650 174 c 1,15,-1
 705 168 l 1,16,-1
 701 98 l 1,17,18
 697 34 697 34 675 20 c 128,-1,19
 653 6 653 6 633.5 6 c 128,-1,20
 614 6 614 6 579.5 19 c 128,-1,21
 545 32 545 32 533.5 32 c 128,-1,22
 522 32 522 32 473 15 c 128,-1,23
 424 -2 424 -2 350 -2 c 2,24,-1
 335 -2 l 2,25,26
 264 -2 264 -2 240 18.5 c 128,-1,27
 216 39 216 39 216 74 c 2,28,-1
 216 76 l 2,29,30
 216 112 216 112 217.5 122 c 128,-1,31
 219 132 219 132 280 143.5 c 128,-1,32
 341 155 341 155 361 160 c 1,33,34
 371 188 371 188 371 280 c 0,35,36
 371 288 371 288 371 297 c 0,37,38
 371 302 371 302 371 307 c 0,39,40
 371 422 371 422 364 441 c 1,41,-1
 357 568 l 1,42,-1
 353 708 l 2,43,44
 351 782 351 782 348 856 c 1,45,46
 346 817 346 817 305 723 c 0,47,48
 280 664 280 664 261 608.5 c 128,-1,49
 242 553 242 553 214 525 c 0,50,51
 180 492 180 492 139 492 c 0,52,53
 57 492 57 492 57 578 c 1,54,-1
 62 580 l 1,0,1
EndSplineSet
Validated: 1
EndChar

StartChar: two
Encoding: 50 50 17
Width: 1183
VWidth: 1894
Flags: W
HStem: -68 187<711.097 844.937> 104 150<463 541.278> 1206 184<386.58 600.99>
VStem: 634 349<748.162 1192.53>
LayerCount: 2
Fore
SplineSet
488 254 m 2,0,1
 560 254 560 254 671.5 186.5 c 128,-1,2
 783 119 783 119 806 119 c 1,3,4
 827 120 827 120 873 217 c 128,-1,5
 919 314 919 314 1008 314 c 0,6,7
 1034 314 1034 314 1068.5 295 c 128,-1,8
 1103 276 1103 276 1115 228 c 128,-1,9
 1127 180 1127 180 1127 137.5 c 128,-1,10
 1127 95 1127 95 1104.5 82.5 c 128,-1,11
 1082 70 1082 70 1051 70 c 128,-1,12
 1020 70 1020 70 1006 59 c 128,-1,13
 992 48 992 48 917 -36 c 1,14,15
 887 -68 887 -68 840 -68 c 0,16,17
 717 -68 717 -68 603.5 18 c 128,-1,18
 490 104 490 104 397 104 c 1,19,-1
 346 93 l 1,20,21
 328 82 328 82 252 7 c 128,-1,22
 176 -68 176 -68 127.5 -68 c 128,-1,23
 79 -68 79 -68 55 2 c 1,24,-1
 55 30 l 2,25,26
 55 50 55 50 77.5 125.5 c 128,-1,27
 100 201 100 201 123 230.5 c 128,-1,28
 146 260 146 260 163.5 305.5 c 128,-1,29
 181 351 181 351 260.5 419 c 128,-1,30
 340 487 340 487 405 525 c 128,-1,31
 470 563 470 563 511 593 c 1,32,33
 634 786 634 786 634 969 c 0,34,35
 634 970 634 970 634 972 c 0,36,37
 634 1085 634 1085 590 1196 c 1,38,-1
 495 1206 l 1,39,40
 404 1206 404 1206 386 1175 c 128,-1,41
 368 1144 368 1144 355.5 1096 c 128,-1,42
 343 1048 343 1048 337.5 991 c 128,-1,43
 332 934 332 934 327 897 c 1,44,-1
 313 843 l 1,45,-1
 265 803 l 1,46,-1
 176 843 l 1,47,48
 109 875 109 875 98.5 898 c 128,-1,49
 88 921 88 921 88 939.5 c 128,-1,50
 88 958 88 958 104 981 c 128,-1,51
 120 1004 120 1004 140.5 1062 c 128,-1,52
 161 1120 161 1120 209.5 1195 c 128,-1,53
 258 1270 258 1270 295 1301 c 1,54,55
 333 1331 333 1331 398.5 1360.5 c 128,-1,56
 464 1390 464 1390 525 1390 c 128,-1,57
 586 1390 586 1390 678 1373 c 128,-1,58
 770 1356 770 1356 814 1338 c 1,59,60
 932 1286 932 1286 965 1106 c 1,61,62
 983 1060 983 1060 983 1012 c 128,-1,63
 983 964 983 964 973.5 886.5 c 128,-1,64
 964 809 964 809 915 685 c 1,65,66
 808 387 808 387 463 254 c 1,67,-1
 488 254 l 2,0,1
EndSplineSet
Validated: 1
EndChar

StartChar: three
Encoding: 51 51 18
Width: 1092
VWidth: 1894
Flags: W
HStem: -62 144<445.179 628.065> 52 281<96.601 232.337> 876 21G<265.308 336.5>
VStem: 51 203<157.517 304.118> 616 277<940.071 1224.98> 727 309<218.524 413 414 573.291>
LayerCount: 2
Fore
SplineSet
324 876 m 2,0,-1
 313 876 l 1,1,-1
 220 915 l 1,2,3
 148 951 148 951 121 973 c 128,-1,4
 94 995 94 995 94 1032 c 128,-1,5
 94 1069 94 1069 104.5 1084 c 128,-1,6
 115 1099 115 1099 144.5 1108.5 c 128,-1,7
 174 1118 174 1118 213 1190 c 128,-1,8
 252 1262 252 1262 306.5 1307 c 128,-1,9
 361 1352 361 1352 454 1383 c 128,-1,10
 547 1414 547 1414 603 1414 c 0,11,12
 754 1414 754 1414 823.5 1338.5 c 128,-1,13
 893 1263 893 1263 893 1141 c 128,-1,14
 893 1019 893 1019 844.5 932.5 c 128,-1,15
 796 846 796 846 784 820 c 1,16,17
 800 810 800 810 851 788 c 0,18,19
 954 743 954 743 1009 512 c 0,20,21
 1036 400 1036 400 1036 370 c 128,-1,22
 1036 340 1036 340 1031.5 310 c 128,-1,23
 1027 280 1027 280 975 187 c 0,24,25
 864 -11 864 -11 712 -50 c 0,26,27
 665 -62 665 -62 536 -62 c 2,28,-1
 532 -62 l 1,29,-1
 514 -60 l 1,30,31
 364 -60 364 -60 310.5 -27.5 c 128,-1,32
 257 5 257 5 155 52 c 128,-1,33
 53 99 53 99 51 152 c 1,34,-1
 63 222 l 1,35,36
 77 277 77 277 96 305 c 128,-1,37
 115 333 115 333 163.5 333 c 128,-1,38
 212 333 212 333 233 310.5 c 128,-1,39
 254 288 254 288 254 240 c 128,-1,40
 254 192 254 192 307.5 149.5 c 128,-1,41
 361 107 361 107 440 97 c 2,42,-1
 557 82 l 1,43,-1
 579 82 l 1,44,45
 599 87 599 87 629 106 c 1,46,47
 727 275 727 275 727 413 c 0,48,-1
 726 414 l 0,49,50
 726 552 726 552 681 660 c 1,51,-1
 649 666 l 1,52,53
 633 661 633 661 589 640 c 0,54,55
 551 622 551 622 531 622 c 0,56,57
 528 622 528 622 526 622 c 0,58,59
 507 625 507 625 482 644.5 c 128,-1,60
 457 664 457 664 457 694.5 c 128,-1,61
 457 725 457 725 485.5 759 c 128,-1,62
 514 793 514 793 518 796 c 0,63,64
 616 935 616 935 616 1059 c 0,65,66
 616 1147 616 1147 566 1235 c 1,67,68
 535 1230 535 1230 502.5 1223 c 128,-1,69
 470 1216 470 1216 445 1190 c 128,-1,70
 420 1164 420 1164 391 1099 c 1,71,-1
 360 1010 l 1,72,-1
 384 924 l 1,73,-1
 370 891 l 1,74,-1
 366 891 l 1,75,76
 349 876 349 876 324 876 c 2,0,-1
EndSplineSet
Validated: 1
EndChar

StartChar: four
Encoding: 52 52 19
Width: 903
VWidth: 1894
Flags: W
HStem: 1375 20G<372 393>
LayerCount: 2
Fore
SplineSet
414 1388 m 0,0,1
 414 1388 414 1388 567 1326 c 1,2,3
 495 914 495 914 404 508 c 1,4,-1
 482 512 l 2,5,6
 491 513 491 513 516 524 c 0,7,8
 542 536 542 536 568 602 c 0,9,10
 594 670 594 670 627 690 c 1,11,12
 638 700 638 700 649 700 c 1,13,-1
 787 659 l 1,14,15
 817 655 817 655 821 639 c 1,16,-1
 806 507 l 1,17,18
 847 463 847 463 847 435 c 2,19,-1
 847 434 l 2,20,21
 847 402 847 402 823 390.5 c 128,-1,22
 799 379 799 379 790 375 c 1,23,24
 774 258 774 258 755 142 c 1,25,26
 770 127 770 127 782 107 c 1,27,-1
 795 69 l 1,28,-1
 795 65 l 1,29,30
 785 2 785 2 662 2 c 128,-1,31
 539 2 539 2 486.5 7.5 c 128,-1,32
 434 13 434 13 412 36 c 1,33,34
 400 60 400 60 399.5 66.5 c 128,-1,35
 399 73 399 73 399 79 c 128,-1,36
 399 85 399 85 404.5 114.5 c 128,-1,37
 410 144 410 144 441.5 157 c 128,-1,38
 473 170 473 170 483 196 c 1,39,-1
 506 370 l 1,40,-1
 466 366 l 1,41,42
 335 358 335 358 254 338 c 2,43,-1
 133 308 l 1,44,-1
 57 381 l 1,45,-1
 103 510 l 2,46,47
 119 556 119 556 149 680 c 0,48,49
 179 806 179 806 228 942 c 0,50,51
 275 1078 275 1078 275 1136 c 128,-1,52
 275 1194 275 1194 294 1269 c 0,53,54
 310 1331 310 1331 337 1366 c 0,55,56
 358 1395 358 1395 386 1395 c 0,57,58
 400 1395 400 1395 414 1388 c 0,0,1
EndSplineSet
Validated: 1
EndChar

StartChar: five
Encoding: 53 53 20
Width: 1075
VWidth: 1894
Flags: W
HStem: -12 228<119.013 290.342> 1081 244<896 1041> 1208 148<591.329 815> 1352 20G<861 1001>
VStem: 730 287<400.782 716.497> 815 191<1107.75 1204.89>
LayerCount: 2
Fore
SplineSet
815 1191 m 2,0,-1
 815 1207 l 1,1,-1
 599 1208 l 1,2,3
 575 1072 575 1072 544 940 c 1,4,-1
 576 944 l 1,5,-1
 683 922 l 1,6,7
 776 906 776 906 828.5 875 c 128,-1,8
 881 844 881 844 929.5 779.5 c 128,-1,9
 978 715 978 715 997.5 670.5 c 128,-1,10
 1017 626 1017 626 1017 489 c 1,11,-1
 1016 482 l 1,12,13
 1016 340 1016 340 958 192 c 0,14,15
 899 41 899 41 770 -25 c 0,16,17
 731 -45 731 -45 688.5 -48.5 c 128,-1,18
 646 -52 646 -52 520 -52 c 128,-1,19
 394 -52 394 -52 349 -49 c 128,-1,20
 304 -46 304 -46 278 -29 c 128,-1,21
 252 -12 252 -12 227 -12 c 128,-1,22
 202 -12 202 -12 176 -27 c 1,23,-1
 130 -48 l 1,24,-1
 122 -48 l 2,25,26
 102 -48 102 -48 76.5 -23.5 c 128,-1,27
 51 1 51 1 51 61 c 128,-1,28
 51 121 51 121 104 168.5 c 128,-1,29
 157 216 157 216 205 216 c 0,30,31
 293 216 293 216 293 152 c 0,32,33
 293 152 293 152 293 151 c 1,34,-1
 291 129 l 1,35,36
 291 120 291 120 343 94 c 1,37,-1
 418 69 l 1,38,-1
 418 68 l 1,39,-1
 471 63 l 1,40,-1
 531 82 l 1,41,42
 556 90 556 90 582 98 c 1,43,44
 707 284 707 284 712 356 c 2,45,-1
 730 576 l 2,46,47
 730 579 730 579 730 583 c 0,48,49
 730 633 730 633 683 752 c 1,50,51
 656 766 656 766 610 776 c 1,52,-1
 550 782 l 1,53,54
 518 779 518 779 426.5 711 c 128,-1,55
 335 643 335 643 298 642 c 1,56,-1
 272 642 l 1,57,-1
 272 650 l 1,58,59
 248 662 248 662 237 691 c 1,60,-1
 224 752 l 1,61,-1
 265 1163 l 1,62,-1
 265 1164 l 1,63,64
 254 1169 254 1169 217.5 1181 c 128,-1,65
 181 1193 181 1193 181 1239 c 0,66,67
 181 1323 181 1323 268 1338.5 c 128,-1,68
 355 1354 355 1354 595 1356 c 128,-1,69
 835 1358 835 1358 861 1365 c 1,70,-1
 916 1372 l 1,71,-1
 1001 1366 l 2,72,73
 1040 1362 1040 1362 1040 1326 c 0,74,75
 1040 1325 1040 1325 1041 1325 c 0,76,77
 1041 1290 1041 1290 1006 1186 c 128,-1,78
 971 1082 971 1082 896 1081 c 0,79,80
 864 1081 864 1081 839.5 1120 c 128,-1,81
 815 1159 815 1159 815 1191 c 2,0,-1
EndSplineSet
Validated: 1
EndChar

StartChar: six
Encoding: 54 54 21
Width: 1144
VWidth: 1894
Flags: W
HStem: -70 144<417.33 655.051> 828 144<537.66 700.185>
VStem: 53 284<197.995 612.277> 795 293<246.157 685.1>
LayerCount: 2
Fore
SplineSet
97 104 m 0,0,1
 71 142 71 142 62 190 c 128,-1,2
 53 238 53 238 53 486 c 128,-1,3
 53 734 53 734 118 846 c 1,4,5
 138 884 138 884 195 1011 c 128,-1,6
 252 1138 252 1138 299 1174 c 128,-1,7
 346 1210 346 1210 407.5 1274 c 128,-1,8
 469 1338 469 1338 572 1389 c 128,-1,9
 675 1440 675 1440 753.5 1440 c 128,-1,10
 832 1440 832 1440 868 1372.5 c 128,-1,11
 904 1305 904 1305 904 1242 c 128,-1,12
 904 1179 904 1179 865 1179 c 0,13,14
 835 1179 835 1179 794 1206.5 c 128,-1,15
 753 1234 753 1234 735 1245 c 1,16,17
 637 1108 637 1108 537 972 c 1,18,19
 567 974 567 974 610 974 c 0,20,21
 645 974 645 974 688 972 c 0,22,23
 783 970 783 970 846 942 c 1,24,25
 906 914 906 914 990.5 778 c 128,-1,26
 1075 642 1075 642 1081.5 589 c 128,-1,27
 1088 536 1088 536 1088 482 c 128,-1,28
 1088 428 1088 428 1054.5 280.5 c 128,-1,29
 1021 133 1021 133 975 64.5 c 128,-1,30
 929 -4 929 -4 771 -37 c 128,-1,31
 613 -70 613 -70 538 -70 c 128,-1,32
 463 -70 463 -70 367 -50 c 1,33,34
 171 -5 171 -5 97 104 c 0,0,1
644 86 m 1,35,36
 794 254 794 254 795 440 c 0,37,38
 795 703 795 703 701 826 c 1,39,40
 675 828 675 828 639 828 c 128,-1,41
 603 828 603 828 569.5 810 c 128,-1,42
 536 792 536 792 474.5 740 c 128,-1,43
 413 688 413 688 385.5 646 c 128,-1,44
 358 604 358 604 347 586 c 1,45,46
 337 526 337 526 337 466 c 0,47,48
 337 284 337 284 422 92 c 1,49,50
 480 74 480 74 545 74 c 0,51,52
 578 74 578 74 644 86 c 1,35,36
EndSplineSet
Validated: 1
EndChar

StartChar: seven
Encoding: 55 55 22
Width: 1042
VWidth: 1894
Flags: W
HStem: 1256 144<236.453 690.971>
VStem: 46 177<987.947 1239> 697 311<980.678 1252.87>
LayerCount: 2
Fore
SplineSet
769 570 m 1,0,1
 532 340 532 340 463 64 c 1,2,3
 504 36 504 36 505 5 c 0,4,5
 506 -4 506 -4 502 -12 c 0,6,7
 488 -52 488 -52 440 -63 c 0,8,9
 342 -84 342 -84 246 -84 c 0,10,11
 144 -84 144 -84 111.5 -72 c 128,-1,12
 79 -60 79 -60 79 -16 c 128,-1,13
 79 28 79 28 116 51 c 128,-1,14
 153 74 153 74 164.5 95.5 c 128,-1,15
 176 117 176 117 206 199 c 0,16,17
 264 360 264 360 376 478 c 0,18,19
 412 516 412 516 424 531 c 1,20,21
 417 536 417 536 394 548 c 128,-1,22
 371 560 371 560 358.5 585.5 c 128,-1,23
 346 611 346 611 346 630 c 2,24,-1
 346 634 l 1,25,-1
 347 636 l 1,26,27
 351 656 351 656 377 686 c 0,28,29
 401 715 401 715 472 715 c 0,30,31
 476 715 476 715 536 719 c 1,32,33
 697 912 697 912 697 1124 c 0,34,-1
 697 1127 l 0,35,36
 697 1191 697 1191 683 1256 c 1,37,-1
 398 1256 l 2,38,39
 301 1256 301 1256 265 1248 c 1,40,-1
 236 1239 l 1,41,-1
 223 1036 l 1,42,43
 210 958 210 958 143 958 c 0,44,45
 109 958 109 958 94 981 c 0,46,47
 47 1054 47 1054 46 1174 c 0,48,49
 46 1300 46 1300 64.5 1332 c 128,-1,50
 83 1364 83 1364 161 1382 c 128,-1,51
 239 1400 239 1400 327 1400 c 1,52,-1
 538 1394 l 1,53,-1
 700 1400 l 1,54,55
 905 1400 905 1400 938 1384 c 0,56,57
 1008 1350 1008 1350 1008 1243 c 0,58,-1
 1008 1240 l 0,59,-1
 1008 1239 l 0,60,61
 1008 1126 1008 1126 962.5 976 c 128,-1,62
 917 826 917 826 874.5 760 c 128,-1,63
 832 694 832 694 832 678 c 128,-1,64
 832 662 832 662 847 655 c 128,-1,65
 862 648 862 648 864 637 c 0,66,67
 865 624 865 624 864 617 c 0,68,69
 864 613 864 613 864 610 c 0,70,71
 857 565 857 565 819 565 c 0,72,73
 815 565 815 565 811 565 c 2,74,-1
 769 570 l 1,0,1
EndSplineSet
Validated: 1
EndChar

StartChar: eight
Encoding: 56 56 23
Width: 1189
VWidth: 1894
Flags: W
HStem: -34 150<456.351 710.279>
VStem: 150 266<1015.68 1141.4> 685 264<1015.05 1224.46> 807 326<343 569.516>
LayerCount: 2
Fore
SplineSet
949 1194.5 m 128,-1,1
 949 1073 949 1073 872 956 c 1,2,-1
 843 916 l 1,3,4
 864 898 864 898 939 846 c 0,5,6
 1133 712 1133 712 1133 500 c 1,7,-1
 1120 343 l 1,8,9
 1090 234 1090 234 955 102 c 128,-1,10
 820 -30 820 -30 727 -33 c 0,11,12
 685 -34 685 -34 639.5 -34 c 128,-1,13
 594 -34 594 -34 477.5 -15 c 128,-1,14
 361 4 361 4 289 40 c 128,-1,15
 217 76 217 76 134 179 c 128,-1,16
 51 282 51 282 51 342 c 1,17,-1
 78 491 l 1,18,19
 105 588 105 588 122 600 c 128,-1,20
 139 612 139 612 193.5 687 c 128,-1,21
 248 762 248 762 297 793 c 128,-1,22
 346 824 346 824 349 832 c 1,23,24
 335 844 335 844 242.5 890.5 c 128,-1,25
 150 937 150 937 150 999 c 2,26,-1
 150 1002 l 1,27,28
 152 1056 152 1056 218 1194 c 128,-1,29
 284 1332 284 1332 386 1360 c 1,30,31
 414 1398 414 1398 505 1401 c 128,-1,32
 596 1404 596 1404 634 1404 c 128,-1,33
 672 1404 672 1404 682 1401 c 2,34,-1
 811 1366 l 1,35,0
 949 1316 949 1316 949 1194.5 c 128,-1,1
569 714 m 1,36,37
 452 691 452 691 396 638 c 1,38,39
 354 522 354 522 354 460 c 0,40,-1
 389 225 l 0,41,42
 473 144 473 144 475 144 c 0,43,44
 570 116 570 116 581 116 c 0,45,46
 682 116 682 116 716 168.5 c 128,-1,47
 750 221 750 221 762 228 c 1,48,49
 807 298 807 298 807 384 c 0,50,51
 807 472 807 472 760 576 c 0,52,53
 719 665 719 665 569 714 c 1,36,37
685 1094 m 0,54,55
 685 1211 685 1211 584 1276 c 1,56,-1
 510 1272 l 1,57,58
 489 1266 489 1266 441 1232 c 1,59,60
 416 1176 416 1176 416 1128 c 0,61,62
 416 1036 416 1036 509 974 c 1,63,64
 539 956 539 956 566 954 c 0,65,66
 569 954 569 954 572 954 c 0,67,68
 603 954 603 954 627 977 c 0,69,70
 654 1002 654 1002 665 1014 c 1,71,72
 685 1056 685 1056 685 1094 c 0,54,55
EndSplineSet
Validated: 1
EndChar

StartChar: nine
Encoding: 57 57 24
Width: 1113
VWidth: 1894
Flags: W
HStem: -58 158<348.518 681.606> 367 181<439.908 695.765> 1245 138<446.75 728.616>
VStem: 730 284<181.515 375> 754 272<618 755.883> 761 295<618 1103>
LayerCount: 2
Fore
SplineSet
740 1162 m 0,0,1
 730 1245 730 1245 638 1245 c 0,2,3
 603 1245 603 1245 557 1233 c 2,4,-1
 445 1204 l 1,5,6
 350 1030 350 1030 350 882 c 2,7,-1
 350 879 l 2,8,9
 350 733 350 733 412 608 c 1,10,11
 467 548 467 548 505 548 c 0,12,13
 515 548 515 548 524 552 c 1,14,-1
 692 530 l 1,15,-1
 754 618 l 1,16,17
 760 720 760 720 760 856 c 0,18,19
 760 859 760 859 761 862 c 0,20,21
 761 996 761 996 740 1162 c 0,0,1
92 192 m 128,-1,23
 92 223 92 223 138 227 c 1,24,-1
 138 230 l 1,25,-1
 164 230 l 2,26,27
 207 230 207 230 254 198 c 0,28,29
 396 100 396 100 538 100 c 2,30,-1
 553 100 l 2,31,32
 637 100 637 100 675 111 c 1,33,34
 710 244 710 244 730 375 c 1,35,36
 699 367 699 367 662.5 367 c 128,-1,37
 626 367 626 367 587 369.5 c 128,-1,38
 548 372 548 372 411 422 c 128,-1,39
 274 472 274 472 181 585 c 128,-1,40
 88 698 88 698 74 724 c 1,41,-1
 59 785 l 1,42,-1
 85 927 l 1,43,44
 103 1012 103 1012 118 1050 c 128,-1,45
 133 1088 133 1088 138.5 1114 c 128,-1,46
 144 1140 144 1140 144 1145 c 0,47,48
 144 1274 144 1274 295 1345 c 1,49,-1
 393 1392 l 1,50,-1
 718 1383 l 1,51,52
 722 1374 722 1374 819.5 1340 c 128,-1,53
 917 1306 917 1306 980 1220 c 0,54,55
 1044 1133 1044 1133 1049 1103 c 2,56,-1
 1054 1070 l 1,57,-1
 1056 1010 l 1,58,59
 1056 944 1056 944 1043 796 c 1,60,-1
 1029 540 l 1,61,-1
 1026 370 l 1,62,63
 1026 320 1026 320 1014 275 c 128,-1,64
 1002 230 1002 230 945.5 141.5 c 128,-1,65
 889 53 889 53 859.5 -2.5 c 128,-1,66
 830 -58 830 -58 649 -58 c 2,67,-1
 635 -58 l 1,68,69
 445 -56 445 -56 320.5 -15 c 128,-1,70
 196 26 196 26 162.5 54 c 128,-1,71
 129 82 129 82 110.5 121.5 c 128,-1,22
 92 161 92 161 92 192 c 128,-1,23
EndSplineSet
Validated: 1
EndChar

StartChar: less
Encoding: 60 60 27
Width: 1087
VWidth: 1894
Flags: W
LayerCount: 2
Fore
SplineSet
956 1116 m 0,0,1
 956 1089 956 1089 945 1069 c 1,2,3
 955 1055 955 1055 946 1044 c 0,4,5
 756 813 756 813 567 582 c 1,6,7
 804 221 804 221 953 89 c 0,8,9
 962 81 962 81 955 69 c 1,10,-1
 959 45 l 1,11,-1
 956 42 l 1,12,13
 954 -1 954 -1 933 -18 c 128,-1,14
 912 -35 912 -35 893.5 -49.5 c 128,-1,15
 875 -64 875 -64 856 -64 c 2,16,-1
 839 -64 l 1,17,18
 808 -57 808 -57 789 -15.5 c 128,-1,19
 770 26 770 26 691 100 c 128,-1,20
 612 174 612 174 544.5 212 c 128,-1,21
 477 250 477 250 321 372 c 128,-1,22
 165 494 165 494 136 529 c 128,-1,23
 107 564 107 564 107 587 c 0,24,25
 107 664 107 664 151 686 c 0,26,27
 173 697 173 697 182 702 c 128,-1,28
 191 707 191 707 207 712 c 1,29,-1
 232 718 l 2,30,31
 243 721 243 721 369 823 c 0,32,33
 496 926 496 926 644 1055 c 0,34,35
 794 1187 794 1187 840 1197 c 1,36,-1
 903 1208 l 1,37,-1
 904 1208 l 2,38,39
 956 1208 956 1208 956 1116 c 0,0,1
EndSplineSet
Validated: 1
EndChar

StartChar: equal
Encoding: 61 61 28
Width: 1375
VWidth: 1894
Flags: W
HStem: 320 192<351.334 1213.85> 693 191<325.389 1206.3>
LayerCount: 2
Fore
SplineSet
896 320 m 2,0,-1
 557 320 l 1,1,-1
 184 346 l 1,2,-1
 150 382 l 1,3,4
 129 409 129 409 129 445 c 128,-1,5
 129 481 129 481 162 504.5 c 128,-1,6
 195 528 195 528 250 528 c 1,7,-1
 780 512 l 1,8,9
 1126 507 1126 507 1175 498 c 128,-1,10
 1224 489 1224 489 1237 473 c 128,-1,11
 1250 457 1250 457 1250 408 c 128,-1,12
 1250 359 1250 359 1215 339.5 c 128,-1,13
 1180 320 1180 320 896 320 c 2,0,-1
887 693 m 2,14,-1
 547 693 l 1,15,-1
 176 717 l 1,16,-1
 141 757 l 2,17,18
 120 782 120 782 120 818 c 128,-1,19
 120 854 120 854 152.5 877 c 128,-1,20
 185 900 185 900 239 900 c 1,21,-1
 774 884 l 1,22,23
 1123 879 1123 879 1168 870.5 c 128,-1,24
 1213 862 1213 862 1228.5 849 c 128,-1,25
 1244 836 1244 836 1244 781.5 c 128,-1,26
 1244 727 1244 727 1207.5 710 c 128,-1,27
 1171 693 1171 693 887 693 c 2,14,-1
EndSplineSet
Validated: 1
EndChar

StartChar: greater
Encoding: 62 62 29
Width: 1003
VWidth: 1894
Flags: W
LayerCount: 2
Fore
SplineSet
133 1079 m 1,0,-1
 133 1090 l 2,1,2
 133 1118 133 1118 152.5 1143 c 128,-1,3
 172 1168 172 1168 216 1168 c 2,4,-1
 217 1168 l 2,5,6
 260 1168 260 1168 331.5 1096 c 128,-1,7
 403 1024 403 1024 488.5 951 c 128,-1,8
 574 878 574 878 622 852 c 128,-1,9
 670 826 670 826 721 770 c 128,-1,10
 772 714 772 714 825 688 c 128,-1,11
 878 662 878 662 878 620 c 2,12,-1
 878 619 l 1,13,-1
 868 565 l 1,14,15
 857 535 857 535 658.5 333.5 c 128,-1,16
 460 132 460 132 272 -82 c 1,17,18
 244 -112 244 -112 196 -112 c 1,19,-1
 186 -114 l 1,20,-1
 182 -114 l 2,21,22
 142 -114 142 -114 128 -96 c 1,23,-1
 115 -39 l 1,24,-1
 115 -38 l 2,25,26
 115 7 115 7 135 32.5 c 128,-1,27
 155 58 155 58 184 89 c 1,28,29
 380 350 380 350 433 594 c 1,30,31
 275 817 275 817 117 1040 c 1,32,33
 117 1065 117 1065 123 1070.5 c 128,-1,34
 129 1076 129 1076 133 1079 c 1,0,-1
EndSplineSet
Validated: 1
EndChar

StartChar: question
Encoding: 63 63 30
Width: 1094
Flags: W
HStem: -36 304<387.524 596.889> 371 150<599 661.011> 1268 112<435 600.956>
VStem: 306 272<513.221 663.942> 321 335<22.8438 198.145> 686 261<868.609 1178.63>
LayerCount: 2
Fore
SplineSet
315 1164 m 0,0,-1
 331 1008 l 0,1,2
 343 927 343 927 354 907 c 1,3,-1
 351 864 l 1,4,-1
 323 832 l 1,5,6
 295 811 295 811 256 806 c 1,7,-1
 244 806 l 2,8,9
 211 806 211 806 190 826 c 0,10,11
 166 847 166 847 154 905 c 0,12,-1
 141 972 l 2,13,-1
 154 1159 l 2,14,15
 158 1224 158 1224 249 1302 c 0,16,17
 340 1380 340 1380 527 1380 c 2,18,-1
 533 1380 l 2,19,20
 611 1380 611 1380 665 1363 c 0,21,22
 722 1345 722 1345 789 1297 c 1,23,24
 947 1185 947 1185 947 1023 c 2,25,-1
 947 1022 l 2,26,27
 947 789 947 789 612 665 c 1,28,29
 578 631 578 631 578 616 c 2,30,-1
 578 600 l 2,31,32
 578 551 578 551 599 512 c 1,33,-1
 638 521 l 1,34,-1
 640 521 l 1,35,36
 661 518 661 518 678 499 c 0,37,38
 694 481 694 481 694 463 c 0,39,40
 694 448 694 448 662 409 c 0,41,42
 631 373 631 373 519 371 c 1,43,44
 509 369 509 369 489 369 c 0,45,46
 468 369 468 369 436 385 c 1,47,-1
 338 439 l 1,48,49
 307 483 307 483 306 547 c 0,50,51
 306 552 306 552 306 556 c 0,52,53
 306 639 306 639 323 667 c 0,54,55
 338 691 338 691 394 719 c 0,56,57
 449 747 449 747 482 753 c 0,58,59
 556 767 556 767 587 799 c 0,60,61
 633 847 633 847 661 862 c 1,62,63
 686 935 686 935 686 1034 c 0,64,65
 686 1133 686 1133 601 1250 c 1,66,67
 600 1251 600 1251 548 1261 c 0,68,69
 515 1268 515 1268 491 1268 c 0,70,-1
 435 1259 l 0,71,72
 349 1229 349 1229 315 1164 c 0,0,-1
EndSplineSet
Refer: 13 46 N 1 0 0 1 166 0 2
Validated: 1
EndChar

StartChar: at
Encoding: 64 64 31
Width: 1614
VWidth: 1894
Flags: W
HStem: 222 164<606.57 789 791 804> 898 157<698.415 899.785> 1322 184<588.073 926.144>
VStem: 27 284<360.445 805.582> 369 173<452.545 776.589> 1322 234<543.628 1054.11>
LayerCount: 2
Fore
SplineSet
1322 856 m 24,0,1
 1322 1064 1322 1064 1163 1191 c 0,2,3
 1065 1270 1065 1270 1048 1278 c 0,4,5
 981 1308 981 1308 817 1320 c 0,6,7
 792 1322 792 1322 769 1322 c 0,8,9
 574 1322 574 1322 516 1194 c 8,10,11
 311 738 311 738 311 627 c 0,12,13
 311 321 311 321 538 30 c 1,14,15
 585 4 585 4 649 -19 c 128,-1,16
 713 -42 713 -42 831 -51 c 128,-1,17
 949 -60 949 -60 959 -64 c 128,-1,18
 969 -68 969 -68 980.5 -68 c 128,-1,19
 992 -68 992 -68 1050 -54 c 0,20,21
 1101 -42 1101 -42 1166 -10 c 0,22,23
 1287 49 1287 49 1367 199 c 1,24,-1
 1444 315 l 1,25,26
 1474 350 1474 350 1511.5 350 c 128,-1,27
 1549 350 1549 350 1560 332 c 128,-1,28
 1571 314 1571 314 1571 250 c 0,29,30
 1570 186 1570 186 1485 66 c 0,31,32
 1398 -54 1398 -54 1296 -116 c 2,33,-1
 1213 -166 l 1,34,-1
 896 -236 l 1,35,-1
 583 -160 l 1,36,-1
 495 -122 l 1,37,38
 397 -78 397 -78 282 10 c 128,-1,39
 167 98 167 98 135 158 c 0,40,41
 62 294 62 294 44.5 353 c 128,-1,42
 27 412 27 412 27 579.5 c 128,-1,43
 27 747 27 747 92 926 c 0,44,45
 154 1097 154 1097 188.5 1151.5 c 128,-1,46
 223 1206 223 1206 255 1263 c 128,-1,47
 287 1320 287 1320 346.5 1383 c 128,-1,48
 406 1446 406 1446 469.5 1476 c 128,-1,49
 533 1506 533 1506 660 1506 c 128,-1,50
 787 1506 787 1506 835.5 1495 c 128,-1,51
 884 1484 884 1484 1084.5 1392 c 128,-1,52
 1285 1300 1285 1300 1411 1174 c 1,53,54
 1472 1116 1472 1116 1514 1056 c 128,-1,55
 1556 996 1556 996 1556 869 c 128,-1,56
 1556 742 1556 742 1530 622 c 128,-1,57
 1504 502 1504 502 1481 443 c 0,58,59
 1460 388 1460 388 1415 336 c 0,60,61
 1305 210 1305 210 1196 210 c 2,62,-1
 1195 210 l 2,63,64
 1087 210 1087 210 1037 275 c 0,65,66
 1002 321 1002 321 987 335 c 1,67,68
 975 327 975 327 958 310 c 0,69,70
 876 228 876 228 791 224 c 1,71,-1
 789 222 l 1,72,-1
 778 222 l 2,73,74
 700 222 700 222 626.5 241 c 128,-1,75
 553 260 553 260 517 284 c 128,-1,76
 481 308 481 308 425 398 c 128,-1,77
 369 488 369 488 369 638 c 0,78,79
 369 917 369 917 625 1024 c 0,80,81
 697 1054 697 1054 784 1055 c 128,-1,82
 871 1056 871 1056 898 1060 c 1,83,-1
 945 1079 l 1,84,-1
 992 1102 l 1,85,86
 992 1103 992 1103 995 1103 c 2,87,-1
 1083 1101 l 1,88,89
 1151 1075 1151 1075 1154 1053 c 0,90,91
 1199 718 1199 718 1226 387 c 1,92,93
 1273 442 1273 442 1291 490 c 0,94,95
 1312 545 1312 545 1317 659 c 128,-1,96
 1322 773 1322 773 1322 856 c 24,0,1
761 898 m 0,97,98
 711 898 711 898 698 892.5 c 128,-1,99
 685 887 685 887 613.5 813.5 c 128,-1,100
 542 740 542 740 542 619.5 c 128,-1,101
 542 499 542 499 593.5 442.5 c 128,-1,102
 645 386 645 386 752 386 c 1,103,-1
 804 391 l 1,104,105
 819 397 819 397 855 428.5 c 128,-1,106
 891 460 891 460 922 465.5 c 128,-1,107
 953 471 953 471 965 474 c 1,108,109
 964 482 964 482 960 513 c 128,-1,110
 956 544 956 544 944 669 c 128,-1,111
 932 794 932 794 914 830 c 1,112,-1
 914 832 l 1,113,114
 885 896 885 896 761 898 c 0,97,98
EndSplineSet
Validated: 1
EndChar

StartChar: A
Encoding: 65 65 32
Width: 1305
VWidth: 1894
Flags: W
HStem: 532 158<486 844> 1200 170<550.065 767>
VStem: 844 294<452.896 522 681 1103.22>
LayerCount: 2
Fore
SplineSet
806 77 m 2,0,1
 806 134 806 134 867 155 c 1,2,3
 857 339 857 339 849 522 c 1,4,5
 788 524 788 524 661 530 c 0,6,7
 615 532 615 532 582 532 c 0,8,9
 571 532 571 532 562 532 c 0,10,11
 520 532 520 532 504 529 c 0,12,13
 474 523 474 523 461 521 c 1,14,15
 433 334 433 334 403 147 c 1,16,17
 407 146 407 146 415 145 c 1,18,-1
 456 128 l 1,19,-1
 443 111 l 1,20,-1
 446 105 l 1,21,-1
 435 65 l 1,22,23
 414 24 414 24 361.5 15 c 128,-1,24
 309 6 309 6 226 6 c 128,-1,25
 143 6 143 6 97 16.5 c 128,-1,26
 51 27 51 27 51 66.5 c 128,-1,27
 51 106 51 106 90 134 c 128,-1,28
 129 162 129 162 129 174 c 1,29,-1
 167 488 l 1,30,31
 176 577 176 577 179 632 c 1,32,-1
 176 682 l 1,33,34
 176 748 176 748 214 909 c 128,-1,35
 252 1070 252 1070 320 1167 c 128,-1,36
 388 1264 388 1264 451 1317 c 128,-1,37
 514 1370 514 1370 635 1370 c 0,38,39
 665 1370 665 1370 711 1368 c 1,40,41
 1021 1348 1021 1348 1112 1052 c 1,42,43
 1138 961 1138 961 1138 886.5 c 128,-1,44
 1138 812 1138 812 1134 788 c 1,45,-1
 1157 172 l 1,46,-1
 1238 112 l 1,47,-1
 1254 82 l 1,48,-1
 1231 2 l 1,49,-1
 866 16 l 1,50,51
 810 28 810 28 806 72 c 1,52,-1
 806 77 l 2,0,1
692 1200 m 1,53,54
 608 1198 608 1198 594 1192 c 0,55,56
 578 1185 578 1185 565 1173.5 c 128,-1,57
 552 1162 552 1162 550 1162 c 1,58,59
 520 925 520 925 486 690 c 1,60,-1
 651 700 l 1,61,62
 748 690 748 690 844 681 c 1,63,64
 837 910 837 910 832 1139 c 1,65,-1
 767 1190 l 1,66,-1
 692 1200 l 1,53,54
EndSplineSet
Validated: 1
EndChar

StartChar: B
Encoding: 66 66 33
Width: 1190
VWidth: 1894
Flags: W
HStem: -12 148<129 243 526 714.276> 581 179<549 694.626> 1194 158<558 716.901>
VStem: 243 283<136 571.938> 246 297<136.969 581 760 1154.13> 763 294<862.166 1001 1002 1140.86> 825 309<246.224 524.208>
LayerCount: 2
Fore
SplineSet
825 376 m 128,-1,1
 825 476 825 476 752 564 c 1,2,-1
 606 580 l 2,3,4
 594 581 594 581 581 581 c 0,5,6
 563 581 563 581 543 579 c 1,7,8
 536 353 536 353 526 130 c 1,9,10
 603 131 603 131 647.5 139.5 c 128,-1,11
 692 148 692 148 715 156 c 1,12,0
 825 276 825 276 825 376 c 128,-1,1
762 1002 m 0,13,14
 763 1013 763 1013 763 1023 c 0,15,16
 763 1129 763 1129 686 1176 c 8,17,18
 665 1189 665 1189 650 1197 c 0,19,20
 641 1201 641 1201 633.5 1201 c 128,-1,21
 626 1201 626 1201 620 1197 c 0,22,23
 616 1194 616 1194 592 1194 c 0,24,25
 579 1194 579 1194 558 1195 c 1,26,27
 554 977 554 977 549 760 c 1,28,29
 672 770 672 770 708 818 c 0,30,31
 756 886 756 886 762 1002 c 0,13,14
447 1352 m 2,32,-1
 524 1352 l 2,33,34
 566 1352 566 1352 693.5 1333 c 128,-1,35
 821 1314 821 1314 891 1272 c 128,-1,36
 961 1230 961 1230 1009.5 1146.5 c 128,-1,37
 1058 1063 1058 1063 1058 1002 c 1,38,-1
 1057 1001 l 1,39,40
 1057 940 1057 940 1010.5 857 c 128,-1,41
 964 774 964 774 937 755 c 128,-1,42
 910 736 910 736 901 728 c 1,43,44
 911 721 911 721 933.5 707.5 c 128,-1,45
 956 694 956 694 968 684 c 1,46,47
 1031 645 1031 645 1082.5 551.5 c 128,-1,48
 1134 458 1134 458 1134 414 c 128,-1,49
 1134 370 1134 370 1112 299 c 128,-1,50
 1090 228 1090 228 1028 157 c 128,-1,51
 966 86 966 86 855 37 c 128,-1,52
 744 -12 744 -12 387 -12 c 1,53,-1
 145 -6 l 1,54,55
 84 2 84 2 69 25 c 128,-1,56
 54 48 54 48 54 74 c 2,57,-1
 54 78 l 1,58,-1
 79 112 l 1,59,-1
 129 136 l 1,60,-1
 243 136 l 1,61,-1
 246 492 l 1,62,-1
 252 998 l 2,63,64
 252 1066 252 1066 243 1118 c 2,65,-1
 237 1157 l 1,66,-1
 156 1151 l 1,67,68
 122 1151 122 1151 99 1167.5 c 128,-1,69
 76 1184 76 1184 76 1193 c 2,70,-1
 76 1204 l 1,71,72
 77 1224 77 1224 93 1255 c 128,-1,73
 109 1286 109 1286 149.5 1304 c 128,-1,74
 190 1322 190 1322 283 1330.5 c 128,-1,75
 376 1339 376 1339 391.5 1345.5 c 128,-1,76
 407 1352 407 1352 447 1352 c 2,32,-1
EndSplineSet
Validated: 1
EndChar

StartChar: C
Encoding: 67 67 34
Width: 1201
VWidth: 1894
Flags: W
HStem: -52 169<538.945 830.613> 1221 165<682.739 859.48>
VStem: 55 360<359.178 840.951> 876 270<148.974 251.421>
LayerCount: 2
Fore
SplineSet
692 1198 m 1,0,1
 415 901 415 901 415 608 c 0,2,3
 415 314 415 314 537 145 c 1,4,5
 599 117 599 117 693.5 117 c 128,-1,6
 788 117 788 117 832 148 c 128,-1,7
 876 179 876 179 876 230.5 c 128,-1,8
 876 282 876 282 895.5 308 c 128,-1,9
 915 334 915 334 962.5 334 c 128,-1,10
 1010 334 1010 334 1059 294 c 128,-1,11
 1108 254 1108 254 1127 209 c 128,-1,12
 1146 164 1146 164 1146 145 c 128,-1,13
 1146 126 1146 126 1134.5 93 c 128,-1,14
 1123 60 1123 60 1101 57 c 0,15,16
 1029 48 1029 48 958 38 c 1,17,18
 926 29 926 29 788 -44 c 0,19,20
 773 -52 773 -52 702 -52 c 128,-1,21
 631 -52 631 -52 569 -52 c 128,-1,22
 507 -52 507 -52 445.5 -35 c 128,-1,23
 384 -18 384 -18 293 46 c 1,24,25
 124 170 124 170 111 277 c 128,-1,26
 98 384 98 384 76.5 500 c 128,-1,27
 55 616 55 616 55 658 c 128,-1,28
 55 700 55 700 63.5 751.5 c 128,-1,29
 72 803 72 803 149 944.5 c 128,-1,30
 226 1086 226 1086 304 1164 c 1,31,32
 388 1242 388 1242 515 1314 c 128,-1,33
 642 1386 642 1386 778 1386 c 128,-1,34
 914 1386 914 1386 944 1368 c 128,-1,35
 974 1350 974 1350 989 1350 c 2,36,-1
 1019 1350 l 1,37,-1
 1066 1347 l 2,38,-1
 1077 1344 l 0,39,40
 1088 1342 1088 1342 1109 1327 c 0,41,42
 1127 1314 1127 1314 1127 1271 c 0,43,44
 1127 1265 1127 1265 1127 1258 c 1,45,-1
 1127 1257 l 1,46,47
 1123 1207 1123 1207 1103.5 1185.5 c 128,-1,48
 1084 1164 1084 1164 1050 1108 c 0,49,50
 1014 1052 1014 1052 974 1030 c 1,51,-1
 917 991 l 1,52,-1
 845 1073 l 1,53,-1
 842 1076 l 2,54,55
 839 1079 839 1079 839 1088 c 0,56,57
 839 1090 839 1090 839 1093 c 1,58,-1
 860 1177 l 1,59,60
 860 1221 860 1221 804 1221 c 0,61,62
 785 1221 785 1221 760 1216 c 0,63,64
 703 1206 703 1206 692 1198 c 1,0,1
EndSplineSet
Validated: 1
EndChar

StartChar: D
Encoding: 68 68 35
Width: 1403
VWidth: 1894
Flags: W
HStem: 5 128<116.002 232.835> 1141 227<153 570.5>
VStem: 246 328<583.283 1099> 246 296<185.473 800.195> 1058 290<606.083 1014.21>
LayerCount: 2
Fore
SplineSet
1058 816 m 0,0,1
 1058 1089 1058 1089 789 1219 c 1,2,-1
 574 1236 l 1,3,4
 567 698 567 698 542 168 c 1,5,6
 649 181 649 181 708.5 207.5 c 128,-1,7
 768 234 768 234 855 315 c 1,8,9
 1058 600 1058 600 1058 816 c 0,0,1
1348 882 m 2,10,-1
 1348 812 l 1,11,12
 1342 700 1342 700 1297.5 585.5 c 128,-1,13
 1253 471 1253 471 1199 415.5 c 128,-1,14
 1145 360 1145 360 1121 321 c 128,-1,15
 1097 282 1097 282 1030 226 c 128,-1,16
 963 170 963 170 880.5 123 c 128,-1,17
 798 76 798 76 621.5 39 c 128,-1,18
 445 2 445 2 317.5 2 c 128,-1,19
 190 2 190 2 161.5 5 c 128,-1,20
 133 8 133 8 115 27 c 1,21,-1
 99 61 l 1,22,-1
 115 94 l 1,23,24
 147 123 147 123 187.5 133 c 128,-1,25
 228 143 228 143 233 160 c 1,26,-1
 246 231 l 1,27,-1
 239 479 l 1,28,29
 239 591 239 591 246 786 c 1,30,-1
 258 976 l 1,31,-1
 252 1099 l 2,32,33
 253 1099 253 1099 248 1128 c 128,-1,34
 243 1157 243 1157 238 1156.5 c 128,-1,35
 233 1156 233 1156 204.5 1148.5 c 128,-1,36
 176 1141 176 1141 153 1141 c 0,37,38
 60 1141 60 1141 59 1201 c 1,39,40
 59 1305 59 1305 293 1350 c 0,41,42
 388 1368 388 1368 570.5 1368 c 128,-1,43
 753 1368 753 1368 850.5 1350 c 128,-1,44
 948 1332 948 1332 1039.5 1286 c 128,-1,45
 1131 1240 1131 1240 1166 1195 c 128,-1,46
 1201 1150 1201 1150 1274.5 1074 c 128,-1,47
 1348 998 1348 998 1348 882 c 2,10,-1
EndSplineSet
Validated: 1
EndChar

StartChar: E
Encoding: 69 69 36
Width: 1267
VWidth: 1894
Flags: W
HStem: 118 143<544.436 838.68> 552 310<645.844 796.901> 1098 210<931.839 1046.18> 1198 136<654.335 914.402> 1368 20G<1119.75 1161.25>
VStem: 208 328<357.523 626 800 1107.12> 226 314<256 626>
LayerCount: 2
Fore
SplineSet
716 260 m 0,0,1
 840 258 840 258 891 252 c 1,2,-1
 961 246 l 1,3,4
 972 255 972 255 997.5 288 c 128,-1,5
 1023 321 1023 321 1073 321 c 2,6,-1
 1075 321 l 2,7,8
 1137 321 1137 321 1137 250 c 0,9,10
 1137 249 1137 249 1137 248 c 2,11,-1
 1137 247 l 2,12,13
 1137 175 1137 175 1082 123 c 128,-1,14
 1027 71 1027 71 1015 53 c 1,15,16
 1014 25 1014 25 979.5 14.5 c 128,-1,17
 945 4 945 4 904.5 4 c 128,-1,18
 864 4 864 4 855 47 c 128,-1,19
 846 90 846 90 839 98 c 1,20,21
 829 103 829 103 789.5 110.5 c 128,-1,22
 750 118 750 118 712.5 118 c 128,-1,23
 675 118 675 118 483 89 c 1,24,-1
 148 32 l 1,25,-1
 144 32 l 2,26,27
 68 32 68 32 68 87 c 0,28,29
 68 95 68 95 71 118 c 128,-1,30
 74 141 74 141 126 172 c 1,31,-1
 226 236 l 1,32,-1
 208 833 l 1,33,34
 194 1058 194 1058 185 1082 c 0,35,36
 176 1107 176 1107 175 1108 c 2,37,-1
 151 1110 l 1,38,-1
 148 1106 l 1,39,-1
 138 1106 l 2,40,41
 39 1106 39 1106 37 1187 c 1,42,-1
 37 1188 l 2,43,44
 37 1228 37 1228 86.5 1262 c 128,-1,45
 136 1296 136 1296 218.5 1315 c 128,-1,46
 301 1334 301 1334 598.5 1334 c 128,-1,47
 896 1334 896 1334 940 1321 c 128,-1,48
 984 1308 984 1308 998 1308 c 128,-1,49
 1012 1308 1012 1308 1024 1311 c 128,-1,50
 1036 1314 1036 1314 1067.5 1351 c 128,-1,51
 1099 1388 1099 1388 1140.5 1388 c 128,-1,52
 1182 1388 1182 1388 1203 1366.5 c 128,-1,53
 1224 1345 1224 1345 1224 1311 c 128,-1,54
 1224 1277 1224 1277 1185 1215 c 1,55,56
 1107 1098 1107 1098 1021 1098 c 0,57,58
 975 1098 975 1098 950 1127 c 128,-1,59
 925 1156 925 1156 851.5 1177 c 128,-1,60
 778 1198 778 1198 753 1198 c 1,61,-1
 519 1164 l 1,62,63
 526 982 526 982 531 800 c 1,64,65
 556 803 556 803 603.5 808.5 c 128,-1,66
 651 814 651 814 693.5 838 c 128,-1,67
 736 862 736 862 761 862 c 2,68,-1
 762 862 l 1,69,-1
 825 846 l 1,70,71
 878 827 878 827 878 762.5 c 128,-1,72
 878 698 878 698 821.5 625 c 128,-1,73
 765 552 765 552 711 552 c 128,-1,74
 657 552 657 552 609 604 c 1,75,-1
 581 636 l 1,76,-1
 536 626 l 1,77,78
 540 440 540 440 540 256 c 1,79,80
 581 261 581 261 669 261 c 0,81,82
 691 260 691 260 716 260 c 0,0,1
EndSplineSet
Validated: 1
EndChar

StartChar: F
Encoding: 70 70 37
Width: 1365
VWidth: 1894
Flags: W
HStem: 518 308<751.423 885.853> 600 160<565 719> 1065 297<1131.12 1253.31> 1106 159<74.6069 249.263> 1153 157<596.561 1064>
VStem: 265 284<282.75 600>
LayerCount: 2
Fore
SplineSet
1307 1246 m 2,0,1
 1307 1209 1307 1209 1270 1137 c 128,-1,2
 1233 1065 1233 1065 1185.5 1065 c 128,-1,3
 1138 1065 1138 1065 1095 1116 c 2,4,-1
 1064 1153 l 1,5,-1
 954 1153 l 2,6,7
 824 1153 824 1153 750 1139.5 c 128,-1,8
 676 1126 676 1126 594 1116 c 1,9,10
 580 938 580 938 565 760 c 1,11,12
 606 763 606 763 661.5 763.5 c 128,-1,13
 717 764 717 764 731.5 769 c 128,-1,14
 746 774 746 774 769.5 800 c 128,-1,15
 793 826 793 826 839.5 826 c 128,-1,16
 886 826 886 826 911 811 c 128,-1,17
 936 796 936 796 936 751 c 128,-1,18
 936 706 936 706 921.5 633 c 128,-1,19
 907 560 907 560 886.5 539 c 128,-1,20
 866 518 866 518 819.5 518 c 128,-1,21
 773 518 773 518 736 578 c 1,22,-1
 719 602 l 1,23,-1
 556 600 l 1,24,-1
 549 600 l 1,25,26
 528 384 528 384 504 168 c 1,27,28
 535 136 535 136 566 104 c 1,29,-1
 574 76 l 1,30,-1
 570 50 l 1,31,32
 553 13 553 13 470 6.5 c 128,-1,33
 387 0 387 0 332 0 c 1,34,-1
 99 6 l 1,35,36
 80 12 80 12 67 25 c 1,37,-1
 55 58 l 1,38,-1
 55 60 l 2,39,40
 55 85 55 85 83.5 105 c 128,-1,41
 112 125 112 125 173 150.5 c 128,-1,42
 234 176 234 176 234 244 c 2,43,-1
 234 276 l 2,44,45
 234 302 234 302 249.5 373 c 128,-1,46
 265 444 265 444 265 518 c 1,47,-1
 246 965 l 1,48,-1
 257 1083 l 1,49,50
 257 1096 257 1096 249.5 1102 c 128,-1,51
 242 1108 242 1108 224 1108 c 2,52,-1
 155 1106 l 1,53,54
 63 1106 63 1106 57 1178 c 1,55,-1
 57 1192 l 1,56,-1
 74 1240 l 1,57,58
 93 1265 93 1265 166 1265 c 2,59,-1
 171 1265 l 1,60,-1
 175 1264 l 1,61,62
 238 1264 238 1264 269 1282 c 128,-1,63
 300 1300 300 1300 345.5 1300 c 128,-1,64
 391 1300 391 1300 426 1284 c 128,-1,65
 461 1268 461 1268 486.5 1268 c 128,-1,66
 512 1268 512 1268 636 1289 c 128,-1,67
 760 1310 760 1310 925 1310 c 128,-1,68
 1090 1310 1090 1310 1117.5 1314 c 128,-1,69
 1145 1318 1145 1318 1170.5 1340 c 128,-1,70
 1196 1362 1196 1362 1216 1362 c 2,71,-1
 1224 1362 l 2,72,73
 1261 1362 1261 1362 1283 1340.5 c 128,-1,74
 1305 1319 1305 1319 1307 1283 c 1,75,-1
 1307 1246 l 2,0,1
EndSplineSet
Validated: 1
EndChar

StartChar: G
Encoding: 71 71 38
Width: 1238
VWidth: 1894
Flags: W
HStem: -18 132<590 761.533> 522 166<704.226 879> 1358 0G<533.5 697 1057.5 1100>
VStem: 56 319<215.656 913.002>
LayerCount: 2
Fore
SplineSet
606 -18 m 2,0,-1
 599 -18 l 2,1,2
 394 -18 394 -18 307 23 c 128,-1,3
 220 64 220 64 165 120 c 0,4,5
 60 228 60 228 56 339 c 1,6,-1
 51 570 l 1,7,8
 51 804 51 804 91 894 c 128,-1,9
 131 984 131 984 149 1054.5 c 128,-1,10
 167 1125 167 1125 259 1218 c 0,11,12
 416 1378 416 1378 651 1378 c 0,13,14
 743 1378 743 1378 849.5 1355 c 128,-1,15
 956 1332 956 1332 978 1332 c 128,-1,16
 1000 1332 1000 1332 1019 1345 c 128,-1,17
 1038 1358 1038 1358 1077 1358 c 2,18,-1
 1079 1358 l 2,19,20
 1121 1358 1121 1358 1144 1336 c 0,21,22
 1165 1315 1165 1315 1168 1279 c 2,23,-1
 1171 1239 l 1,24,25
 1171 1209 1171 1209 1137 1140 c 128,-1,26
 1103 1071 1103 1071 1052 1054 c 1,27,28
 1009 1057 1009 1057 971 1111 c 128,-1,29
 933 1165 933 1165 901.5 1184.5 c 128,-1,30
 870 1204 870 1204 813 1218 c 1,31,-1
 709 1231 l 1,32,33
 670 1229 670 1229 644 1226 c 1,34,35
 486 1047 486 1047 472 1026 c 0,36,37
 375 884 375 884 375 558 c 0,38,39
 375 436 375 436 388 288 c 0,40,41
 392 242 392 242 462 158 c 1,42,-1
 590 114 l 1,43,44
 699 114 699 114 771 164 c 1,45,46
 822 346 822 346 879 522 c 1,47,-1
 826 522 l 2,48,49
 701 522 701 522 687 608 c 1,50,-1
 685 611 l 1,51,-1
 685 622 l 2,52,53
 685 688 685 688 811 688 c 1,54,-1
 908 682 l 1,55,56
 969 684 969 684 1021 700 c 128,-1,57
 1073 716 1073 716 1094.5 716 c 128,-1,58
 1116 716 1116 716 1142 684 c 1,59,60
 1179 652 1179 652 1180 619 c 128,-1,61
 1181 586 1181 586 1181 544.5 c 128,-1,62
 1181 503 1181 503 1165 346 c 128,-1,63
 1149 189 1149 189 1145.5 147 c 128,-1,64
 1142 105 1142 105 1117.5 83.5 c 128,-1,65
 1093 62 1093 62 1067 62 c 1,66,-1
 984 70 l 1,67,68
 965 70 965 70 929 50 c 0,69,70
 807 -18 807 -18 606 -18 c 2,0,-1
EndSplineSet
Validated: 1
EndChar

StartChar: H
Encoding: 72 72 39
Width: 1365
VWidth: 1894
Flags: W
HStem: -26 160<841.789 899.593> 6 175.5<67.9365 171.198> 728 160<655.765 922> 1336 10G<324.5 366 495 527.5 1124.5 1194.5>
VStem: 900 291<229 718.937> 922 317<309.059 728 888 1071.5>
LayerCount: 2
Fore
SplineSet
474 1354 m 2,0,1
 488 1356 488 1356 502 1356 c 0,2,3
 553 1356 553 1356 591 1332 c 0,4,5
 627 1310 627 1310 628 1282 c 2,6,-1
 628 1276 l 1,7,-1
 625 1264 l 1,8,-1
 625 1254 l 1,9,10
 599 1246 599 1246 586 1240 c 1,11,12
 569 1032 569 1032 548 824 c 1,13,-1
 581 830 l 2,14,15
 652 841 652 841 660 851.5 c 128,-1,16
 668 862 668 862 754.5 875 c 128,-1,17
 841 888 841 888 923 888 c 2,18,-1
 929 888 l 1,19,20
 938 1048 938 1048 947 1208 c 1,21,-1
 906 1210 l 1,22,-1
 889 1254 l 1,23,-1
 900 1302 l 1,24,25
 926 1358 926 1358 1087 1364 c 0,26,27
 1113 1365 1113 1365 1136 1365 c 0,28,29
 1253 1365 1253 1365 1279 1339 c 0,30,31
 1309 1308 1309 1308 1315 1281 c 1,32,-1
 1317 1278 l 1,33,-1
 1317 1268 l 2,34,35
 1317 1234 1317 1234 1290 1214 c 0,36,37
 1239 1176 1239 1176 1239 962 c 2,38,-1
 1239 908 l 2,39,40
 1239 806 1239 806 1222 664.5 c 128,-1,41
 1205 523 1205 523 1198 412 c 1,42,-1
 1191 229 l 1,43,-1
 1229 180 l 1,44,45
 1274 133 1274 133 1274 109 c 0,46,47
 1274 109 1274 109 1274 108 c 2,48,-1
 1274 106 l 2,49,50
 1274 54 1274 54 1184.5 20.5 c 128,-1,51
 1095 -13 1095 -13 1039 -19.5 c 128,-1,52
 983 -26 983 -26 924.5 -26 c 128,-1,53
 866 -26 866 -26 841 -8 c 128,-1,54
 816 10 816 10 816 51 c 128,-1,55
 816 92 816 92 872 134 c 1,56,57
 887 138 887 138 900 144 c 1,58,59
 907 438 907 438 922 728 c 1,60,-1
 905 728 l 2,61,62
 821 728 821 728 753.5 713 c 128,-1,63
 686 698 686 698 634 674 c 128,-1,64
 582 650 582 650 531 634 c 1,65,66
 507 394 507 394 478 156 c 1,67,-1
 528 130 l 2,68,69
 543 122 543 122 543 112 c 128,-1,70
 543 102 543 102 544 94 c 0,71,-1
 544 93 l 0,72,73
 544 85 544 85 530 72 c 1,74,75
 482 6 482 6 231 6 c 2,76,-1
 213 6 l 2,77,78
 55 6 55 6 53 96 c 1,79,-1
 53 100 l 2,80,81
 53 135 53 135 78 156 c 128,-1,82
 103 177 103 177 132.5 181.5 c 128,-1,83
 162 186 162 186 171.5 207 c 128,-1,84
 181 228 181 228 198.5 379 c 128,-1,85
 216 530 216 530 216 637 c 1,86,-1
 205 1288 l 1,87,-1
 250 1316 l 1,88,89
 304 1344 304 1344 345 1346 c 1,90,-1
 363 1346 l 1,91,-1
 366 1342 l 1,92,-1
 474 1354 l 2,0,1
EndSplineSet
Validated: 1
EndChar

StartChar: I
Encoding: 73 73 40
Width: 598
VWidth: 1894
Flags: W
HStem: -6 21G<157.75 355.25> 1320 20G<349.25 401.75>
VStem: 145 318<165.482 1099.19> 180 283<308.873 1139.97>
LayerCount: 2
Fore
SplineSet
542 82 m 0,0,1
 542 58 542 58 498 26 c 128,-1,2
 454 -6 454 -6 256.5 -6 c 128,-1,3
 59 -6 59 -6 59 70 c 2,4,-1
 59 72 l 2,5,6
 59 120 59 120 85.5 140 c 128,-1,7
 112 160 112 160 135 164 c 1,8,9
 144 210 144 210 145 440 c 128,-1,10
 146 670 146 670 154 689 c 128,-1,11
 162 708 162 708 171 812 c 0,12,13
 180 920 180 920 180 932 c 2,14,-1
 176 1072 l 2,15,16
 176 1085 176 1085 156 1126 c 0,17,18
 150 1139 150 1139 146 1140 c 0,19,20
 68 1152 68 1152 66 1214 c 1,21,-1
 66 1221 l 1,22,23
 68 1275 68 1275 87 1288.5 c 128,-1,24
 106 1302 106 1302 214.5 1321 c 128,-1,25
 323 1340 323 1340 375.5 1340 c 128,-1,26
 428 1340 428 1340 463 1316 c 1,27,-1
 512 1274 l 1,28,-1
 463 1199 l 1,29,30
 468 852 468 852 468 680 c 1,31,-1
 463 170 l 1,32,33
 542 139 542 139 542 82 c 0,0,1
EndSplineSet
Validated: 1
EndChar

StartChar: J
Encoding: 74 74 41
Width: 1148
VWidth: 1894
Flags: W
HStem: -40 145<328.5 530.126> 528 197<598.496 752.215> 1184 172<361.837 801>
VStem: 774 312<726.07 1178.48> 801 285<741.57 1181.92>
LayerCount: 2
Fore
SplineSet
744 1184 m 2,0,1
 635 1184 635 1184 499.5 1166 c 128,-1,2
 364 1148 364 1148 353 1138 c 128,-1,3
 342 1128 342 1128 329.5 1086 c 128,-1,4
 317 1044 317 1044 300 1023 c 128,-1,5
 283 1002 283 1002 237 1002 c 0,6,7
 139 1002 139 1002 139 1140 c 0,8,9
 139 1172 139 1172 154.5 1208 c 128,-1,10
 170 1244 170 1244 253 1279 c 128,-1,11
 336 1314 336 1314 457.5 1325 c 128,-1,12
 579 1336 579 1336 670.5 1346 c 128,-1,13
 762 1356 762 1356 807 1356 c 128,-1,14
 852 1356 852 1356 933.5 1342 c 128,-1,15
 1015 1328 1015 1328 1052.5 1294 c 128,-1,16
 1090 1260 1090 1260 1090 1096 c 1,17,-1
 1079 882 l 1,18,-1
 1086 742 l 1,19,20
 1086 680 1086 680 1052.5 526 c 128,-1,21
 1019 372 1019 372 987.5 294 c 128,-1,22
 956 216 956 216 892.5 131.5 c 128,-1,23
 829 47 829 47 776.5 3.5 c 128,-1,24
 724 -40 724 -40 559 -40 c 2,25,-1
 548 -40 l 2,26,27
 295 -40 295 -40 176 42 c 128,-1,28
 57 124 57 124 57 217 c 0,29,30
 57 265 57 265 60 289.5 c 128,-1,31
 63 314 63 314 80 329 c 128,-1,32
 97 344 97 344 144 344 c 128,-1,33
 191 344 191 344 217 318 c 128,-1,34
 243 292 243 292 263.5 235 c 128,-1,35
 284 178 284 178 295 168 c 128,-1,36
 306 158 306 158 371 132 c 128,-1,37
 436 106 436 106 464 105 c 0,38,39
 471 105 471 105 480 105 c 0,40,41
 503 105 503 105 531 107 c 1,42,43
 624 175 624 175 675 256.5 c 128,-1,44
 726 338 726 338 753 539 c 1,45,46
 728 528 728 528 688 528 c 0,47,48
 604 528 604 528 575 620 c 1,49,50
 573 630 573 630 574 639 c 1,51,52
 574 704 574 704 722 725 c 0,53,54
 758 730 758 730 774 733 c 1,55,56
 799 1008 799 1008 801 1184 c 1,57,-1
 744 1184 l 2,0,1
EndSplineSet
Validated: 1
EndChar

StartChar: K
Encoding: 75 75 42
Width: 1381
VWidth: 1894
Flags: W
HStem: -6 21G<168.5 233> 1326 20G<170 387 1009.5 1222>
VStem: 200 310<173.886 515.312 696 1124.68> 918 393<1209.51 1336.6>
LayerCount: 2
Fore
SplineSet
55 1217 m 1,0,1
 91 1346 91 1346 249 1346 c 0,2,3
 525 1346 525 1346 556 1310 c 0,4,5
 572 1292 572 1292 573 1260 c 0,6,7
 573 1259 573 1259 573 1258 c 0,8,9
 574 1228 574 1228 548.5 1219 c 128,-1,10
 523 1210 523 1210 505 1202 c 1,11,12
 510 938 510 938 510 847 c 0,13,14
 510 824 510 824 510 812 c 2,15,-1
 506 696 l 1,16,17
 556 737 556 737 698.5 872.5 c 128,-1,18
 841 1008 841 1008 886 1088.5 c 128,-1,19
 931 1169 931 1169 935 1193 c 1,20,-1
 918 1270 l 1,21,-1
 918 1272 l 1,22,23
 920 1360 920 1360 1099 1360 c 1,24,-1
 1222 1356 l 1,25,26
 1264 1352 1264 1352 1287.5 1333 c 128,-1,27
 1311 1314 1311 1314 1311 1290 c 0,28,29
 1311 1223 1311 1223 1245 1199 c 1,30,-1
 1146 1142 l 1,31,-1
 867 829 l 1,32,33
 843 801 843 801 820 771 c 0,34,35
 779 721 779 721 744 683 c 1,36,37
 778 657 778 657 874 571.5 c 128,-1,38
 970 486 970 486 1050.5 404 c 128,-1,39
 1131 322 1131 322 1176.5 267 c 128,-1,40
 1222 212 1222 212 1262 179 c 0,41,42
 1329 121 1329 121 1329 96 c 0,43,44
 1329 0 1329 0 1188 0 c 0,45,46
 960 0 960 0 910.5 35 c 128,-1,47
 861 70 861 70 861 100 c 2,48,-1
 861 110 l 1,49,-1
 944 144 l 1,50,51
 778 296 778 296 646 432 c 1,52,-1
 546 516 l 1,53,54
 528 494 528 494 509 472 c 1,55,56
 508 314 508 314 506 156 c 1,57,-1
 525 148 l 1,58,59
 578 130 578 130 590 94 c 1,60,-1
 582 62 l 1,61,62
 571 47 571 47 564.5 42.5 c 128,-1,63
 558 38 558 38 553 28 c 0,64,65
 546 12 546 12 486 8 c 128,-1,66
 426 4 426 4 338 -1 c 128,-1,67
 250 -6 250 -6 216 -6 c 0,68,69
 121 -6 121 -6 97.5 24.5 c 128,-1,70
 74 55 74 55 74 76.5 c 128,-1,71
 74 98 74 98 96 119 c 128,-1,72
 118 140 118 140 146.5 151 c 128,-1,73
 175 162 175 162 178 173.5 c 128,-1,74
 181 185 181 185 190.5 307.5 c 128,-1,75
 200 430 200 430 200 726 c 128,-1,76
 200 1022 200 1022 192 1068.5 c 128,-1,77
 184 1115 184 1115 179 1125 c 1,78,79
 173 1129 173 1129 142.5 1135 c 128,-1,80
 112 1141 112 1141 83.5 1167.5 c 128,-1,81
 55 1194 55 1194 55 1212 c 2,82,-1
 55 1217 l 1,0,1
EndSplineSet
Validated: 1
EndChar

StartChar: L
Encoding: 76 76 43
Width: 1271
VWidth: 1894
Flags: W
HStem: -30 170<69.9951 240.493> -12 156<185.629 241 557 844.385> 36 167<737.341 985.233> 1329 20G<196.5 470>
VStem: 220 309<539.471 1166> 241 316<144 649.269>
LayerCount: 2
Fore
SplineSet
246 1349 m 2,0,-1
 470 1348 l 1,1,2
 515 1347 515 1347 567 1324.5 c 128,-1,3
 619 1302 619 1302 619 1281 c 128,-1,4
 619 1260 619 1260 529 1182 c 1,5,6
 554 642 554 642 557 144 c 1,7,-1
 678 154 l 1,8,9
 745 154 745 154 833.5 178.5 c 128,-1,10
 922 203 922 203 965 203 c 128,-1,11
 1008 203 1008 203 1014 205 c 128,-1,12
 1020 207 1020 207 1025 221.5 c 128,-1,13
 1030 236 1030 236 1061.5 269.5 c 128,-1,14
 1093 303 1093 303 1125 303 c 128,-1,15
 1157 303 1157 303 1185 266 c 128,-1,16
 1213 229 1213 229 1213 178.5 c 128,-1,17
 1213 128 1213 128 1154 64 c 1,18,-1
 1078 -13 l 1,19,-1
 1043 -20 l 1,20,-1
 1020 -20 l 1,21,22
 982 -14 982 -14 961 11 c 128,-1,23
 940 36 940 36 888.5 36 c 128,-1,24
 837 36 837 36 775 17 c 128,-1,25
 713 -2 713 -2 494.5 -12 c 128,-1,26
 276 -22 276 -22 240.5 -26 c 128,-1,27
 205 -30 205 -30 185 -30 c 0,28,29
 60 -30 60 -30 59 54 c 1,30,-1
 59 56 l 2,31,32
 59 140 59 140 198 140 c 2,33,-1
 241 140 l 1,34,-1
 220 886 l 1,35,-1
 216 1166 l 1,36,-1
 179 1175 l 2,37,38
 134 1186 134 1186 97 1221 c 1,39,-1
 81 1252 l 1,40,-1
 81 1258 l 1,41,-1
 99 1307 l 1,42,-1
 105 1307 l 1,43,44
 152 1349 152 1349 241 1349 c 0,45,46
 244 1349 244 1349 246 1349 c 2,0,-1
EndSplineSet
Validated: 1
EndChar

StartChar: M
Encoding: 77 77 44
Width: 1765
VWidth: 1894
Flags: W
HStem: -34 121<1186.46 1272.47> 4 1356<1367.42 1669.5> 598 233<911.114 1073.26> 1324 20G<29.806 107>
VStem: 211 313<117.458 814.483> 1236 324<180.786 842.42>
LayerCount: 2
Fore
SplineSet
918 836 m 1,0,1
 946 831 946 831 970 831 c 0,2,3
 1043 831 1043 831 1078 882 c 1,4,5
 1138 1002 1138 1002 1155 1024 c 0,6,7
 1216 1108 1216 1108 1238 1164 c 0,8,9
 1261 1224 1261 1224 1374 1328 c 0,10,11
 1384 1337 1384 1337 1437.5 1340.5 c 128,-1,12
 1491 1344 1491 1344 1539 1352 c 128,-1,13
 1587 1360 1587 1360 1642 1360 c 128,-1,14
 1697 1360 1697 1360 1697 1329.5 c 128,-1,15
 1697 1299 1697 1299 1659 1258 c 128,-1,16
 1621 1217 1621 1217 1608 1180 c 128,-1,17
 1595 1143 1595 1143 1577.5 1059 c 128,-1,18
 1560 975 1560 975 1560 705.5 c 128,-1,19
 1560 436 1560 436 1569 404 c 1,20,-1
 1578 343 l 1,21,-1
 1567 258 l 1,22,23
 1568 193 1568 193 1607 177 c 0,24,25
 1712 133 1712 133 1712 90 c 0,26,27
 1712 74 1712 74 1701 38 c 128,-1,28
 1690 2 1690 2 1656.5 -11 c 128,-1,29
 1623 -24 1623 -24 1600 -24 c 128,-1,30
 1577 -24 1577 -24 1553.5 -10 c 128,-1,31
 1530 4 1530 4 1478 4 c 128,-1,32
 1426 4 1426 4 1383.5 -11 c 128,-1,33
 1341 -26 1341 -26 1324 -26 c 1,34,-1
 1219 -34 l 1,35,36
 1181 -4 1181 -4 1180 14 c 0,37,-1
 1181 15 l 0,38,39
 1183 33 1183 33 1190 53.5 c 128,-1,40
 1197 74 1197 74 1226.5 87 c 128,-1,41
 1256 100 1256 100 1273 112 c 1,42,43
 1246 479 1246 479 1236 843 c 1,44,45
 1215 817 1215 817 1169 762 c 128,-1,46
 1123 707 1123 707 1100 671.5 c 128,-1,47
 1077 636 1077 636 1048 617 c 128,-1,48
 1019 598 1019 598 969 598 c 0,49,50
 914 598 914 598 903 606 c 0,51,52
 711 749 711 749 521 892 c 1,53,54
 524 758 524 758 524 616 c 0,55,56
 524 581 524 581 524 545 c 0,57,58
 524 523 524 523 524 500 c 0,59,60
 524 296 524 296 519 74 c 1,61,62
 529 66 529 66 544.5 50 c 128,-1,63
 560 34 560 34 560 2 c 2,64,-1
 560 -10 l 1,65,-1
 477 -38 l 1,66,-1
 295 -34 l 1,67,-1
 293 -32 l 1,68,-1
 187 -32 l 2,69,70
 129 -32 129 -32 104 -9 c 128,-1,71
 79 14 79 14 79 34 c 2,72,-1
 79 38 l 1,73,-1
 99 74 l 1,74,75
 130 105 130 105 175 120.5 c 128,-1,76
 220 136 220 136 222 155 c 1,77,-1
 211 452 l 1,78,-1
 213 693 l 1,79,-1
 210 766 l 1,80,-1
 196 984 l 1,81,-1
 179 1090 l 1,82,83
 179 1104 179 1104 126.5 1140 c 128,-1,84
 74 1176 74 1176 50.5 1205 c 128,-1,85
 27 1234 27 1234 27 1270 c 2,86,-1
 27 1277 l 1,87,-1
 31 1344 l 1,88,-1
 107 1334 l 1,89,90
 372 1324 372 1324 918 836 c 1,0,1
EndSplineSet
Validated: 1
EndChar

StartChar: N
Encoding: 78 78 45
Width: 1427
VWidth: 1894
Flags: W
HStem: -33 169<81.8643 184.357> -20 124<455 495> 1338 20G<1162 1313.5>
VStem: 1036 379<1162.13 1310.27> 1100 155<484.534 902.25>
LayerCount: 2
Fore
SplineSet
407 1303 m 1,0,1
 435 1276 435 1276 661.5 976 c 128,-1,2
 888 676 888 676 962 573 c 128,-1,3
 1036 470 1036 470 1036.5 457.5 c 128,-1,4
 1037 445 1037 445 1053 420 c 1,5,6
 1085 589 1085 589 1100 976 c 1,7,-1
 1107 1144 l 1,8,-1
 1083 1160 l 1,9,10
 1036 1194 1036 1194 1036 1233 c 128,-1,11
 1036 1272 1036 1272 1069.5 1301.5 c 128,-1,12
 1103 1331 1103 1331 1162 1342 c 1,13,-1
 1290 1358 l 1,14,15
 1337 1358 1337 1358 1376 1327.5 c 128,-1,16
 1415 1297 1415 1297 1415 1269 c 2,17,-1
 1415 1220 l 2,18,19
 1415 1178 1415 1178 1376 1163 c 128,-1,20
 1337 1148 1337 1148 1329 1135 c 0,21,22
 1264 1030 1264 1030 1255 414 c 1,23,-1
 1244 20 l 1,24,-1
 1198 -18 l 1,25,26
 1157 -56 1157 -56 1110 -56 c 2,27,-1
 1108 -56 l 2,28,29
 1058 -56 1058 -56 1035 -30 c 128,-1,30
 1012 -4 1012 -4 975.5 34.5 c 128,-1,31
 939 73 939 73 904 148 c 1,32,33
 705 414 705 414 506 680 c 1,34,35
 455 333 455 333 455 104 c 1,36,-1
 495 110 l 1,37,-1
 495 100 l 1,38,39
 533 68 533 68 533 32 c 1,40,-1
 522 3 l 1,41,42
 510 -13 510 -13 506 -18 c 1,43,44
 482 -25 482 -25 480 -25 c 2,45,-1
 378 -20 l 1,46,47
 313 -20 313 -20 237.5 -26.5 c 128,-1,48
 162 -33 162 -33 154 -33 c 0,49,50
 96 -33 96 -33 72 21 c 1,51,52
 66 33 66 33 66 61 c 128,-1,53
 66 89 66 89 111 109.5 c 128,-1,54
 156 130 156 130 179 136 c 1,55,56
 191 194 191 194 198 480 c 1,57,-1
 206 941 l 1,58,59
 205 1079 205 1079 197.5 1099.5 c 128,-1,60
 190 1120 190 1120 134.5 1144 c 128,-1,61
 79 1168 79 1168 63.5 1184 c 128,-1,62
 48 1200 48 1200 46 1239 c 1,63,-1
 36 1310 l 1,64,-1
 407 1303 l 1,0,1
EndSplineSet
Validated: 1
EndChar

StartChar: O
Encoding: 79 79 46
Width: 1356
VWidth: 1894
Flags: W
HStem: 1252 140<561.209 778.825>
VStem: 51 312<436 956.989> 1008 292<425.762 1008.58>
LayerCount: 2
Fore
SplineSet
1008 774 m 0,0,1
 1008 902 1008 902 997 1056 c 1,2,3
 984 1090 984 1090 946 1134 c 128,-1,4
 908 1178 908 1178 846 1208.5 c 128,-1,5
 784 1239 784 1239 779 1245.5 c 128,-1,6
 774 1252 774 1252 692 1252 c 0,7,8
 658 1252 658 1252 553 1204 c 1,9,10
 492 1140 492 1140 450 1063 c 0,11,12
 363 903 363 903 363 548 c 0,13,14
 363 421 363 421 374 268 c 1,15,16
 420 200 420 200 491.5 166.5 c 128,-1,17
 563 133 563 133 628 117.5 c 128,-1,18
 693 102 693 102 727 102 c 1,19,-1
 778 109 l 1,20,21
 814 131 814 131 850 152 c 1,22,23
 886 195 886 195 921 259 c 0,24,25
 1008 419 1008 419 1008 774 c 0,0,1
423 19 m 1,26,27
 370 36 370 36 295 76 c 128,-1,28
 220 116 220 116 175.5 170 c 128,-1,29
 131 224 131 224 99.5 305.5 c 128,-1,30
 68 387 68 387 62 436 c 1,31,-1
 51 571 l 1,32,33
 51 632 51 632 64 766 c 128,-1,34
 77 900 77 900 94.5 957 c 128,-1,35
 112 1014 112 1014 152.5 1114 c 128,-1,36
 193 1214 193 1214 213 1243 c 128,-1,37
 233 1272 233 1272 300 1314 c 0,38,39
 425 1392 425 1392 629 1400 c 1,40,-1
 762 1392 l 1,41,-1
 763 1392 l 1,42,43
 937 1366 937 1366 1024 1309 c 128,-1,44
 1111 1252 1111 1252 1162 1192 c 128,-1,45
 1213 1132 1213 1132 1252 1019 c 128,-1,46
 1291 906 1291 906 1295.5 873 c 128,-1,47
 1300 840 1300 840 1300 793 c 128,-1,48
 1300 746 1300 746 1291.5 602 c 128,-1,49
 1283 458 1283 458 1194 269 c 128,-1,50
 1105 80 1105 80 950 16 c 1,51,-1
 922 3 l 1,52,53
 891 -11 891 -11 841 -27 c 1,54,-1
 753 -42 l 1,55,-1
 579 -20 l 1,56,-1
 423 19 l 1,26,27
EndSplineSet
Validated: 1
EndChar

StartChar: P
Encoding: 80 80 47
Width: 1192
VWidth: 1894
Flags: W
HStem: -12 1340<167.32 434.907> 322 130<460.666 691.723> 1197 149<495 786.922>
VStem: 167 328<535.8 1127.7> 847 299<679.316 1114.34>
LayerCount: 2
Fore
SplineSet
167 890.5 m 128,-1,1
 167 1057 167 1057 151 1130 c 1,2,-1
 121 1127 l 1,3,-1
 53 1142 l 1,4,5
 15 1158 15 1158 14 1196 c 0,6,7
 14 1197 14 1197 14 1198 c 0,8,9
 14 1270 14 1270 144 1308 c 0,10,11
 213 1328 213 1328 268.5 1328 c 128,-1,12
 324 1328 324 1328 359.5 1337 c 128,-1,13
 395 1346 395 1346 461 1346 c 128,-1,14
 527 1346 527 1346 689.5 1325 c 128,-1,15
 852 1304 852 1304 950.5 1256.5 c 128,-1,16
 1049 1209 1049 1209 1094.5 1127.5 c 128,-1,17
 1140 1046 1140 1046 1143 1008 c 128,-1,18
 1146 970 1146 970 1146 934.5 c 128,-1,19
 1146 899 1146 899 1119.5 754.5 c 128,-1,20
 1093 610 1093 610 1020.5 514 c 128,-1,21
 948 418 948 418 925 399 c 128,-1,22
 902 380 902 380 804.5 352 c 128,-1,23
 707 324 707 324 661 322 c 0,24,25
 656 322 656 322 650 322 c 0,26,27
 609 322 609 322 557 334 c 0,28,29
 500 348 500 348 480 348 c 2,30,-1
 451 348 l 1,31,32
 444 246 444 246 436 143 c 1,33,34
 443 139 443 139 465 129 c 128,-1,35
 487 119 487 119 499 98 c 128,-1,36
 511 77 511 77 511 58 c 128,-1,37
 511 39 511 39 482.5 25.5 c 128,-1,38
 454 12 454 12 330.5 0 c 128,-1,39
 207 -12 207 -12 143.5 -12 c 128,-1,40
 80 -12 80 -12 55 25 c 1,41,-1
 53 27 l 1,42,-1
 46 50 l 1,43,-1
 46 52 l 2,44,45
 46 84 46 84 88 118 c 1,46,-1
 124 146 l 1,47,-1
 150 524 l 1,48,0
 167 724 167 724 167 890.5 c 128,-1,1
627 452 m 0,49,50
 652 454 652 454 693 473 c 1,51,52
 847 690 847 690 847 900 c 0,53,54
 847 1029 847 1029 789 1158 c 1,55,56
 722 1179 722 1179 721 1180 c 0,57,58
 719 1191 719 1191 570 1196 c 1,59,-1
 495 1197 l 1,60,61
 482 837 482 837 460 480 c 1,62,63
 481 474 481 474 541 462 c 0,64,65
 589 452 589 452 616 452 c 0,66,67
 619 452 619 452 620 452 c 0,68,69
 623 452 623 452 627 452 c 0,49,50
EndSplineSet
Validated: 1
EndChar

StartChar: Q
Encoding: 81 81 48
Width: 1309
VWidth: 1894
Flags: W
HStem: -22 162<406.811 586.039> -18 288<600.93 848.406> 1240 144<616.25 769.83>
VStem: 46 309<279.038 802.235> 953 306<377.973 686 690 935.145>
LayerCount: 2
Fore
SplineSet
1145 -46 m 2,0,1
 1222 -46 1222 -46 1222 -101 c 0,2,3
 1222 -101 1222 -101 1222 -102 c 2,4,-1
 1222 -103 l 1,5,-1
 1208 -163 l 1,6,7
 1189 -206 1189 -206 1135.5 -247 c 128,-1,8
 1082 -288 1082 -288 1025.5 -288 c 128,-1,9
 969 -288 969 -288 944.5 -256 c 128,-1,10
 920 -224 920 -224 889 -130 c 128,-1,11
 858 -36 858 -36 850 -23 c 1,12,13
 841 -18 841 -18 804 -18 c 1,14,-1
 676 -22 l 1,15,16
 467 -22 467 -22 352 28.5 c 128,-1,17
 237 79 237 79 196 118.5 c 128,-1,18
 155 158 155 158 107 246 c 128,-1,19
 59 334 59 334 52.5 416 c 128,-1,20
 46 498 46 498 46 561 c 128,-1,21
 46 624 46 624 71.5 728 c 128,-1,22
 97 832 97 832 126.5 947 c 128,-1,23
 156 1062 156 1062 216 1195 c 128,-1,24
 276 1328 276 1328 328 1356 c 128,-1,25
 380 1384 380 1384 496 1384 c 128,-1,26
 612 1384 612 1384 657 1366 c 128,-1,27
 702 1348 702 1348 764 1340 c 128,-1,28
 826 1332 826 1332 896 1285 c 128,-1,29
 966 1238 966 1238 989 1229 c 128,-1,30
 1012 1220 1012 1220 1025 1203 c 1,31,-1
 1082 1140 l 1,32,33
 1241 961 1241 961 1259 771 c 1,34,35
 1257 723 1257 723 1247 567.5 c 128,-1,36
 1237 412 1237 412 1210 349.5 c 128,-1,37
 1183 287 1183 287 1126 195 c 128,-1,38
 1069 103 1069 103 1060 94.5 c 128,-1,39
 1051 86 1051 86 1051 62 c 1,40,-1
 1060 -46 l 1,41,-1
 1145 -46 l 2,0,1
586 166 m 2,42,-1
 586 182 l 2,43,44
 586 270 586 270 744 270 c 0,45,46
 791 270 791 270 810.5 252 c 128,-1,47
 830 234 830 234 849 226 c 1,48,49
 875 281 875 281 915 395.5 c 128,-1,50
 955 510 955 510 955 686 c 1,51,-1
 953 690 l 1,52,-1
 953 692 l 2,53,54
 953 870 953 870 894 1052 c 1,55,56
 837 1134 837 1134 809 1162 c 0,57,58
 730 1240 730 1240 699 1240 c 0,59,60
 698 1240 698 1240 696 1240 c 0,61,62
 655 1236 655 1236 615 1230 c 1,63,64
 524 1161 524 1161 458 1051 c 0,65,66
 355 878 355 878 355 468 c 0,67,68
 355 275 355 275 370 232 c 1,69,70
 394 180 394 180 445 164 c 0,71,72
 520 140 520 140 543 140 c 0,73,74
 544 140 544 140 545 140 c 2,75,-1
 572 141 l 1,76,77
 586 147 586 147 586 166 c 2,42,-1
EndSplineSet
Validated: 1
EndChar

StartChar: R
Encoding: 82 82 49
Width: 1218
VWidth: 1894
Flags: W
HStem: -55.5 160<1076.51 1146.16> 292 95<492 563.015> 1042 209<57.6914 164.81> 1178 162<517 747.702>
VStem: 187 324<507.747 1066.67> 196 292<140 292 387 1017.55> 818 346<714.852 1119.24>
LayerCount: 2
Fore
SplineSet
592 1178 m 0,0,1
 544 1178 544 1178 521 1166 c 1,2,-1
 517 1166 l 1,3,-1
 511 1164 l 1,4,5
 507 773 507 773 492 387 c 1,6,-1
 507 387 l 2,7,8
 511 387 511 387 574 420 c 2,9,-1
 659 458 l 1,10,11
 817 688 817 688 818 912 c 2,12,-1
 818 914 l 2,13,14
 818 1041 818 1041 751 1167 c 1,15,16
 645 1178 645 1178 597 1178 c 0,17,18
 594 1178 594 1178 592 1178 c 0,0,1
233 -32 m 2,19,-1
 205 -32 l 2,20,21
 163 -32 163 -32 135 -13.5 c 128,-1,22
 107 5 107 5 105 41 c 1,23,-1
 105 46 l 1,24,-1
 109 66 l 1,25,26
 113 91 113 91 145 114.5 c 128,-1,27
 177 138 177 138 186.5 211 c 128,-1,28
 196 284 196 284 196 393 c 1,29,-1
 187 985 l 1,30,31
 182 1057 182 1057 169 1067 c 1,32,-1
 165 1067 l 1,33,34
 159 1064 159 1064 144 1053 c 128,-1,35
 129 1042 129 1042 109 1042 c 128,-1,36
 89 1042 89 1042 58 1069 c 128,-1,37
 27 1096 27 1096 27 1131 c 0,38,39
 27 1209 27 1209 124 1251 c 0,40,41
 170 1271 170 1271 284 1300 c 1,42,-1
 443 1336 l 2,43,44
 461 1340 461 1340 580 1340 c 0,45,46
 696 1340 696 1340 829.5 1321 c 128,-1,47
 963 1302 963 1302 1009.5 1276 c 128,-1,48
 1056 1250 1056 1250 1110 1165 c 128,-1,49
 1164 1080 1164 1080 1164 986.5 c 128,-1,50
 1164 893 1164 893 1128.5 749.5 c 128,-1,51
 1093 606 1093 606 1028 524 c 1,52,-1
 1027 523 l 2,53,54
 985 476 985 476 903 430 c 128,-1,55
 821 384 821 384 800 367 c 1,56,57
 811 351 811 351 850 310 c 128,-1,58
 889 269 889 269 919 251 c 128,-1,59
 949 233 949 233 1000 173 c 128,-1,60
 1051 113 1051 113 1093.5 104.5 c 128,-1,61
 1136 96 1136 96 1146.5 80.5 c 128,-1,62
 1157 65 1157 65 1157 20 c 128,-1,63
 1157 -25 1157 -25 1147.5 -39 c 128,-1,64
 1138 -53 1138 -53 1123 -55.5 c 128,-1,65
 1108 -58 1108 -58 1075.5 -58 c 128,-1,66
 1043 -58 1043 -58 999.5 -44 c 128,-1,67
 956 -30 956 -30 849.5 -30 c 128,-1,68
 743 -30 743 -30 743 34 c 2,69,-1
 743 37 l 1,70,-1
 744 45 l 1,71,-1
 744 46 l 1,72,-1
 721 132 l 1,73,-1
 721 136 l 2,74,75
 721 162 721 162 650 225.5 c 128,-1,76
 579 289 579 289 563.5 293.5 c 128,-1,77
 548 298 548 298 530 298 c 1,78,-1
 488 292 l 1,79,-1
 481 140 l 1,80,-1
 502 100 l 1,81,82
 526 77 526 77 526 67 c 2,83,-1
 526 55 l 1,84,-1
 503 -8 l 1,85,86
 501 -10 501 -10 499 -14 c 128,-1,87
 497 -18 497 -18 495.5 -20 c 128,-1,88
 494 -22 494 -22 491.5 -25 c 128,-1,89
 489 -28 489 -28 487.5 -30 c 128,-1,90
 486 -32 486 -32 480 -34 c 1,91,-1
 464 -36 l 1,92,93
 448 -27 448 -27 417 -6 c 1,94,-1
 412 -6 l 1,95,-1
 354 0 l 1,96,97
 323 0 323 0 295.5 -16 c 128,-1,98
 268 -32 268 -32 233 -32 c 2,19,-1
EndSplineSet
Validated: 1
EndChar

StartChar: S
Encoding: 83 83 50
Width: 1241
VWidth: 1894
Flags: W
HStem: 45 259<105.368 150 155 257.387> 986 372<851.258 1001.92> 1207 187<570.703 848.604>
VStem: 92 300<826.742 1086.66> 883 300<256.221 513.891>
LayerCount: 2
Fore
SplineSet
161 304 m 2,0,1
 196 304 196 304 266 254 c 128,-1,2
 336 204 336 204 452 167 c 128,-1,3
 568 130 568 130 628 124 c 1,4,5
 883 211 883 211 883 380 c 2,6,-1
 883 381 l 2,7,8
 883 453 883 453 840 541 c 1,9,10
 782 583 782 583 714 592 c 128,-1,11
 646 601 646 601 524 612 c 128,-1,12
 402 623 402 623 360 631 c 0,13,14
 253 651 253 651 153 790 c 1,15,-1
 103 883 l 1,16,17
 92 912 92 912 92 992 c 128,-1,18
 92 1072 92 1072 119 1128 c 128,-1,19
 146 1184 146 1184 211 1243.5 c 128,-1,20
 276 1303 276 1303 299 1314 c 1,21,-1
 354 1325 l 1,22,-1
 365 1323 l 1,23,-1
 371 1323 l 1,24,-1
 516 1375 l 1,25,26
 578 1394 578 1394 652.5 1394 c 128,-1,27
 727 1394 727 1394 816.5 1372 c 128,-1,28
 906 1350 906 1350 954 1350 c 1,29,-1
 1052 1358 l 1,30,-1
 1053 1358 l 2,31,32
 1154 1358 1154 1358 1154 1300 c 2,33,-1
 1154 1299 l 2,34,35
 1154 1241 1154 1241 1091 1147.5 c 128,-1,36
 1028 1054 1028 1054 991 1020 c 128,-1,37
 954 986 954 986 919 986 c 0,38,39
 846 986 846 986 845 1056 c 1,40,-1
 851 1150 l 1,41,-1
 850 1162 l 1,42,43
 815 1206 815 1206 706 1207 c 0,44,45
 690 1207 690 1207 676 1207 c 0,46,47
 592 1207 592 1207 570 1202 c 1,48,49
 392 1092 392 1092 392 963 c 2,50,-1
 392 962 l 2,51,52
 392 891 392 891 446 812 c 1,53,54
 522 792 522 792 674 779 c 128,-1,55
 826 766 826 766 892 743 c 1,56,57
 1037 695 1037 695 1129 532 c 1,58,59
 1175 448 1175 448 1179 408 c 128,-1,60
 1183 368 1183 368 1183 332 c 128,-1,61
 1183 296 1183 296 1155 225 c 128,-1,62
 1127 154 1127 154 1056.5 81.5 c 128,-1,63
 986 9 986 9 941.5 -5.5 c 128,-1,64
 897 -20 897 -20 752.5 -20 c 128,-1,65
 608 -20 608 -20 462.5 17.5 c 128,-1,66
 317 55 317 55 252 55 c 1,67,-1
 129 45 l 1,68,-1
 126 45 l 2,69,70
 87 45 87 45 64.5 65.5 c 128,-1,71
 42 86 42 86 42 122 c 2,72,-1
 42 125 l 2,73,74
 42 166 42 166 76 228 c 1,75,76
 93 244 93 244 111.5 268 c 128,-1,77
 130 292 130 292 147 302 c 1,78,-1
 150 302 l 1,79,-1
 155 304 l 1,80,-1
 161 304 l 2,0,1
EndSplineSet
Validated: 1
EndChar

StartChar: T
Encoding: 84 84 51
Width: 1421
VWidth: 1894
Flags: W
HStem: 5 145<879 950.978> 998 347<1223.27 1345.39> 1139 170<229.381 558> 1172 176<898.02 1132.34>
VStem: 545 353<684.726 1143.42> 553 326<169.224 445.386 599.07 803.596> 1198 202<1054.97 1191.97>
LayerCount: 2
Fore
SplineSet
974 51 m 2,0,1
 974 16 974 16 923 5 c 1,2,-1
 487 -4 l 1,3,4
 467 4 467 4 450 16 c 1,5,-1
 414 56 l 1,6,-1
 414 67 l 1,7,-1
 430 106 l 1,8,9
 435 111 435 111 445 119.5 c 128,-1,10
 455 128 455 128 459.5 132 c 128,-1,11
 464 136 464 136 473 141.5 c 128,-1,12
 482 147 482 147 503 154.5 c 128,-1,13
 524 162 524 162 531 169 c 128,-1,14
 538 176 538 176 545 205.5 c 128,-1,15
 552 235 552 235 553 263 c 1,16,-1
 535 492 l 1,17,-1
 545 1018 l 1,18,-1
 543 1077 l 1,19,-1
 558 1147 l 1,20,-1
 278 1139 l 1,21,22
 241 1131 241 1131 229 1117.5 c 128,-1,23
 217 1104 217 1104 206.5 1042 c 128,-1,24
 196 980 196 980 180 957 c 1,25,26
 153 932 153 932 124 932 c 2,27,-1
 118 932 l 1,28,29
 81 936 81 936 53 972 c 128,-1,30
 25 1008 25 1008 25 1120 c 128,-1,31
 25 1232 25 1232 38 1264 c 1,32,-1
 38 1266 l 1,33,-1
 68 1309 l 1,34,-1
 326 1309 l 2,35,36
 503 1309 503 1309 671 1319 c 128,-1,37
 839 1329 839 1329 858 1337.5 c 128,-1,38
 877 1346 877 1346 901 1348 c 1,39,-1
 974 1350 l 1,40,-1
 1326 1345 l 1,41,42
 1362 1342 1362 1342 1381 1326.5 c 128,-1,43
 1400 1311 1400 1311 1400 1269 c 0,44,45
 1400 1068 1400 1068 1314 1012 c 0,46,47
 1293 998 1293 998 1270 998 c 128,-1,48
 1247 998 1247 998 1222.5 1019.5 c 128,-1,49
 1198 1041 1198 1041 1198 1084 c 1,50,-1
 1195 1184 l 1,51,52
 1193 1191 1193 1191 1187 1192 c 1,53,-1
 994 1174 l 1,54,-1
 898 1172 l 1,55,56
 898 658 898 658 879 152 c 1,57,-1
 889 150 l 1,58,59
 934 130 934 130 955 101 c 1,60,-1
 974 53 l 1,61,-1
 974 51 l 2,0,1
EndSplineSet
Validated: 1
EndChar

StartChar: U
Encoding: 85 85 52
Width: 1367
VWidth: 1894
Flags: W
HStem: -24 166<524.324 783.75> 1328 20G<244 429 1180.75 1202.25>
VStem: 132 336<501.938 1118.15> 966 299<760.559 1158>
LayerCount: 2
Fore
SplineSet
424 280 m 1,0,1
 532 142 532 142 676 142 c 0,2,3
 782 142 782 142 882 308 c 1,4,5
 914 735 914 735 966 1158 c 1,6,-1
 959 1157 l 1,7,-1
 957 1157 l 2,8,9
 854 1157 854 1157 849 1231 c 1,10,-1
 849 1238 l 2,11,12
 849 1307 849 1307 944.5 1317.5 c 128,-1,13
 1040 1328 1040 1328 1105 1342 c 128,-1,14
 1170 1356 1170 1356 1191.5 1356 c 128,-1,15
 1213 1356 1213 1356 1260.5 1334 c 128,-1,16
 1308 1312 1308 1312 1324 1295 c 1,17,-1
 1341 1245 l 1,18,-1
 1335 1197 l 1,19,20
 1324 1173 1324 1173 1286 1166 c 0,21,22
 1265 1162 1265 1162 1265 1139 c 2,23,-1
 1265 1138 l 2,24,25
 1265 1119 1265 1119 1268 1094 c 0,26,27
 1270 1074 1270 1074 1269 1050 c 0,28,29
 1268 1032 1268 1032 1268 1010 c 0,30,31
 1266 960 1266 960 1230 724 c 0,32,33
 1175 369 1175 369 1109 237 c 0,34,35
 1088 196 1088 196 1018.5 123 c 128,-1,36
 949 50 949 50 881 13 c 128,-1,37
 813 -24 813 -24 726.5 -24 c 128,-1,38
 640 -24 640 -24 519.5 -1 c 128,-1,39
 399 22 399 22 375.5 46 c 128,-1,40
 352 70 352 70 301.5 104.5 c 128,-1,41
 251 139 251 139 215.5 196.5 c 128,-1,42
 180 254 180 254 164 304.5 c 128,-1,43
 148 355 148 355 140 435.5 c 128,-1,44
 132 516 132 516 132 587 c 128,-1,45
 132 658 132 658 148 786 c 1,46,-1
 162 991 l 1,47,48
 151 1108 151 1108 145 1118.5 c 128,-1,49
 139 1129 139 1129 105 1144.5 c 128,-1,50
 71 1160 71 1160 61 1177.5 c 128,-1,51
 51 1195 51 1195 46 1206 c 1,52,-1
 36 1206 l 1,53,-1
 51 1261 l 1,54,55
 66 1286 66 1286 102 1297 c 0,56,57
 178 1321 178 1321 244 1330 c 1,58,-1
 413 1348 l 1,59,-1
 425 1348 l 1,60,-1
 429 1345 l 1,61,62
 453 1341 453 1341 483 1316 c 128,-1,63
 513 1291 513 1291 520 1248 c 1,64,-1
 523 1228 l 1,65,-1
 514 1188 l 1,66,-1
 468 1173 l 1,67,68
 456 723 456 723 424 280 c 1,0,1
EndSplineSet
Validated: 1
EndChar

StartChar: V
Encoding: 86 86 53
Width: 1420
VWidth: 1894
Flags: W
HStem: 1344 20G<369 560.5 1196.75 1270.25>
VStem: 1090 318<1229.14 1343.91>
LayerCount: 2
Fore
SplineSet
22 1228 m 1,0,-1
 62 1276 l 2,1,2
 92 1312 92 1312 184 1344 c 0,3,4
 242 1364 242 1364 496 1364 c 0,5,6
 625 1364 625 1364 625 1282 c 0,7,8
 625 1282 625 1282 625 1281 c 0,9,10
 625 1270 625 1270 604.5 1256.5 c 128,-1,11
 584 1243 584 1243 577 1239 c 1,12,13
 689 784 689 784 872 416 c 1,14,15
 903 500 903 500 950 664 c 128,-1,16
 997 828 997 828 1035 943 c 128,-1,17
 1073 1058 1073 1058 1090 1197 c 128,-1,18
 1107 1336 1107 1336 1133.5 1363 c 128,-1,19
 1160 1390 1160 1390 1233.5 1390 c 128,-1,20
 1307 1390 1307 1390 1357.5 1349 c 128,-1,21
 1408 1308 1408 1308 1408 1277 c 128,-1,22
 1408 1246 1408 1246 1361.5 1228 c 128,-1,23
 1315 1210 1315 1210 1306.5 1199 c 128,-1,24
 1298 1188 1298 1188 1287 1156.5 c 128,-1,25
 1276 1125 1276 1125 1223 984 c 0,26,27
 1160 816 1160 816 1149 773.5 c 128,-1,28
 1138 731 1138 731 1123 675 c 0,29,30
 1055 431 1055 431 997.5 289.5 c 128,-1,31
 940 148 940 148 940 92 c 2,32,-1
 940 86 l 2,33,34
 940 18 940 18 906 -9 c 0,35,36
 860 -45 860 -45 843.5 -53.5 c 128,-1,37
 827 -62 827 -62 811.5 -62 c 128,-1,38
 796 -62 796 -62 761.5 -46 c 128,-1,39
 727 -30 727 -30 692 50.5 c 128,-1,40
 657 131 657 131 585.5 274.5 c 128,-1,41
 514 418 514 418 494.5 452 c 128,-1,42
 475 486 475 486 448 554 c 128,-1,43
 421 622 421 622 393.5 667 c 128,-1,44
 366 712 366 712 340.5 790 c 128,-1,45
 315 868 315 868 270.5 946 c 128,-1,46
 226 1024 226 1024 216.5 1077 c 128,-1,47
 207 1130 207 1130 201 1144 c 1,48,49
 189 1148 189 1148 144.5 1151.5 c 128,-1,50
 100 1155 100 1155 68 1184 c 1,51,-1
 22 1228 l 1,0,-1
EndSplineSet
Validated: 1
EndChar

StartChar: W
Encoding: 87 87 54
Width: 1740
VWidth: 1894
Flags: W
HStem: -4 1349<342 723>
LayerCount: 2
Fore
SplineSet
796 396 m 1,0,1
 803 424 803 424 808.5 487 c 128,-1,2
 814 550 814 550 827 579.5 c 128,-1,3
 840 609 840 609 885 619 c 128,-1,4
 930 629 930 629 962 642.5 c 128,-1,5
 994 656 994 656 1011 659 c 1,6,-1
 1015 662 l 1,7,-1
 1026 662 l 2,8,9
 1050 662 1050 662 1074.5 644 c 128,-1,10
 1099 626 1099 626 1099 582 c 1,11,-1
 1089 457 l 1,12,13
 1093 390 1093 390 1125 390 c 0,14,15
 1130 390 1130 390 1136 392 c 1,16,17
 1237 798 1237 798 1339 1204 c 1,18,19
 1284 1222 1284 1222 1282 1252 c 1,20,-1
 1286 1274 l 1,21,22
 1296 1299 1296 1299 1369 1304 c 1,23,-1
 1598 1320 l 1,24,-1
 1608 1320 l 1,25,-1
 1670 1301 l 1,26,-1
 1672 1302 l 1,27,28
 1710 1282 1710 1282 1710 1249 c 0,29,30
 1710 1249 1710 1249 1710 1248 c 0,31,32
 1710 1214 1710 1214 1655.5 1069.5 c 128,-1,33
 1601 925 1601 925 1578.5 888.5 c 128,-1,34
 1556 852 1556 852 1523 668 c 1,35,36
 1463 479 1463 479 1437 341 c 128,-1,37
 1411 203 1411 203 1359 114.5 c 128,-1,38
 1307 26 1307 26 1273 13 c 1,39,-1
 1216 -1 l 1,40,41
 1115 24 1115 24 1075 104 c 1,42,43
 1036 187 1036 187 1007.5 224 c 128,-1,44
 979 261 979 261 959 270 c 1,45,-1
 918 228 l 1,46,47
 897 189 897 189 877 123.5 c 128,-1,48
 857 58 857 58 821 14 c 1,49,-1
 819 15 l 1,50,-1
 791 0 l 1,51,-1
 723 -4 l 1,52,53
 609 -4 609 -4 577 32 c 1,54,55
 547 69 547 69 517 148.5 c 128,-1,56
 487 228 487 228 449.5 331.5 c 128,-1,57
 412 435 412 435 360 523 c 128,-1,58
 308 611 308 611 284 690.5 c 128,-1,59
 260 770 260 770 233.5 819 c 128,-1,60
 207 868 207 868 169 973 c 128,-1,61
 131 1078 131 1078 131 1115 c 128,-1,62
 131 1152 131 1152 79 1168 c 1,63,64
 12 1199 12 1199 11 1251 c 0,65,66
 11 1345 11 1345 342 1345 c 0,67,68
 406 1345 406 1345 439.5 1342 c 128,-1,69
 473 1339 473 1339 487 1324 c 1,70,71
 500 1308 500 1308 501 1276 c 1,72,-1
 491 1205 l 1,73,74
 482 1194 482 1194 479 1190 c 1,75,76
 673 697 673 697 796 396 c 1,0,1
EndSplineSet
Validated: 1
EndChar

StartChar: X
Encoding: 88 88 55
Width: 1287
VWidth: 1894
Flags: W
HStem: 2 164<75.6907 167.222> 1352 20G<949 1076.5>
VStem: 79 350<1154 1286.59>
LayerCount: 2
Fore
SplineSet
1205 1210 m 8,0,1
 1184 1217 1184 1217 1166 1220 c 1,2,3
 1101 1092 1101 1092 783 608 c 1,4,5
 807 564 807 564 870.5 452 c 128,-1,6
 934 340 934 340 980 304 c 128,-1,7
 1026 268 1026 268 1048.5 229.5 c 128,-1,8
 1071 191 1071 191 1119.5 174 c 128,-1,9
 1168 157 1168 157 1199.5 121.5 c 128,-1,10
 1231 86 1231 86 1231 67 c 2,11,-1
 1231 66 l 1,12,-1
 1226 45 l 2,13,14
 1224 38 1224 38 1216 25 c 0,15,16
 1199 0 1199 0 1072.5 0 c 128,-1,17
 946 0 946 0 909 6.5 c 128,-1,18
 872 13 872 13 841 50 c 1,19,-1
 830 50 l 1,20,-1
 830 74 l 2,21,22
 830 92 830 92 847 111 c 128,-1,23
 864 130 864 130 864 146 c 1,24,25
 855 165 855 165 846.5 175 c 128,-1,26
 838 185 838 185 675 460 c 1,27,28
 582 294 582 294 489 128 c 1,29,30
 515 117 515 117 524 103 c 1,31,-1
 534 80 l 1,32,-1
 505 35 l 1,33,34
 472 4 472 4 319 2 c 0,35,36
 242 1 242 1 196 1 c 0,37,38
 180 1 180 1 168 1 c 0,39,40
 143 1 143 1 132 2 c 0,41,42
 97 4 97 4 75 19.5 c 128,-1,43
 53 35 53 35 53 77 c 0,44,45
 53 148 53 148 136 166 c 0,46,47
 164 172 164 172 172.5 180.5 c 128,-1,48
 181 189 181 189 202.5 227.5 c 128,-1,49
 224 266 224 266 265 316 c 128,-1,50
 306 366 306 366 403.5 508 c 128,-1,51
 501 650 501 650 501 672 c 128,-1,52
 501 694 501 694 430.5 792.5 c 128,-1,53
 360 891 360 891 319 956.5 c 128,-1,54
 278 1022 278 1022 238 1084 c 128,-1,55
 198 1146 198 1146 155 1170 c 128,-1,56
 112 1194 112 1194 95.5 1212.5 c 128,-1,57
 79 1231 79 1231 79 1264.5 c 128,-1,58
 79 1298 79 1298 104 1317 c 128,-1,59
 129 1336 129 1336 232.5 1336 c 128,-1,60
 336 1336 336 1336 383 1309.5 c 128,-1,61
 430 1283 430 1283 449 1268.5 c 128,-1,62
 468 1254 468 1254 468 1236 c 2,63,-1
 468 1234 l 1,64,-1
 455 1196 l 1,65,66
 429 1169 429 1169 429 1159 c 128,-1,67
 429 1149 429 1149 434 1130.5 c 128,-1,68
 439 1112 439 1112 511.5 1009 c 128,-1,69
 584 906 584 906 621 872 c 1,70,71
 671 954 671 954 721 1036 c 1,72,-1
 802 1185 l 1,73,-1
 805 1194 l 1,74,-1
 787 1276 l 1,75,-1
 787 1277 l 1,76,-1
 794 1310 l 1,77,78
 807 1328 807 1328 828 1336 c 128,-1,79
 849 1344 849 1344 885 1360 c 0,80,81
 912 1372 912 1372 986 1372 c 2,82,-1
 1004 1372 l 2,83,84
 1149 1372 1149 1372 1190 1345 c 0,85,86
 1227 1320 1227 1320 1231 1294 c 0,87,88
 1235 1271 1235 1271 1235 1261 c 0,89,90
 1235 1257 1235 1257 1234 1254 c 0,91,92
 1221 1209 1221 1209 1208 1209 c 0,93,-1
 1205 1210 l 8,0,1
EndSplineSet
Validated: 1
EndChar

StartChar: Y
Encoding: 89 89 56
Width: 1447
VWidth: 1894
Flags: W
HStem: 1164 192<79.6909 249.503> 1200.5 163.5<1290.43 1373.99>
VStem: 664 294<116.156 591.602>
LayerCount: 2
Fore
SplineSet
343 986 m 24,0,1
 242 1135 242 1135 216 1164 c 1,2,3
 147 1166 147 1166 114.5 1186.5 c 128,-1,4
 82 1207 82 1207 66 1217.5 c 128,-1,5
 50 1228 50 1228 38.5 1241 c 128,-1,6
 27 1254 27 1254 27 1273 c 0,7,8
 27 1305 27 1305 89 1318 c 0,9,10
 272 1356 272 1356 319 1356 c 0,11,12
 584 1356 584 1356 584 1277 c 2,13,-1
 584 1276 l 2,14,15
 584 1232 584 1232 534 1218 c 1,16,17
 684 1034 684 1034 828 830 c 1,18,-1
 946 998 l 1,19,-1
 946 999 l 1,20,21
 1068 1163 1068 1163 1069 1220 c 1,22,-1
 1066 1254 l 1,23,-1
 1066 1256 l 1,24,25
 1068 1364 1068 1364 1231 1364 c 0,26,27
 1321 1364 1321 1364 1374 1320 c 128,-1,28
 1427 1276 1427 1276 1427 1251 c 128,-1,29
 1427 1226 1427 1226 1405 1216 c 128,-1,30
 1383 1206 1383 1206 1345 1200.5 c 128,-1,31
 1307 1195 1307 1195 1298.5 1171.5 c 128,-1,32
 1290 1148 1290 1148 1190.5 1025 c 128,-1,33
 1091 902 1091 902 1036.5 814.5 c 128,-1,34
 982 727 982 727 955 688 c 1,35,36
 964 650 964 650 964 567 c 1,37,-1
 958 133 l 1,38,39
 1018 116 1018 116 1031 92 c 128,-1,40
 1044 68 1044 68 1044 50 c 2,41,-1
 1044 9 l 2,42,43
 1044 2 1044 2 1034 -8 c 1,44,45
 916 -9 916 -9 796 -10 c 1,46,-1
 656 -26 l 1,47,48
 602 -26 602 -26 592 -19 c 128,-1,49
 582 -12 582 -12 571.5 -9.5 c 128,-1,50
 561 -7 561 -7 561 0.5 c 128,-1,51
 561 8 561 8 564 14.5 c 128,-1,52
 567 21 567 21 567 39.5 c 128,-1,53
 567 58 567 58 601.5 91.5 c 128,-1,54
 636 125 636 125 664 134 c 1,55,-1
 667 213 l 1,56,57
 667 308 667 308 651.5 430 c 128,-1,58
 636 552 636 552 630 570 c 0,59,60
 617 608 617 608 509 750 c 0,61,62
 451 826 451 826 343 986 c 24,0,1
EndSplineSet
Validated: 1
EndChar

StartChar: Z
Encoding: 90 90 57
Width: 1251
VWidth: 1894
Flags: W
HStem: 37 191<626.584 1012> 42 141<473.474 1004.2> 1196 106<417.41 549.147> 1336 20G<811.333 1135.5>
VStem: 124 170<1009.08 1109.87>
LayerCount: 2
Fore
SplineSet
719 1196 m 0,0,1
 606 1196 606 1196 457 1162 c 0,2,3
 396 1148 396 1148 320 1111 c 1,4,5
 299 1075 299 1075 294 1037 c 0,6,7
 284 974 284 974 222 974 c 0,8,9
 221 974 221 974 220 974 c 0,10,11
 195 974 195 974 159.5 1008 c 128,-1,12
 124 1042 124 1042 124 1130 c 2,13,-1
 124 1146 l 2,14,15
 124 1242 124 1242 191 1301 c 1,16,-1
 233 1328 l 1,17,18
 237 1327 237 1327 238 1326 c 2,19,-1
 291 1313 l 1,20,21
 313 1302 313 1302 358 1302 c 1,22,-1
 1078 1356 l 1,23,-1
 1079 1356 l 2,24,25
 1192 1356 1192 1356 1222 1304 c 0,26,27
 1239 1274 1239 1274 1239 1258 c 0,28,29
 1239 1246 1239 1246 1229 1241 c 1,30,-1
 1192 1228 l 1,31,-1
 1180 1226 l 1,32,33
 1047 925 1047 925 835 665 c 1,34,35
 859 648 859 648 864 625 c 1,36,-1
 867 625 l 1,37,-1
 866 613 l 1,38,39
 865 577 865 577 855.5 574 c 128,-1,40
 846 571 846 571 804 570 c 1,41,42
 612 376 612 376 425 172 c 1,43,44
 537 183 537 183 638 183 c 0,45,46
 736 183 736 183 872 208 c 0,47,48
 980 228 980 228 1005 228 c 0,49,50
 1012 228 1012 228 1012 226 c 0,51,52
 1014 223 1014 223 1016 223 c 0,53,54
 1017 223 1017 223 1018 223 c 0,55,56
 1022 223 1022 223 1028 225 c 1,57,58
 1037 231 1037 231 1059.5 275.5 c 128,-1,59
 1082 320 1082 320 1127 320 c 0,60,61
 1198 320 1198 320 1198 197 c 0,62,63
 1198 195 1198 195 1198 194 c 0,64,65
 1198 166 1198 166 1179 92 c 128,-1,66
 1160 18 1160 18 1131 -6 c 1,67,-1
 1103 -14 l 1,68,-1
 1101 -14 l 2,69,70
 1073 -14 1073 -14 1041 9.5 c 128,-1,71
 1009 33 1009 33 992 37 c 1,72,-1
 817 42 l 1,73,74
 752 42 752 42 680.5 26 c 128,-1,75
 609 10 609 10 443 -6 c 1,76,-1
 200 -22 l 1,77,78
 57 -22 57 -22 57 113 c 0,79,80
 57 174 57 174 118 253.5 c 128,-1,81
 179 333 179 333 300 449 c 1,82,-1
 407 546 l 1,83,-1
 345 605 l 1,84,-1
 341 629 l 1,85,-1
 341 630 l 2,86,87
 341 675 341 675 356 693 c 128,-1,88
 371 711 371 711 443 725 c 1,89,-1
 545 739 l 1,90,91
 552 758 552 758 611 816 c 128,-1,92
 670 874 670 874 761 1008 c 0,93,94
 851 1140 851 1140 871 1158 c 2,95,-1
 894 1179 l 1,96,97
 825 1196 825 1196 719 1196 c 0,0,1
EndSplineSet
Validated: 1
EndChar

StartChar: bracketleft
Encoding: 91 91 58
Width: 572
VWidth: 1894
Flags: W
HStem: -315 157<421.661 655.528> 1406 176<472.061 653.034>
VStem: 126 295<-180 117.266 270.747 441.82> 165 296<810.672 1421>
LayerCount: 2
Fore
SplineSet
471 1410 m 0,0,1
 467 1411 467 1411 461 1421 c 1,2,3
 452 613 452 613 421 -180 c 1,4,5
 442 -176 442 -176 482 -165 c 0,6,7
 508 -158 508 -158 537 -158 c 0,8,9
 553 -158 553 -158 570 -160 c 0,10,11
 618 -166 618 -166 650.5 -197 c 128,-1,12
 683 -228 683 -228 692.5 -243 c 128,-1,13
 702 -258 702 -258 702 -273 c 0,14,15
 702 -313 702 -313 608 -315 c 1,16,-1
 126 -316 l 1,17,-1
 144 228 l 1,18,-1
 139 438 l 1,19,-1
 150 829 l 1,20,21
 165 1081 165 1081 165 1444 c 2,22,-1
 165 1466 l 2,23,24
 165 1540 165 1540 280 1570 c 0,25,26
 327 1582 327 1582 475.5 1582 c 128,-1,27
 624 1582 624 1582 654 1566 c 128,-1,28
 684 1550 684 1550 683 1522 c 0,29,30
 683 1521 683 1521 683 1520 c 1,31,-1
 683 1518 l 1,32,33
 676 1406 676 1406 533 1406 c 0,34,35
 505 1406 505 1406 471 1410 c 0,0,1
EndSplineSet
Validated: 1
EndChar

StartChar: backslash
Encoding: 92 92 59
Width: 905
VWidth: 1894
Flags: W
LayerCount: 2
Fore
SplineSet
779 -141 m 0,0,1
 760 -137 760 -137 724 -70 c 0,2,3
 696 -18 696 -18 553 228 c 128,-1,4
 410 474 410 474 224 819 c 128,-1,5
 38 1164 38 1164 -35.5 1263 c 128,-1,6
 -109 1362 -109 1362 -109 1410 c 0,7,8
 -109 1472 -109 1472 -38 1494 c 0,9,10
 9 1509 9 1509 45 1509 c 0,11,12
 60 1509 60 1509 74 1506 c 2,13,14
 83 1507 83 1507 91 1507 c 0,15,16
 113 1507 113 1507 120 1497 c 0,17,18
 981 3 981 3 981 -46 c 0,19,20
 976 -156 976 -156 871 -156 c 0,21,22
 831 -156 831 -156 779 -141 c 0,0,1
EndSplineSet
Validated: 1
EndChar

StartChar: bracketright
Encoding: 93 93 60
Width: 528
VWidth: 1894
Flags: W
HStem: 1431 170<-57.993 116>
VStem: 113 290<-70.173 980.849> 116 250<-124.955 519.625>
LayerCount: 2
Fore
SplineSet
113 661.5 m 128,-1,1
 113 1048 113 1048 116 1434 c 1,2,3
 95 1434 95 1434 59 1432 c 0,4,5
 49 1431 49 1431 39 1431 c 0,6,7
 16 1431 16 1431 0 1435 c 0,8,9
 -23 1440 -23 1440 -58 1466 c 2,10,-1
 -116 1510 l 1,11,-1
 -58 1556 l 2,12,13
 -25 1582 -25 1582 2 1589 c 0,14,15
 31 1596 31 1596 157 1601 c 1,16,-1
 332 1606 l 1,17,18
 397 1606 397 1606 409 1552 c 1,19,-1
 418 1460 l 1,20,-1
 390 934 l 1,21,-1
 403 414 l 1,22,23
 401 300 401 300 383.5 135 c 128,-1,24
 366 -30 366 -30 366 -71.5 c 128,-1,25
 366 -113 366 -113 374 -128 c 1,26,-1
 399 -186 l 1,27,-1
 355 -278 l 1,28,-1
 134 -282 l 1,29,30
 -42 -282 -42 -282 -58 -225 c 1,31,-1
 -60 -208 l 1,32,-1
 -57 -193 l 1,33,-1
 -7 -152 l 1,34,35
 50 -127 50 -127 116 -116 c 1,36,0
 113 275 113 275 113 661.5 c 128,-1,1
EndSplineSet
Validated: 1
EndChar

StartChar: a
Encoding: 97 97 61
Width: 964
VWidth: 1894
Flags: W
HStem: 0 148.5<389.649 534.007> 441 135<497.543 578> 722 156<365.002 615.286>
VStem: 60 240<198.841 394.011>
LayerCount: 2
Fore
SplineSet
497 450 m 2,0,-1
 449 450 l 1,1,-1
 390 437 l 1,2,3
 300 364 300 364 300 295.5 c 128,-1,4
 300 227 300 227 388 157 c 1,5,6
 441 149 441 149 465.5 148.5 c 128,-1,7
 490 148 490 148 512.5 171 c 128,-1,8
 535 194 535 194 549 209 c 1,9,10
 563 326 563 326 578 441 c 1,11,12
 514 450 514 450 497 450 c 2,0,-1
863 652 m 1,13,-1
 875 551 l 1,14,-1
 849 366 l 1,15,-1
 867 130 l 2,16,17
 868 116 868 116 884 100 c 1,18,-1
 910 84 l 1,19,-1
 878 32 l 1,20,21
 854 -10 854 -10 812 -10 c 2,22,-1
 810 -10 l 2,23,24
 782 -10 782 -10 736 14 c 128,-1,25
 690 38 690 38 682 51 c 128,-1,26
 674 64 674 64 672 69 c 1,27,-1
 609 32 l 1,28,29
 545 0 545 0 472.5 0 c 128,-1,30
 400 0 400 0 305 16 c 1,31,32
 62 63 62 63 60 256 c 0,33,34
 60 288 60 288 87.5 380 c 128,-1,35
 115 472 115 472 165 497.5 c 128,-1,36
 215 523 215 523 349 548 c 1,37,-1
 519 576 l 1,38,-1
 597 569 l 1,39,40
 608 634 608 634 617 699 c 1,41,42
 562 722 562 722 526 722 c 2,43,-1
 481 722 l 1,44,-1
 415 719 l 1,45,46
 391 712 391 712 348.5 657.5 c 128,-1,47
 306 603 306 603 270 583.5 c 128,-1,48
 234 564 234 564 197.5 564 c 128,-1,49
 161 564 161 564 148 583.5 c 128,-1,50
 135 603 135 603 135 621.5 c 128,-1,51
 135 640 135 640 160 699 c 128,-1,52
 185 758 185 758 190.5 765.5 c 128,-1,53
 196 773 196 773 203 779 c 0,54,55
 210 786 210 786 216 790 c 128,-1,56
 222 794 222 794 234 804 c 128,-1,57
 246 814 246 814 255 822 c 0,58,59
 322 878 322 878 455 878 c 128,-1,60
 588 878 588 878 669.5 845 c 128,-1,61
 751 812 751 812 775.5 792 c 128,-1,62
 800 772 800 772 829.5 716 c 128,-1,63
 859 660 859 660 863 652 c 1,13,-1
EndSplineSet
Validated: 1
EndChar

StartChar: b
Encoding: 98 98 62
Width: 1121
VWidth: 1894
Flags: W
HStem: 16 94<484.375 603> 747 161<534.652 715.779> 1332 20G<166 341.5>
VStem: 182 260<154.199 437.816 544.689 665.262 854 1139.91>
LayerCount: 2
Fore
SplineSet
599 110 m 2,0,-1
 603 110 l 1,1,-1
 710 148 l 2,2,3
 714 150 714 150 715 151 c 1,4,5
 781 302 781 302 781 441 c 0,6,-1
 781 443 l 0,7,8
 781 581 781 581 717 708 c 1,9,10
 678 746 678 746 631 747 c 0,11,-1
 630 747 l 0,12,13
 583 747 583 747 471 654 c 0,14,15
 458 643 458 643 447 630 c 1,16,17
 447 406 447 406 442 182 c 1,18,19
 459 171 459 171 506 141 c 0,20,21
 554 110 554 110 599 110 c 2,0,-1
250 1352 m 2,22,23
 433 1352 433 1352 464 1329 c 0,24,25
 497 1305 497 1305 497 1268 c 2,26,-1
 497 1258 l 1,27,-1
 496 1255 l 1,28,29
 490 1233 490 1233 443 1219 c 1,30,31
 445 1035 445 1035 446 854 c 1,32,33
 506 883 506 883 549 895.5 c 128,-1,34
 592 908 592 908 609 908 c 128,-1,35
 626 908 626 908 642.5 907 c 128,-1,36
 659 906 659 906 765.5 877 c 128,-1,37
 872 848 872 848 936.5 782 c 128,-1,38
 1001 716 1001 716 1033 592 c 1,39,-1
 1068 427 l 1,40,-1
 1064 424 l 1,41,42
 1060 389 1060 389 1041 316 c 1,43,44
 980 123 980 123 755 46 c 1,45,46
 663 16 663 16 623 16 c 2,47,-1
 588 16 l 2,48,49
 549 16 549 16 480 47 c 0,50,51
 414 77 414 77 402 80 c 1,52,53
 404 67 404 67 403 61 c 0,54,55
 399 -4 399 -4 250 -8 c 1,56,-1
 248 -10 l 1,57,-1
 237 -10 l 2,58,59
 115 -10 115 -10 115 53 c 2,60,-1
 115 55 l 2,61,62
 115 81 115 81 148 115 c 128,-1,63
 181 149 181 149 182 186 c 1,64,-1
 172 270 l 1,65,-1
 165 469 l 1,66,-1
 170 952 l 1,67,68
 170 1107 170 1107 155 1141 c 1,69,70
 57 1210 57 1210 57 1244 c 1,71,72
 59 1311 59 1311 166 1345 c 1,73,-1
 249 1352 l 1,74,-1
 250 1352 l 2,22,23
EndSplineSet
Validated: 1
EndChar

StartChar: c
Encoding: 99 99 63
Width: 1118
VWidth: 1894
Flags: W
HStem: -26 147<490.932 747.042> 43 269<805.903 988.07> 646 202<748.468 837> 714 168<547.448 769.519> 836 20G<806 872>
VStem: 51 315<241.813 530.821> 800 260<89 261>
LayerCount: 2
Fore
SplineSet
1060 89 m 0,0,1
 1060 43 1060 43 1007 43 c 128,-1,2
 954 43 954 43 934 51 c 0,3,4
 920 57 920 57 910 57 c 0,5,6
 906 58 906 58 902 56 c 0,7,8
 892 52 892 52 829.5 13 c 128,-1,9
 767 -26 767 -26 633 -26 c 128,-1,10
 499 -26 499 -26 404 0 c 128,-1,11
 309 26 309 26 274 45 c 128,-1,12
 239 64 239 64 178.5 117 c 128,-1,13
 118 170 118 170 87.5 224 c 128,-1,14
 57 278 57 278 54 297 c 128,-1,15
 51 316 51 316 51 336 c 0,16,17
 51 542 51 542 202 682 c 1,18,19
 356 820 356 820 480.5 851 c 128,-1,20
 605 882 605 882 623.5 882 c 128,-1,21
 642 882 642 882 701 866 c 128,-1,22
 760 850 760 850 806 848 c 1,23,-1
 870 856 l 1,24,-1
 872 856 l 2,25,26
 985 856 985 856 985 816 c 0,27,28
 985 816 985 816 984 816 c 0,29,30
 984 776 984 776 948 717 c 128,-1,31
 912 658 912 658 840 649 c 1,32,-1
 837 646 l 1,33,-1
 826 646 l 2,34,35
 789 646 789 646 759 680 c 128,-1,36
 729 714 729 714 687 714 c 2,37,-1
 677 714 l 2,38,39
 636 714 636 714 620 710 c 0,40,41
 561 694 561 694 547 690 c 1,42,43
 366 533 366 533 366 386 c 0,44,45
 366 281 366 281 459 177 c 1,46,47
 592 130 592 130 630 124 c 0,48,49
 649 121 649 121 662.5 121 c 128,-1,50
 676 121 676 121 684 124 c 0,51,52
 700 130 700 130 744 163 c 128,-1,53
 788 196 788 196 796 206 c 1,54,-1
 804 228 l 1,55,56
 800 243 800 243 800 261 c 128,-1,57
 800 279 800 279 820 295.5 c 128,-1,58
 840 312 840 312 873 312 c 2,59,-1
 876 312 l 2,60,61
 931 312 931 312 977 277 c 128,-1,62
 1023 242 1023 242 1041.5 179 c 128,-1,63
 1060 116 1060 116 1060 89 c 0,0,1
EndSplineSet
Validated: 1
EndChar

StartChar: d
Encoding: 100 100 64
Width: 1171
VWidth: 1894
Flags: W
HStem: -32 152<444.633 633> 730 159<415.712 669.56> 1343 20G<744 919>
VStem: 56 278<268.24 462> 729 309<864 1237.79> 741 321<211.326 670.75>
LayerCount: 2
Fore
SplineSet
572 730 m 0,0,1
 571 730 571 730 570 730 c 0,2,3
 551 730 551 730 496 720 c 0,4,5
 438 710 438 710 393 668 c 1,6,7
 334 533 334 533 334 413 c 2,8,-1
 334 411 l 2,9,10
 334 292 334 292 380 185 c 1,11,12
 400 173 400 173 448 148 c 0,13,14
 501 120 501 120 532 120 c 2,15,-1
 540 120 l 2,16,17
 550 120 550 120 622 158 c 0,18,19
 690 194 690 194 741 260 c 1,20,21
 735 457 735 457 731 653 c 1,22,23
 705 666 705 666 647.5 698 c 128,-1,24
 590 730 590 730 572 730 c 0,0,1
843 1363 m 2,25,-1
 880 1363 l 1,26,27
 958 1361 958 1361 998 1338.5 c 128,-1,28
 1038 1316 1038 1316 1038 1266 c 2,29,-1
 1038 1206 l 1,30,-1
 1026 799 l 1,31,-1
 1049 389 l 1,32,33
 1060 271 1060 271 1062 216 c 128,-1,34
 1064 161 1064 161 1090 133 c 128,-1,35
 1116 105 1116 105 1116 85 c 2,36,-1
 1116 62 l 1,37,-1
 1108 62 l 1,38,39
 1104 54 1104 54 1094 41 c 128,-1,40
 1084 28 1084 28 1031 14 c 1,41,-1
 906 0 l 1,42,-1
 900 6 l 1,43,44
 883 13 883 13 859.5 41 c 128,-1,45
 836 69 836 69 830 119 c 1,46,-1
 788 89 l 1,47,48
 613 -29 613 -29 518 -32 c 1,49,-1
 344 2 l 1,50,-1
 217 62 l 1,51,52
 129 98 129 98 72 262 c 1,53,-1
 56 322 l 1,54,-1
 59 430 l 1,55,-1
 62 462 l 1,56,57
 73 560 73 560 168 677 c 128,-1,58
 263 794 263 794 316.5 817 c 128,-1,59
 370 840 370 840 472 864 c 0,60,61
 561 885 561 885 612 888 c 2,62,-1
 634 889 l 2,63,64
 636 889 636 889 638 889 c 0,65,66
 668 889 668 889 729 864 c 1,67,-1
 729 1218 l 1,68,69
 682 1237 682 1237 661 1251 c 128,-1,70
 640 1265 640 1265 640 1282 c 2,71,-1
 640 1291 l 1,72,73
 645 1363 645 1363 843 1363 c 2,25,-1
EndSplineSet
Validated: 1
EndChar

StartChar: e
Encoding: 101 101 65
Width: 1006
VWidth: 1894
Flags: W
HStem: -18 158<460.408 671.053> 413 120<380.735 588.594> 758 144<424.616 538.055>
VStem: 62 318<174.266 383.326> 606 343<498.938 668.779> 681 264<149.635 283.069>
LayerCount: 2
Fore
SplineSet
438 533 m 0,0,1
 458 533 458 533 501.5 538.5 c 128,-1,2
 545 544 545 544 590 552 c 1,3,4
 606 580 606 580 606 608 c 0,5,6
 606 675 606 675 520 749 c 1,7,8
 504 750 504 750 480 756 c 0,9,10
 473 758 473 758 466 758 c 0,11,12
 450 758 450 758 434 748 c 1,13,14
 418 747 418 747 387 625 c 0,15,16
 383 600 383 600 377 529 c 1,17,18
 427 533 427 533 438 533 c 0,0,1
525 140 m 2,19,20
 620 140 620 140 638 149 c 0,21,22
 679 169 679 169 681 230 c 128,-1,23
 683 291 683 291 715 315 c 1,24,-1
 791 360 l 1,25,-1
 864 315 l 1,26,-1
 865 314 l 1,27,28
 945 253 945 253 945 188 c 0,29,-1
 945 187 l 0,30,-1
 945 186 l 2,31,32
 945 120 945 120 933.5 98 c 128,-1,33
 922 76 922 76 858 61 c 128,-1,34
 794 46 794 46 752.5 28 c 128,-1,35
 711 10 711 10 631.5 -4 c 128,-1,36
 552 -18 552 -18 513 -18 c 128,-1,37
 474 -18 474 -18 400 -4 c 128,-1,38
 326 10 326 10 294.5 22.5 c 128,-1,39
 263 35 263 35 202 74.5 c 128,-1,40
 141 114 141 114 114 149 c 1,41,-1
 81 226 l 1,42,43
 62 277 62 277 62 305 c 0,44,45
 62 306 62 306 62 308 c 2,46,-1
 62 343 l 1,47,-1
 67 392 l 1,48,49
 68 429 68 429 103 514 c 0,50,51
 216 792 216 792 309 847 c 128,-1,52
 402 902 402 902 474.5 902 c 128,-1,53
 547 902 547 902 637.5 883 c 128,-1,54
 728 864 728 864 758.5 843 c 128,-1,55
 789 822 789 822 869 721.5 c 128,-1,56
 949 621 949 621 949 494 c 0,57,58
 949 445 949 445 916.5 422 c 128,-1,59
 884 399 884 399 804 399 c 1,60,-1
 654 413 l 1,61,62
 559 413 559 413 493 399 c 0,63,64
 403 379 403 379 380 373 c 1,65,66
 384 266 384 266 429 164 c 1,67,68
 468 152 468 152 507 140 c 1,69,-1
 525 140 l 2,19,20
EndSplineSet
Validated: 1
EndChar

StartChar: f
Encoding: 102 102 66
Width: 776
VWidth: 1894
Flags: W
HStem: -16 162<74.9062 153.094> 4 63<521.266 543> 1110 246<529.832 708.219>
VStem: 152 286<146.159 527 682.192 1130.51>
LayerCount: 2
Fore
SplineSet
152 805.5 m 128,-1,1
 152 848 152 848 152.5 896.5 c 128,-1,2
 153 945 153 945 174 1046 c 0,3,4
 226 1291 226 1291 378 1345 c 1,5,-1
 460 1358 l 1,6,-1
 603 1356 l 2,7,8
 683 1355 683 1355 716 1330 c 1,9,10
 746 1305 746 1305 746 1271.5 c 128,-1,11
 746 1238 746 1238 724 1185 c 128,-1,12
 702 1132 702 1132 675.5 1124 c 128,-1,13
 649 1116 649 1116 610 1110 c 0,14,15
 607 1110 607 1110 605 1110 c 0,16,17
 567 1110 567 1110 506 1180 c 1,18,19
 461 1155 461 1155 434 1126 c 1,20,21
 438 906 438 906 438 689 c 1,22,23
 539 676 539 676 581.5 650 c 128,-1,24
 624 624 624 624 624 574 c 2,25,-1
 624 509 l 1,26,-1
 461 529 l 1,27,-1
 438 527 l 1,28,29
 438 331 438 331 434 137 c 1,30,31
 531 111 531 111 541 67 c 1,32,-1
 543 67 l 1,33,-1
 543 66 l 1,34,35
 550 53 550 53 550 45 c 0,36,37
 550 43 550 43 550 42 c 0,38,39
 546 28 546 28 547 14 c 0,40,41
 546 4 546 4 522 4 c 0,42,43
 507 4 507 4 480 8 c 1,44,-1
 493 1 l 1,45,-1
 176 -16 l 1,46,47
 146 -16 146 -16 120 -9 c 128,-1,48
 94 -2 94 -2 74.5 29 c 128,-1,49
 55 60 55 60 55 75 c 128,-1,50
 55 90 55 90 81 118 c 128,-1,51
 107 146 107 146 147 146 c 1,52,53
 153 151 153 151 153 166 c 2,54,-1
 156 712 l 1,55,0
 152 763 152 763 152 805.5 c 128,-1,1
EndSplineSet
Validated: 1
EndChar

StartChar: g
Encoding: 103 103 67
Width: 1267
VWidth: 1894
Flags: W
HStem: -270 140<229.478 533.42> -72 173<292.5 491.465> 136 204<456.191 591.728> 690 181<556.709 777.996>
VStem: 103 277<374.04 546.816> 720 284<-159.612 -40.0106> 888 278<454.182 541 542 635.781>
LayerCount: 2
Fore
SplineSet
699 690 m 0,0,1
 695 690 695 690 689 690 c 0,2,3
 641 690 641 690 554 668 c 1,4,5
 380 554 380 554 380 466 c 0,6,7
 380 407 380 407 455 345 c 1,8,9
 493 340 493 340 546 340 c 128,-1,10
 599 340 599 340 634.5 349.5 c 128,-1,11
 670 359 670 359 745 361 c 1,12,13
 888 463 888 463 888 541 c 0,14,15
 888 541 888 541 889 542 c 0,16,17
 889 620 889 620 779 683 c 1,18,19
 747 688 747 688 699 690 c 0,0,1
720 -99 m 2,20,-1
 720 -96 l 1,21,22
 718 -44 718 -44 591 0 c 1,23,-1
 502 -23 l 0,24,25
 464 -39 464 -39 409 -55.5 c 128,-1,26
 354 -72 354 -72 313 -72 c 128,-1,27
 272 -72 272 -72 199 -37 c 128,-1,28
 126 -2 126 -2 103.5 28 c 128,-1,29
 81 58 81 58 81 97 c 128,-1,30
 81 136 81 136 119.5 176 c 128,-1,31
 158 216 158 216 170 244 c 1,32,33
 166 253 166 253 134.5 292.5 c 128,-1,34
 103 332 103 332 103 398 c 128,-1,35
 103 464 103 464 160 572 c 1,36,-1
 161 573 l 1,37,38
 224 666 224 666 251 684 c 0,39,40
 334 739 334 739 345.5 754.5 c 128,-1,41
 357 770 357 770 434 805 c 128,-1,42
 511 840 511 840 572.5 855 c 128,-1,43
 634 870 634 870 732 871 c 128,-1,44
 830 872 830 872 848 883 c 128,-1,45
 866 894 866 894 897 960 c 1,46,47
 943 1080 943 1080 1062 1080 c 0,48,49
 1112 1080 1112 1080 1162.5 1044 c 128,-1,50
 1213 1008 1213 1008 1213 920 c 128,-1,51
 1213 832 1213 832 1162 832 c 0,52,53
 1136 832 1136 832 1112 849 c 128,-1,54
 1088 866 1088 866 1077 872 c 1,55,-1
 1059 817 l 1,56,57
 1070 802 1070 802 1118 755 c 128,-1,58
 1166 708 1166 708 1166 631 c 2,59,-1
 1166 629 l 2,60,61
 1166 566 1166 566 1129 473 c 1,62,63
 1048 256 1048 256 855 211 c 1,64,65
 825 205 825 205 711 196 c 1,66,67
 756 195 756 195 784 187 c 128,-1,68
 812 179 812 179 872.5 144 c 128,-1,69
 933 109 933 109 968.5 56.5 c 128,-1,70
 1004 4 1004 4 1004 -76 c 128,-1,71
 1004 -156 1004 -156 968.5 -223 c 128,-1,72
 933 -290 933 -290 859 -319 c 128,-1,73
 785 -348 785 -348 749 -348 c 128,-1,74
 713 -348 713 -348 676.5 -345 c 128,-1,75
 640 -342 640 -342 530 -309 c 128,-1,76
 420 -276 420 -276 403 -273 c 128,-1,77
 386 -270 386 -270 366 -270 c 128,-1,78
 346 -270 346 -270 295 -276.5 c 128,-1,79
 244 -283 244 -283 229 -289 c 1,80,81
 222 -312 222 -312 171 -352 c 128,-1,82
 120 -392 120 -392 85.5 -392 c 128,-1,83
 51 -392 51 -392 39 -377 c 128,-1,84
 27 -362 27 -362 27 -316 c 128,-1,85
 27 -270 27 -270 62.5 -220 c 128,-1,86
 98 -170 98 -170 150 -146 c 128,-1,87
 202 -122 202 -122 298 -122 c 128,-1,88
 394 -122 394 -122 439 -130 c 1,89,90
 440 -130 440 -130 441 -130 c 0,91,92
 453 -130 453 -130 520 -167 c 0,93,94
 563 -191 563 -191 577 -191 c 0,95,96
 578 -191 578 -191 579 -191 c 0,97,98
 720 -165 720 -165 720 -99 c 2,20,-1
434 136 m 2,99,-1
 413 136 l 1,100,-1
 372 140 l 1,101,-1
 368 140 l 1,102,-1
 371 142 l 1,103,104
 323 138 323 138 321 115 c 1,105,-1
 327 104 l 1,106,107
 336 101 336 101 361.5 101 c 128,-1,108
 387 101 387 101 470.5 135 c 128,-1,109
 554 169 554 169 594 179 c 1,110,111
 521 170 521 170 486 153 c 128,-1,112
 451 136 451 136 434 136 c 2,99,-1
EndSplineSet
Validated: 1
EndChar

StartChar: h
Encoding: 104 104 68
Width: 1025
VWidth: 1894
Flags: W
HStem: 733 175<496.212 666.055> 1349 20G<149 174>
VStem: 92 299<80 588.643 833 1191.98> 667 272<79.0469 727.437>
LayerCount: 2
Fore
SplineSet
667 704 m 1,0,1
 637 733 637 733 577.5 733 c 128,-1,2
 518 733 518 733 495.5 725 c 128,-1,3
 473 717 473 717 412 608 c 1,4,-1
 396 547 l 1,5,6
 396 314 396 314 391 80 c 1,7,-1
 409 72 l 1,8,-1
 416 -4 l 1,9,10
 407 -20 407 -20 369 -23 c 0,11,12
 341 -25 341 -25 293 -25 c 0,13,14
 276 -25 276 -25 258 -25 c 0,15,16
 185 -24 185 -24 170 -24 c 0,17,18
 62 -24 62 -24 62 36 c 0,19,20
 62 58 62 58 75.5 87.5 c 128,-1,21
 89 117 89 117 92 175 c 0,22,23
 98 351 98 351 98 626 c 0,24,25
 98 1133 98 1133 72 1194 c 1,26,27
 43 1213 43 1213 44 1237 c 2,28,-1
 44 1257 l 2,29,30
 44 1301 44 1301 84 1334.5 c 128,-1,31
 124 1368 124 1368 174 1369 c 1,32,-1
 174 1368 l 1,33,-1
 198 1368 l 1,34,-1
 199 1368 l 1,35,36
 337 1363 337 1363 395 1352 c 0,37,38
 450 1342 450 1342 450 1320 c 0,39,-1
 450 1319 l 2,40,-1
 448 1270 l 1,41,42
 419 1262 419 1262 391 1253 c 1,43,44
 393 1029 393 1029 395 833 c 1,45,46
 463 908 463 908 553 908 c 2,47,-1
 556 908 l 2,48,49
 686 908 686 908 782 861.5 c 128,-1,50
 878 815 878 815 909 718.5 c 128,-1,51
 940 622 940 622 940 454 c 1,52,-1
 939 417 l 1,53,-1
 939 360 l 2,54,55
 939 220 939 220 955 166 c 1,56,-1
 972 66 l 1,57,-1
 969 63 l 1,58,59
 967 -23 967 -23 906 -23 c 0,60,61
 879 -23 879 -23 778 -19 c 0,62,63
 689 -16 689 -16 654 2 c 0,64,65
 622 20 622 20 622 66 c 2,66,-1
 622 71 l 1,67,-1
 625 76 l 1,68,-1
 625 79 l 1,69,-1
 627 82 l 1,70,71
 634 95 634 95 667 113 c 1,72,73
 663 261 663 261 663 408.5 c 128,-1,74
 663 556 663 556 667 704 c 1,0,1
EndSplineSet
Validated: 1
EndChar

StartChar: k
Encoding: 107 107 71
Width: 1052
VWidth: 1894
Flags: W
HStem: 860 20G<657.5 805> 1331 20G<266 300>
VStem: 89 288<180 273.129 436 745.688> 109 290<701.291 975.741>
LayerCount: 2
Fore
SplineSet
399 1272 m 1,0,-1
 378 436 l 0,1,2
 442 518 442 518 506 590 c 0,3,4
 543 632 543 632 574 694 c 0,5,6
 604 754 604 754 605 790 c 1,7,-1
 603 794 l 1,8,-1
 603 810 l 2,9,10
 603 848 603 848 618 864 c 128,-1,11
 633 880 633 880 682 880 c 2,12,-1
 776 880 l 2,13,14
 834 880 834 880 855 853 c 128,-1,15
 876 826 876 826 876 806 c 128,-1,16
 876 786 876 786 840 749 c 128,-1,17
 804 712 804 712 775 661 c 128,-1,18
 746 610 746 610 696 552 c 0,19,20
 644 492 644 492 643 486 c 0,21,22
 643 484 643 484 643 483 c 0,23,24
 643 477 643 477 651 473 c 0,25,26
 691 453 691 453 773 346 c 0,27,28
 857 236 857 236 927 170 c 128,-1,29
 997 104 997 104 1000 66 c 1,30,-1
 1000 62 l 2,31,32
 1000 -12 1000 -12 886 -12 c 128,-1,33
 772 -12 772 -12 741 11 c 128,-1,34
 710 34 710 34 710 54 c 2,35,-1
 710 56 l 1,36,-1
 720 89 l 1,37,38
 654 121 654 121 498 265 c 16,39,40
 473 288 473 288 453 288 c 0,41,42
 423 288 423 288 401 241 c 0,43,44
 377 189 377 189 377 181 c 0,45,-1
 377 180 l 1,46,-1
 429 164 l 1,47,48
 467 149 467 149 467 125 c 0,49,50
 467 121 467 121 466 118 c 0,51,52
 461 103 461 103 461 69 c 0,53,54
 461 48 461 48 432 31 c 128,-1,55
 403 14 403 14 305 0 c 128,-1,56
 207 -14 207 -14 156 -14 c 128,-1,57
 105 -14 105 -14 81 24 c 128,-1,58
 57 62 57 62 57 78.5 c 128,-1,59
 57 95 57 95 89 120 c 1,60,61
 93 539 93 539 109 953 c 1,62,63
 84 966 84 966 60 978 c 1,64,65
 56 986 56 986 52 994 c 0,66,67
 41 1016 41 1016 50 1054 c 0,68,69
 75 1157 75 1157 88 1191 c 0,70,71
 125 1287 125 1287 209 1329 c 0,72,73
 254 1351 254 1351 278 1351 c 0,74,75
 281 1351 281 1351 284 1351 c 0,76,77
 316 1351 316 1351 344 1329 c 0,78,-1
 399 1272 l 1,0,-1
EndSplineSet
Validated: 1
EndChar

StartChar: l
Encoding: 108 108 72
Width: 540
VWidth: 1894
Flags: W
HStem: -6 21G<317 369> 1344 20G<213.25 231.75>
VStem: 36 362<813.603 960.621> 83 309<1048 1306.6> 107 291<210.841 806>
LayerCount: 2
Fore
SplineSet
351 1359 m 0,0,1
 391 1359 391 1359 392 1306 c 0,2,3
 398 997 398 997 398 723.5 c 128,-1,4
 398 450 398 450 394 210 c 1,5,-1
 429 224 l 1,6,-1
 433 224 l 2,7,8
 486 224 486 224 486 121 c 0,9,10
 486 72 486 72 440.5 33 c 128,-1,11
 395 -6 395 -6 343 -6 c 128,-1,12
 291 -6 291 -6 266 3.5 c 128,-1,13
 241 13 241 13 197 48 c 128,-1,14
 153 83 153 83 130 126.5 c 128,-1,15
 107 170 107 170 107 362 c 2,16,-1
 107 728 l 1,17,18
 111 768 111 768 114 806 c 1,19,-1
 109 806 l 1,20,21
 51 807 51 807 36 897 c 1,22,-1
 36 900 l 1,23,-1
 71 1048 l 1,24,-1
 83 1151 l 1,25,26
 83 1183 83 1183 94 1214 c 128,-1,27
 105 1245 105 1245 108.5 1250 c 128,-1,28
 112 1255 112 1255 112.5 1262 c 128,-1,29
 113 1269 113 1269 123 1294.5 c 128,-1,30
 133 1320 133 1320 139 1325 c 1,31,32
 204 1364 204 1364 222.5 1364 c 128,-1,33
 241 1364 241 1364 282 1361.5 c 128,-1,34
 323 1359 323 1359 351 1359 c 0,0,1
EndSplineSet
Validated: 1
EndChar

StartChar: m
Encoding: 109 109 73
Width: 1480
VWidth: 1894
Flags: W
HStem: 1 81<1074.32 1127> 715 172.5<975.69 1129>
VStem: 151 272<91.3745 356.704> 651.5 248.5<83.4688 623.688> 1119 278<205.219 685.06> 1127 250<116.227 360.686 370.217 475.143>
LayerCount: 2
Fore
SplineSet
1051.5 715 m 128,-1,1
 1005 715 1005 715 990 693 c 128,-1,2
 975 671 975 671 951.5 635 c 128,-1,3
 928 599 928 599 898 503 c 1,4,5
 900 439 900 439 900 364 c 0,6,7
 900 346 900 346 900 326 c 0,8,9
 900 228 900 228 896 112 c 1,10,11
 943 94 943 94 956 68 c 1,12,-1
 959 41 l 1,13,-1
 945 6 l 1,14,15
 932 -12 932 -12 881.5 -16 c 128,-1,16
 831 -20 831 -20 726 -24 c 0,17,18
 719 -24 719 -24 713 -24 c 0,19,20
 620 -24 620 -24 620 30 c 0,21,22
 620 54 620 54 635.5 90 c 128,-1,23
 651 126 651 126 651 146 c 128,-1,24
 651 166 651 166 651.5 225.5 c 128,-1,25
 652 285 652 285 652 486 c 0,26,27
 652 642 652 642 633 657 c 1,28,-1
 584 705 l 1,29,-1
 547 696 l 0,30,31
 497 693 497 693 459 608 c 0,32,33
 425 530 425 530 425 518 c 1,34,35
 426 465 426 465 426 407 c 0,36,37
 425 378 425 378 425 346 c 0,38,39
 425 254 425 254 423 150 c 1,40,41
 477 86 477 86 477 68 c 0,42,-1
 477 67 l 0,43,44
 477 50 477 50 461 26 c 0,45,46
 447 3 447 3 420 2 c 2,47,-1
 255 -5 l 1,48,49
 179 -36 179 -36 153.5 -36 c 128,-1,50
 128 -36 128 -36 108 -18 c 128,-1,51
 88 0 88 0 88 27 c 128,-1,52
 88 54 88 54 119 93.5 c 128,-1,53
 150 133 150 133 151 156 c 1,54,-1
 119 604 l 1,55,56
 115 637 115 637 98 664 c 1,57,-1
 57 718 l 1,58,-1
 150 848 l 1,59,60
 167 868 167 868 182 874.5 c 128,-1,61
 197 881 197 881 203 881 c 128,-1,62
 209 881 209 881 222 884 c 0,63,64
 234 887 234 887 244 887 c 0,65,66
 246 887 246 887 247 887 c 0,67,68
 256 887 256 887 264 882 c 0,69,70
 269 879 269 879 296 878 c 0,71,72
 316 878 316 878 348 880 c 0,73,74
 352 880 352 880 355 880 c 0,75,76
 423 880 423 880 423 807 c 1,77,-1
 421 762 l 1,78,-1
 469 832 l 1,79,80
 596 882 596 882 625.5 882 c 128,-1,81
 655 882 655 882 708 842.5 c 128,-1,82
 761 803 761 803 775.5 759 c 128,-1,83
 790 715 790 715 796 711 c 1,84,85
 816 724 816 724 851 770 c 128,-1,86
 886 816 886 816 920.5 851 c 128,-1,87
 955 886 955 886 1003 887.5 c 128,-1,88
 1051 889 1051 889 1087 889 c 128,-1,89
 1123 889 1123 889 1193 885.5 c 128,-1,90
 1263 882 1263 882 1337 766 c 0,91,92
 1374 709 1374 709 1385.5 656 c 128,-1,93
 1397 603 1397 603 1397 479 c 128,-1,94
 1397 355 1397 355 1390.5 306.5 c 128,-1,95
 1384 258 1384 258 1378 219 c 0,96,97
 1377 212 1377 212 1377 205 c 0,98,99
 1377 176 1377 176 1395 156 c 0,100,101
 1418 132 1418 132 1424 110 c 0,102,103
 1426 101 1426 101 1426 94 c 0,104,105
 1426 92 1426 92 1426 89 c 0,106,107
 1426 81 1426 81 1425 73 c 0,108,109
 1415 37 1415 37 1297 14 c 1,110,-1
 1211 0 l 1,111,-1
 1211 7 l 1,112,-1
 1147 -4 l 1,113,114
 1138 4 1138 4 1136 4 c 2,115,-1
 1107 1 l 1,116,117
 1075 1 1075 1 1074 33 c 1,118,-1
 1074 37 l 2,119,120
 1074 73 1074 73 1127 82 c 1,121,122
 1119 227 1119 227 1119 365 c 0,123,124
 1119 532 1119 532 1130 690 c 1,125,0
 1098 715 1098 715 1051.5 715 c 128,-1,1
EndSplineSet
Validated: 1
EndChar

StartChar: n
Encoding: 110 110 74
Width: 1224
VWidth: 1894
Flags: W
HStem: 724 156<502.979 744.774>
VStem: 146 278<92.75 646.611> 810 272<175 520.846>
LayerCount: 2
Fore
SplineSet
614 724 m 1,0,1
 495 714 495 714 420 576 c 1,2,3
 424 463 424 463 424 360 c 0,4,5
 423 350 423 350 423 340 c 0,6,7
 423 228 423 228 421 123 c 1,8,9
 442 108 442 108 468.5 92 c 128,-1,10
 495 76 495 76 495 59 c 0,11,12
 495 35 495 35 439 -9 c 0,13,14
 410 -32 410 -32 207 -32 c 2,15,-1
 201 -32 l 1,16,17
 145 -30 145 -30 122 1 c 1,18,-1
 122 4 l 1,19,-1
 114 24 l 1,20,-1
 114 29 l 1,21,-1
 125 63 l 1,22,23
 140 86 140 86 143 136 c 128,-1,24
 146 186 146 186 146 357 c 0,25,26
 146 622 146 622 135 648.5 c 128,-1,27
 124 675 124 675 90.5 697 c 128,-1,28
 57 719 57 719 57 749.5 c 128,-1,29
 57 780 57 780 99 834 c 128,-1,30
 141 888 141 888 216 888 c 128,-1,31
 291 888 291 888 321 793 c 0,32,33
 330 765 330 765 337 747 c 1,34,35
 353 759 353 759 388 787.5 c 128,-1,36
 423 816 423 816 454.5 831 c 128,-1,37
 486 846 486 846 563 863 c 128,-1,38
 640 880 640 880 709.5 880 c 128,-1,39
 779 880 779 880 877 822 c 1,40,41
 971 764 971 764 994 708 c 128,-1,42
 1017 652 1017 652 1045 587 c 1,43,-1
 1077 479 l 1,44,-1
 1082 175 l 1,45,-1
 1154 128 l 1,46,47
 1170 113 1170 113 1170.5 95.5 c 128,-1,48
 1171 78 1171 78 1155 65 c 128,-1,49
 1139 52 1139 52 1105 37.5 c 128,-1,50
 1071 23 1071 23 1025 -15 c 128,-1,51
 979 -53 979 -53 942.5 -54.5 c 128,-1,52
 906 -56 906 -56 872 -56 c 2,53,54
 834 -56 834 -56 801.5 -29.5 c 128,-1,55
 769 -3 769 -3 769 19 c 2,56,-1
 769 42 l 1,57,-1
 815 57 l 1,58,59
 810 231 810 231 810 295 c 0,60,61
 810 311 810 311 810 321 c 0,62,63
 812 345 812 345 812 353 c 0,64,65
 799 490 799 490 787 627 c 1,66,67
 753 690 753 690 746 694 c 0,68,69
 707 724 707 724 640 724 c 2,70,-1
 614 724 l 1,0,1
EndSplineSet
Validated: 1
EndChar

StartChar: o
Encoding: 111 111 75
Width: 1047
VWidth: 1894
Flags: W
HStem: -30 168<417.822 645.229> 730 152<425.682 559.592>
VStem: 719 282<267.392 567.016> 719 256<227.413 622.75>
LayerCount: 2
Fore
SplineSet
643 690 m 1,0,1
 643 690 643 690 513 730 c 1,2,3
 474 729 474 729 418 680 c 1,4,5
 346 542 346 542 346 423 c 0,6,-1
 369 303 l 0,7,8
 369 264 369 264 416 165 c 1,9,10
 474 138 474 138 571 138 c 2,11,-1
 577 138 l 2,12,13
 590 138 590 138 647 162 c 1,14,15
 719 316 719 316 719 429 c 0,16,17
 719 434 719 434 719 438 c 0,18,19
 715 554 715 554 643 690 c 1,0,1
172.5 725 m 128,-1,21
 220 778 220 778 252 798 c 128,-1,22
 284 818 284 818 372 850 c 128,-1,23
 460 882 460 882 534.5 882 c 128,-1,24
 609 882 609 882 696 853 c 128,-1,25
 783 824 783 824 831 792 c 128,-1,26
 879 760 879 760 922 713 c 128,-1,27
 965 666 965 666 974 643 c 1,28,-1
 1001 481 l 1,29,-1
 1001 480 l 2,30,31
 1001 448 1001 448 988 422 c 128,-1,32
 975 396 975 396 975 352 c 128,-1,33
 975 308 975 308 939.5 221 c 128,-1,34
 904 134 904 134 865 78 c 0,35,36
 793 -30 793 -30 628 -30 c 128,-1,37
 463 -30 463 -30 352 12 c 128,-1,38
 241 54 241 54 188 92 c 128,-1,39
 135 130 135 130 94 223 c 1,40,-1
 48 339 l 1,41,-1
 59 458 l 1,42,43
 74 552 74 552 99.5 612 c 128,-1,20
 125 672 125 672 172.5 725 c 128,-1,21
EndSplineSet
Validated: 1
EndChar

StartChar: p
Encoding: 112 112 76
Width: 1149
VWidth: 1894
Flags: W
HStem: -370 1220<141.593 387.234> 22 104<467.094 734.373> 764 158<518.011 749.128>
VStem: 110 301<-253.445 77.9944> 141 282<172.565 631> 808 291<296.734 680.896>
LayerCount: 2
Fore
SplineSet
94 766 m 2,0,1
 94 850 94 850 229 850 c 0,2,3
 301 850 301 850 339 834 c 1,4,-1
 388 819 l 1,5,6
 402 820 402 820 418.5 823.5 c 128,-1,7
 435 827 435 827 486.5 865.5 c 128,-1,8
 538 904 538 904 573 913 c 128,-1,9
 608 922 608 922 696.5 922 c 128,-1,10
 785 922 785 922 872.5 884 c 128,-1,11
 960 846 960 846 1027 734 c 128,-1,12
 1094 622 1094 622 1099 499 c 1,13,-1
 1099 484 l 2,14,15
 1099 369 1099 369 1034 257.5 c 128,-1,16
 969 146 969 146 946 122 c 128,-1,17
 923 98 923 98 876 71 c 128,-1,18
 829 44 829 44 784 32 c 0,19,20
 747 22 747 22 691 22 c 0,21,22
 679 22 679 22 667 22 c 0,23,24
 595 24 595 24 527 47 c 128,-1,25
 459 70 459 70 420 78 c 1,26,27
 416 -76 416 -76 411 -228 c 1,28,29
 458 -253 458 -253 466 -262 c 1,30,-1
 480 -286 l 1,31,-1
 480 -290 l 2,32,33
 480 -310 480 -310 446 -345 c 1,34,35
 430 -370 430 -370 377 -370 c 0,36,37
 305 -370 305 -370 233 -370 c 1,38,-1
 108 -380 l 1,39,-1
 107 -380 l 2,40,41
 29 -380 29 -380 29 -324 c 2,42,-1
 29 -322 l 2,43,44
 29 -280 29 -280 68.5 -255 c 128,-1,45
 108 -230 108 -230 110 -213 c 128,-1,46
 112 -196 112 -196 113.5 -73 c 128,-1,47
 115 50 115 50 128 118 c 128,-1,48
 141 186 141 186 141 415 c 128,-1,49
 141 644 141 644 120 701 c 1,50,51
 96 719 96 719 94 761 c 1,52,-1
 94 766 l 2,0,1
685 764 m 24,53,54
 588 764 588 764 509 714 c 0,55,-1
 429 631 l 1,56,-1
 423 192 l 1,57,58
 518 144 518 144 558.5 136 c 128,-1,59
 599 128 599 128 629 126 c 0,60,61
 632 126 632 126 634 125 c 0,62,63
 662 124 662 124 687 138 c 0,64,65
 715 152 715 152 735 171 c 1,66,67
 808 329 808 329 808 471 c 128,-1,68
 808 613 808 613 745 743 c 1,69,70
 706 764 706 764 685 764 c 24,53,54
EndSplineSet
Validated: 1
EndChar

StartChar: q
Encoding: 113 113 77
Width: 1160
VWidth: 1894
Flags: W
HStem: -7 153<375.068 510.098> 856 20G<478.75 556.25>
LayerCount: 2
Fore
SplineSet
915 24 m 1,0,1
 917 47 917 47 954.5 86 c 128,-1,2
 992 125 992 125 1004 132.5 c 128,-1,3
 1016 140 1016 140 1027 140 c 2,4,-1
 1030 140 l 1,5,-1
 1129 105 l 1,6,-1
 1120 26 l 2,7,8
 1113 -38 1113 -38 1099 -70 c 0,9,10
 1084 -103 1084 -103 1025 -236.5 c 128,-1,11
 966 -370 966 -370 937.5 -387.5 c 128,-1,12
 909 -405 909 -405 891 -405 c 0,13,14
 818 -405 818 -405 786 -396 c 0,15,16
 755 -387 755 -387 722 -381 c 1,17,18
 697 -347 697 -347 672 -312 c 1,19,20
 651 -110 651 -110 638 90 c 1,21,22
 623 66 623 66 605.5 42 c 128,-1,23
 588 18 588 18 559.5 6 c 128,-1,24
 531 -6 531 -6 463 -7 c 1,25,-1
 457 -7 l 2,26,27
 392 -7 392 -7 271 26 c 0,28,29
 155 58 155 58 106.5 113 c 128,-1,30
 58 168 58 168 53 236 c 2,31,-1
 42 382 l 1,32,-1
 55 504 l 2,33,34
 58 536 58 536 93 608 c 0,35,36
 129 683 129 683 161 720 c 128,-1,37
 193 757 193 757 275.5 807.5 c 128,-1,38
 358 858 358 858 399 867 c 128,-1,39
 440 876 440 876 517.5 876 c 128,-1,40
 595 876 595 876 669 841 c 1,41,-1
 758 806 l 1,42,-1
 852 823 l 1,43,-1
 855 823 l 2,44,45
 919 823 919 823 919 753 c 0,46,-1
 919 751 l 0,47,48
 919 630 919 630 905 522 c 1,49,-1
 896 416 l 1,50,51
 899 399 899 399 906 241 c 2,52,-1
 915 24 l 1,0,1
597 300 m 1,53,54
 613 474 613 474 634 645 c 1,55,56
 591 680 591 680 590 682 c 0,57,58
 563 713 563 713 562 718 c 1,59,-1
 413 706 l 2,60,61
 368 702 368 702 332 687 c 1,62,63
 274 547 274 547 274 418.5 c 128,-1,64
 274 290 274 290 326 170 c 1,65,66
 333 167 333 167 354 158 c 1,67,-1
 423 146 l 1,68,-1
 443 147 l 1,69,70
 511 176 511 176 557 244 c 0,71,72
 586 286 586 286 597 300 c 1,53,54
EndSplineSet
Validated: 1
EndChar

StartChar: r
Encoding: 114 114 78
Width: 852
VWidth: 1894
Flags: W
HStem: 836 20G<194.5 327>
VStem: 165 282<164 648>
LayerCount: 2
Fore
SplineSet
463 16 m 1,0,1
 398 25 398 25 364.5 25 c 128,-1,2
 331 25 331 25 303 18.5 c 128,-1,3
 275 12 275 12 254.5 12 c 128,-1,4
 234 12 234 12 174 21 c 0,5,6
 112 30 112 30 89 70 c 1,7,-1
 89 76 l 2,8,9
 89 101 89 101 131 135 c 2,10,-1
 165 164 l 1,11,-1
 165 648 l 1,12,-1
 164 648 l 2,13,14
 125 648 125 648 91 681 c 128,-1,15
 57 714 57 714 57 732 c 128,-1,16
 57 750 57 750 68 772 c 0,17,18
 111 856 111 856 278 856 c 2,19,-1
 309 856 l 2,20,21
 345 856 345 856 387 832 c 1,22,-1
 410 818 l 1,23,-1
 538 910 l 1,24,-1
 541 910 l 1,25,26
 580 930 580 930 646.5 930 c 128,-1,27
 713 930 713 930 755.5 903.5 c 128,-1,28
 798 877 798 877 798 783 c 0,29,30
 798 610 798 610 675 610 c 0,31,32
 628 610 628 610 590.5 635 c 128,-1,33
 553 660 553 660 543 662 c 1,34,-1
 523 662 l 1,35,-1
 507 671 l 1,36,37
 490 669 490 669 443 640 c 1,38,39
 447 527 447 527 447 417 c 0,40,41
 447 407 447 407 447 395 c 0,42,43
 447 273 447 273 443 152 c 1,44,45
 487 129 487 129 488 128 c 0,46,47
 487 119 487 119 497 88 c 1,48,-1
 497 74 l 1,49,50
 497 16 497 16 465 16 c 2,51,-1
 463 16 l 1,0,1
EndSplineSet
Validated: 1
EndChar

StartChar: s
Encoding: 115 115 79
Width: 909
VWidth: 1894
Flags: W
HStem: 723 165<377 606.837>
VStem: 103 293<542.703 678> 545 268<162.906 324.597>
LayerCount: 2
Fore
SplineSet
780 894 m 0,0,1
 852 894 852 894 852 834 c 0,2,3
 852 805 852 805 806.5 731 c 128,-1,4
 761 657 761 657 723 637.5 c 128,-1,5
 685 618 685 618 670 618 c 2,6,-1
 651 618 l 1,7,-1
 647 620 l 1,8,9
 620 629 620 629 614.5 659 c 128,-1,10
 609 689 609 689 605 695 c 1,11,12
 594 700 594 700 564 711.5 c 128,-1,13
 534 723 534 723 509 723 c 1,14,15
 396 698 396 698 396 609 c 0,16,17
 396 598 396 598 398 587 c 1,18,-1
 414 542 l 1,19,20
 428 542 428 542 498 542 c 128,-1,21
 568 542 568 542 653.5 498.5 c 128,-1,22
 739 455 739 455 776 398.5 c 128,-1,23
 813 342 813 342 813 236 c 128,-1,24
 813 130 813 130 780 89 c 1,25,26
 702 -38 702 -38 592 -38 c 1,27,-1
 450 -16 l 1,28,-1
 251 28 l 1,29,-1
 175 -56 l 1,30,31
 156 -72 156 -72 137 -72 c 128,-1,32
 118 -72 118 -72 88.5 -58 c 128,-1,33
 59 -44 59 -44 59 -7 c 0,34,35
 59 170 59 170 76.5 221 c 128,-1,36
 94 272 94 272 116.5 286 c 128,-1,37
 139 300 139 300 161 300 c 0,38,39
 207 300 207 300 294 205 c 1,40,41
 351 147 351 147 371 140 c 0,42,43
 406 126 406 126 447 118 c 1,44,45
 545 194 545 194 545 222 c 0,46,47
 545 296 545 296 453 372 c 1,48,-1
 262 425 l 1,49,-1
 259 425 l 1,50,51
 227 429 227 429 164 463 c 0,52,53
 103 496 103 496 103 541 c 1,54,-1
 103 604 l 1,55,-1
 114 678 l 1,56,57
 121 702 121 702 159.5 757 c 128,-1,58
 198 812 198 812 255.5 845 c 128,-1,59
 313 878 313 878 337 883 c 128,-1,60
 361 888 361 888 393 888 c 0,61,62
 510 888 510 888 582 872 c 128,-1,63
 654 856 654 856 672 856 c 0,64,65
 672 855 672 855 675 856 c 0,66,67
 692 862 692 862 715 876 c 0,68,69
 743 894 743 894 780 894 c 0,0,1
EndSplineSet
EndChar

StartChar: t
Encoding: 116 116 80
Width: 721
VWidth: 1894
Flags: W
HStem: -19 150<502.664 643.506> 515 153<114 193.16> 527 187<528 643.728> 1353 20G<374.5 423.5>
VStem: 205 317<161.781 465.215>
LayerCount: 2
Fore
SplineSet
395 1373 m 0,0,1
 400 1373 400 1373 405 1373 c 0,2,3
 442 1373 442 1373 490 1357 c 0,4,5
 545 1338 545 1338 546 1315 c 0,6,7
 546 1150 546 1150 528 714 c 1,8,9
 547 713 547 713 567.5 708 c 128,-1,10
 588 703 588 703 623.5 685 c 128,-1,11
 659 667 659 667 666 617 c 1,12,-1
 668 612 l 1,13,-1
 668 608 l 2,14,15
 668 564 668 564 656.5 547.5 c 128,-1,16
 645 531 645 531 546 527 c 2,17,-1
 522 526 l 1,18,19
 513 341 513 341 502 156 c 1,20,21
 523 139 523 139 576 131 c 0,22,23
 661 118 661 118 661 67 c 2,24,-1
 661 66 l 2,25,26
 661 42 661 42 634.5 16 c 128,-1,27
 608 -10 608 -10 582.5 -19 c 128,-1,28
 557 -28 557 -28 493 -28 c 128,-1,29
 429 -28 429 -28 372.5 7 c 128,-1,30
 316 42 316 42 289.5 74 c 128,-1,31
 263 106 263 106 239.5 170 c 128,-1,32
 216 234 216 234 210.5 274.5 c 128,-1,33
 205 315 205 315 205 346 c 1,34,-1
 224 504 l 1,35,36
 213 510 213 510 167.5 515 c 128,-1,37
 122 520 122 520 55 550 c 1,38,-1
 55 636 l 1,39,-1
 114 668 l 1,40,-1
 241 691 l 1,41,-1
 241 697 l 1,42,-1
 231 756 l 1,43,44
 189 765 189 765 179 846 c 1,45,-1
 179 874 l 2,46,47
 179 906 179 906 193 948 c 128,-1,48
 207 990 207 990 232 1144.5 c 128,-1,49
 257 1299 257 1299 277 1329 c 1,50,51
 307 1358 307 1358 350 1360 c 1,52,-1
 352 1360 l 1,53,54
 354 1370 354 1370 395 1373 c 0,0,1
EndSplineSet
Validated: 1
EndChar

StartChar: u
Encoding: 117 117 81
Width: 1158
Flags: W
HStem: -36 138<432.407 608.763> 852 20G<171 350 893.75 937.25>
VStem: 57 346<191.349 773.831> 72 331<729.169 834.5> 94 297<147.421 850.906>
LayerCount: 2
Fore
SplineSet
649 183 m 24,0,1
 721 262 721 262 722 273 c 0,2,3
 722 274 722 274 722 278 c 0,4,5
 722 308 722 308 733 541 c 0,6,7
 738 654 738 654 744 665 c 1,8,9
 737 667 737 667 720 669 c 0,10,11
 716 669 716 669 687 698 c 0,12,13
 684 700 684 700 684 707 c 0,14,15
 684 709 684 709 684 711 c 0,16,17
 684 722 684 722 688 740 c 0,18,19
 696 771 696 771 710 782 c 0,20,21
 732 800 732 800 743 807.5 c 128,-1,22
 754 815 754 815 813 856.5 c 128,-1,23
 872 898 872 898 915.5 898 c 128,-1,24
 959 898 959 898 984 879 c 0,25,26
 1056 823 1056 823 1059 811 c 0,27,28
 1059 806 1059 806 1059 798.5 c 128,-1,29
 1059 791 1059 791 1059 779 c 1,30,31
 1059 660 1059 660 1017 178 c 1,32,-1
 1114 80 l 1,33,-1
 1064 32 l 2,34,35
 1034 3 1034 3 1023 2 c 0,36,37
 1010 1 1010 1 994 1 c 0,38,39
 882 1 882 1 841 94 c 0,40,41
 832 114 832 114 825 123 c 1,42,43
 794 102 794 102 746 53 c 1,44,45
 657 -36 657 -36 475 -36 c 128,-1,46
 293 -36 293 -36 219.5 19.5 c 128,-1,47
 146 75 146 75 122 117.5 c 128,-1,48
 98 160 98 160 94 294 c 1,49,-1
 98 560 l 1,50,51
 96 650 96 650 76.5 680 c 128,-1,52
 57 710 57 710 57 726 c 2,53,-1
 57 727 l 1,54,-1
 72 776 l 1,55,56
 119 872 119 872 223 872 c 0,57,58
 230 872 230 872 237 872 c 2,59,-1
 350 865 l 1,60,61
 403 863 403 863 403 836 c 0,62,63
 403 836 403 836 403 835 c 1,64,-1
 403 834 l 1,65,66
 391 645 391 645 391 505 c 0,67,68
 391 494 391 494 391 484 c 0,69,70
 391 221 391 221 432 145 c 1,71,72
 484 102 484 102 508 102 c 0,73,74
 512 103 512 103 515 104 c 0,75,76
 537 112 537 112 575 126 c 0,77,78
 608 139 608 139 649 183 c 24,0,1
EndSplineSet
Validated: 1
EndChar

StartChar: v
Encoding: 118 118 82
Width: 1201
VWidth: 1894
Flags: W
HStem: 836 20G<238 275.5>
VStem: 908 237<654.837 820.069>
LayerCount: 2
Fore
SplineSet
658 356 m 1,0,1
 705 420 705 420 806.5 550 c 128,-1,2
 908 680 908 680 908 744 c 128,-1,3
 908 808 908 808 919 826 c 128,-1,4
 930 844 930 844 982 844 c 0,5,6
 1145 844 1145 844 1145 742 c 0,7,8
 1145 690 1145 690 1116.5 669.5 c 128,-1,9
 1088 649 1088 649 1016.5 536.5 c 128,-1,10
 945 424 945 424 932 407 c 128,-1,11
 919 390 919 390 910.5 362 c 128,-1,12
 902 334 902 334 828 238 c 128,-1,13
 754 142 754 142 728 97.5 c 128,-1,14
 702 53 702 53 671.5 29.5 c 128,-1,15
 641 6 641 6 620 6 c 0,16,17
 559 6 559 6 521 52 c 1,18,-1
 464 133 l 1,19,20
 412 226 412 226 293 370 c 1,21,22
 176 516 176 516 153.5 568.5 c 128,-1,23
 131 621 131 621 99.5 635 c 128,-1,24
 68 649 68 649 59.5 664.5 c 128,-1,25
 51 680 51 680 51 725 c 0,26,27
 52 770 52 770 80 806 c 0,28,29
 110 842 110 842 203 853 c 0,30,31
 228 856 228 856 248 856 c 0,32,33
 303 856 303 856 324 834 c 0,34,35
 352 804 352 804 422 703.5 c 128,-1,36
 492 603 492 603 658 356 c 1,0,1
EndSplineSet
Validated: 1
EndChar

StartChar: w
Encoding: 119 119 83
Width: 1562
VWidth: 1894
Flags: W
HStem: 848 11G<220 382.5 1270 1441.5>
LayerCount: 2
Fore
SplineSet
966 308 m 1,0,1
 1084 528 1084 528 1173 760 c 1,2,3
 1160 805 1160 805 1158 808 c 1,4,-1
 1159 814 l 2,5,6
 1168 868 1168 868 1372 868 c 0,7,8
 1511 868 1511 868 1511 801 c 0,9,-1
 1511 800 l 0,10,11
 1511 770 1511 770 1485.5 736 c 128,-1,12
 1460 702 1460 702 1424.5 613 c 128,-1,13
 1389 524 1389 524 1311 360 c 128,-1,14
 1233 196 1233 196 1210.5 134 c 128,-1,15
 1188 72 1188 72 1139 40 c 128,-1,16
 1090 8 1090 8 1047 8 c 128,-1,17
 1004 8 1004 8 976 54 c 128,-1,18
 948 100 948 100 889 152 c 128,-1,19
 830 204 830 204 805 218 c 1,20,21
 785 198 785 198 758 145 c 0,22,23
 712 58 712 58 702.5 50 c 128,-1,24
 693 42 693 42 653.5 29 c 128,-1,25
 614 16 614 16 577 15 c 1,26,-1
 574 15 l 1,27,28
 572 15 572 15 571 15 c 0,29,30
 533 16 533 16 506 34 c 0,31,32
 475 54 475 54 422 149 c 128,-1,33
 369 244 369 244 345 278 c 128,-1,34
 321 312 321 312 305 350 c 128,-1,35
 289 388 289 388 221 492 c 128,-1,36
 153 596 153 596 146 637 c 0,37,38
 137 690 137 690 115 698 c 1,39,40
 54 725 54 725 52.5 757.5 c 128,-1,41
 51 790 51 790 51 803 c 0,42,43
 51 834 51 834 98.5 844 c 128,-1,44
 146 854 146 854 294 859 c 0,45,46
 308 859 308 859 321 859 c 0,47,48
 444 859 444 859 463 817 c 1,49,-1
 467 811 l 1,50,-1
 452 778 l 1,51,52
 438 766 438 766 418 756 c 1,53,54
 540 460 540 460 665 309 c 1,55,56
 701 358 701 358 751 428 c 128,-1,57
 801 498 801 498 841 498 c 128,-1,58
 881 498 881 498 918 439 c 128,-1,59
 955 380 955 380 966 308 c 1,0,1
EndSplineSet
Validated: 1
EndChar

StartChar: x
Encoding: 120 120 84
Width: 1023
VWidth: 1894
Flags: W
HStem: 854 4G<118.5 258.5 639 858 894 934.5>
VStem: 55 309<647.358 846.472>
LayerCount: 2
Fore
SplineSet
552 592 m 1,0,-1
 629 706 l 1,1,2
 608 756 608 756 608 793 c 0,3,4
 608 827 608 827 639 862 c 1,5,-1
 743 874 l 1,6,-1
 858 865 l 1,7,8
 884 868 884 868 904 868 c 0,9,10
 965 868 965 868 965 835 c 0,11,12
 965 824 965 824 956 811 c 0,13,14
 926 763 926 763 882 737 c 1,15,16
 884 732 884 732 884 729 c 0,17,18
 884 710 884 710 642 365 c 1,19,20
 667 338 667 338 708 300.5 c 128,-1,21
 749 263 749 263 785 222 c 128,-1,22
 821 181 821 181 872 152.5 c 128,-1,23
 923 124 923 124 944 100.5 c 128,-1,24
 965 77 965 77 965 38.5 c 128,-1,25
 965 0 965 0 937 -18 c 1,26,-1
 937 -22 l 1,27,-1
 902 -30 l 1,28,-1
 896 -30 l 2,29,30
 881 -25 881 -25 858 -25 c 0,31,32
 846 -25 846 -25 834 -26 c 0,33,34
 803 -29 803 -29 783 -29 c 0,35,36
 757 -29 757 -29 751 -24 c 0,37,38
 715 3 715 3 677 29 c 0,39,40
 634 61 634 61 625 83 c 0,41,42
 622 90 622 90 565 128 c 0,43,44
 542 143 542 143 518 192 c 1,45,46
 471 134 471 134 424 75 c 1,47,48
 454 48 454 48 454 38 c 0,49,-1
 454 37 l 2,50,-1
 454 34 l 1,51,52
 428 -20 428 -20 373 -25 c 2,53,-1
 218 -40 l 1,54,-1
 166 -36 l 1,55,-1
 162 -34 l 1,56,57
 107 -16 107 -16 107 22 c 0,58,-1
 107 23 l 2,59,-1
 107 25 l 1,60,-1
 121 65 l 1,61,62
 137 90 137 90 161 102.5 c 128,-1,63
 185 115 185 115 239 181 c 0,64,65
 338 304 338 304 339 334 c 0,66,67
 339 344 339 344 335 353.5 c 128,-1,68
 331 363 331 363 287 401.5 c 128,-1,69
 243 440 243 440 167.5 545 c 128,-1,70
 92 650 92 650 85.5 678 c 128,-1,71
 79 706 79 706 67 735 c 128,-1,72
 55 764 55 764 55 788 c 0,73,74
 55 858 55 858 182 858 c 2,75,-1
 237 858 l 2,76,77
 280 858 280 858 337.5 846.5 c 128,-1,78
 395 835 395 835 395 800 c 0,79,80
 395 798 395 798 395 797 c 0,81,82
 395 763 395 763 377 738 c 0,83,84
 364 721 364 721 364 704 c 0,85,86
 364 699 364 699 365 694 c 0,87,88
 373 657 373 657 407 592 c 0,89,90
 445 519 445 519 486 516 c 1,91,92
 519 554 519 554 552 592 c 1,0,-1
EndSplineSet
Validated: 1
EndChar

StartChar: y
Encoding: 121 121 85
Width: 1058
VWidth: 1894
Flags: W
HStem: -379 239<254.139 362.635> 848 20G<284.5 293.5>
LayerCount: 2
Fore
SplineSet
195 246 m 1,0,1
 159 364 159 364 159 505 c 2,2,-1
 159 614 l 1,3,-1
 114 648 l 2,4,5
 53 693 53 693 51 729 c 1,6,-1
 51 734 l 2,7,8
 51 770 51 770 88.5 807 c 128,-1,9
 126 844 126 844 203 856 c 128,-1,10
 280 868 280 868 289 868 c 128,-1,11
 298 868 298 868 362.5 853 c 128,-1,12
 427 838 427 838 427 796 c 128,-1,13
 427 754 427 754 392.5 733 c 128,-1,14
 358 712 358 712 354 682.5 c 128,-1,15
 350 653 350 653 350 615 c 1,16,-1
 375 302 l 1,17,18
 388 225 388 225 456.5 197 c 128,-1,19
 525 169 525 169 566 158 c 1,20,21
 643 432 643 432 686 664 c 1,22,-1
 667 665 l 1,23,24
 635 666 635 666 634 730 c 0,25,26
 634 731 634 731 634 732 c 0,27,28
 634 761 634 761 680 793.5 c 128,-1,29
 726 826 726 826 798 838 c 128,-1,30
 870 850 870 850 902 850 c 0,31,32
 1008 850 1008 850 1008 789 c 0,33,-1
 1008 788 l 2,34,-1
 1008 786 l 2,35,36
 1008 740 1008 740 987 709 c 128,-1,37
 966 678 966 678 966 653 c 1,38,-1
 915 388 l 1,39,40
 915 284 915 284 865 84 c 0,41,42
 817 -108 817 -108 717.5 -231 c 128,-1,43
 618 -354 618 -354 514 -367 c 128,-1,44
 410 -380 410 -380 391 -380 c 128,-1,45
 372 -380 372 -380 349.5 -379 c 128,-1,46
 327 -378 327 -378 244 -329 c 128,-1,47
 161 -280 161 -280 145 -262 c 128,-1,48
 129 -244 129 -244 129 -227 c 128,-1,49
 129 -210 129 -210 139.5 -185 c 128,-1,50
 150 -160 150 -160 166 -150 c 128,-1,51
 182 -140 182 -140 222.5 -140 c 128,-1,52
 263 -140 263 -140 289 -157 c 128,-1,53
 315 -174 315 -174 317.5 -166.5 c 128,-1,54
 320 -159 320 -159 364 -169 c 1,55,56
 422 -129 422 -129 456.5 -91 c 128,-1,57
 491 -53 491 -53 521 30 c 1,58,59
 487 43 487 43 403.5 67 c 128,-1,60
 320 91 320 91 269 144.5 c 128,-1,61
 218 198 218 198 197 246 c 1,62,-1
 195 246 l 1,0,1
EndSplineSet
Validated: 1
EndChar

StartChar: z
Encoding: 122 122 86
Width: 977
VWidth: 1894
Flags: W
HStem: -390 290<694.449 828.142> 846 20G<124 382.529 733.25 803.75>
VStem: 100 178.5<602.063 675.934>
LayerCount: 2
Fore
SplineSet
480 658 m 1,0,1
 452 661 452 661 425 664 c 1,2,-1
 289 676 l 1,3,4
 283 674 283 674 278.5 658 c 128,-1,5
 274 642 274 642 229.5 598 c 128,-1,6
 185 554 185 554 155 554 c 0,7,8
 101 554 101 554 100 671 c 1,9,-1
 100 768 l 2,10,11
 100 834 100 834 124 856 c 1,12,-1
 179 866 l 1,13,-1
 525 832 l 1,14,15
 553 833 553 833 625.5 858.5 c 128,-1,16
 698 884 698 884 768.5 884 c 128,-1,17
 839 884 839 884 881 859.5 c 128,-1,18
 923 835 923 835 923 794.5 c 128,-1,19
 923 754 923 754 867 729 c 1,20,21
 775 558 775 558 680 388 c 1,22,23
 701 354 701 354 701 337 c 0,24,25
 701 293 701 293 616 279 c 1,26,27
 535 66 535 66 389 -220 c 1,28,-1
 457 -216 l 2,29,30
 536 -211 536 -211 566 -194 c 0,31,32
 598 -176 598 -176 640.5 -166 c 128,-1,33
 683 -156 683 -156 718.5 -128 c 128,-1,34
 754 -100 754 -100 792 -100 c 128,-1,35
 830 -100 830 -100 853 -121 c 128,-1,36
 876 -142 876 -142 876 -180 c 1,37,-1
 865 -268 l 1,38,39
 850 -333 850 -333 810 -361.5 c 128,-1,40
 770 -390 770 -390 733 -390 c 2,41,-1
 720 -390 l 1,42,43
 674 -388 674 -388 654 -363.5 c 128,-1,44
 634 -339 634 -339 624 -336 c 1,45,-1
 349 -379 l 1,46,47
 222 -394 222 -394 159 -394 c 0,48,49
 39 -394 39 -394 39 -325 c 0,50,51
 39 -319 39 -319 40 -312 c 0,52,53
 60 -168 60 -168 182 87 c 1,54,55
 259 211 259 211 267 229 c 1,56,-1
 272 267 l 1,57,58
 268 290 268 290 267 300 c 0,59,60
 267 354 267 354 335 393 c 0,61,62
 373 416 373 416 377 428 c 0,63,64
 406 542 406 542 480 658 c 1,0,1
EndSplineSet
Validated: 1
EndChar

StartChar: braceleft
Encoding: 123 123 87
Width: 713
VWidth: 1894
Flags: W
HStem: -242 100<783.224 819.739> 1432 136<604.736 797.204>
VStem: 280 327<925.776 1410.22> 280.5 311.5<-67.8918 483.112> 300 302<804 1112.22>
LayerCount: 2
Fore
SplineSet
592 179 m 128,-1,1
 592 50 592 50 590 -78 c 1,2,-1
 839 -142 l 1,3,-1
 832 -166 l 1,4,5
 811 -242 811 -242 746 -242 c 1,6,-1
 504 -236 l 1,7,8
 410 -229 410 -229 386 -207 c 1,9,-1
 304 -69 l 1,10,11
 287 -35 287 -35 280.5 186 c 128,-1,12
 274 407 274 407 270.5 438 c 128,-1,13
 267 469 267 469 239 484 c 1,14,-1
 221 484 l 2,15,16
 205 484 205 484 180 499 c 128,-1,17
 155 514 155 514 133.5 544 c 128,-1,18
 112 574 112 574 112 597.5 c 128,-1,19
 112 621 112 621 136 649 c 1,20,-1
 300 804 l 1,21,-1
 280 1234 l 1,22,23
 280 1334 280 1334 285.5 1361 c 128,-1,24
 291 1388 291 1388 328 1447 c 128,-1,25
 365 1506 365 1506 486.5 1537 c 128,-1,26
 608 1568 608 1568 680.5 1568 c 128,-1,27
 753 1568 753 1568 785.5 1536 c 128,-1,28
 818 1504 818 1504 820 1486 c 1,29,-1
 821 1465 l 1,30,31
 821 1432 821 1432 791 1432 c 0,32,33
 683 1432 683 1432 602 1390 c 1,34,35
 606 1267 606 1267 607 1145 c 0,36,37
 606 1133 606 1133 606 1120 c 0,38,39
 606 985 606 985 602 846 c 1,40,41
 572 756 572 756 509 696 c 128,-1,42
 446 636 446 636 443 635 c 1,43,-1
 441 628 l 1,44,45
 582 578 582 578 587 443 c 128,-1,0
 592 308 592 308 592 179 c 128,-1,1
EndSplineSet
Validated: 1
EndChar

StartChar: bar
Encoding: 124 124 88
Width: 461
VWidth: 1894
Flags: W
VStem: 118 186<850.429 1585.86> 135.5 170.5<832.209 1294.83> 153 166<-100 352.1>
LayerCount: 2
Fore
SplineSet
222 -402 m 128,-1,1
 206 -402 206 -402 178.5 -384 c 128,-1,2
 151 -366 151 -366 136 -329 c 0,3,4
 123 -297 123 -297 123 -129 c 0,5,6
 124 -101 124 -101 124 -69 c 0,7,8
 126 154 126 154 139.5 233 c 128,-1,9
 153 312 153 312 153 407 c 128,-1,10
 153 502 153 502 135.5 785 c 128,-1,11
 118 1068 118 1068 118 1310 c 128,-1,12
 118 1552 118 1552 132 1587 c 128,-1,13
 146 1622 146 1622 173 1643 c 128,-1,14
 200 1664 200 1664 217 1664 c 128,-1,15
 234 1664 234 1664 267 1650 c 0,16,17
 328 1623 328 1623 328 1525 c 0,18,19
 328 1523 328 1523 328 1522 c 2,20,-1
 328 1516 l 2,21,22
 328 1462 328 1462 313 1412 c 1,23,-1
 304 1214 l 1,24,-1
 306 1012 l 1,25,-1
 306 962 l 1,26,-1
 293 732 l 1,27,-1
 319 254 l 1,28,-1
 319 208 l 1,29,-1
 315 6 l 1,30,-1
 331 -260 l 1,31,32
 331 -320 331 -320 317.5 -348 c 128,-1,33
 304 -376 304 -376 271 -389 c 128,-1,0
 238 -402 238 -402 222 -402 c 128,-1,1
EndSplineSet
Validated: 1
EndChar

StartChar: asciitilde
Encoding: 126 126 89
Width: 1453
VWidth: 1894
Flags: W
HStem: 598 326<378.639 593.794>
LayerCount: 2
Fore
SplineSet
1324 737 m 0,0,1
 1324 697 1324 697 1309 645.5 c 128,-1,2
 1294 594 1294 594 1228.5 511 c 128,-1,3
 1163 428 1163 428 1160 409 c 1,4,5
 1139 331 1139 331 1051 296 c 0,6,7
 1031 288 1031 288 987 288 c 0,8,9
 880 288 880 288 832 370 c 0,10,11
 811 407 811 407 713 478 c 0,12,13
 616 548 616 548 525 586 c 0,14,15
 497 597 497 597 468 598 c 0,16,17
 402 598 402 598 334 539 c 0,18,19
 234 454 234 454 217.5 446 c 128,-1,20
 201 438 201 438 190 438 c 0,21,22
 116 438 116 438 115 546 c 2,23,-1
 115 576 l 2,24,25
 115 662 115 662 178 718.5 c 128,-1,26
 241 775 241 775 337 849.5 c 128,-1,27
 433 924 433 924 472 924 c 0,28,29
 559 924 559 924 626 867 c 128,-1,30
 693 810 693 810 829.5 726.5 c 128,-1,31
 966 643 966 643 975 613 c 0,32,33
 978 604 978 604 985 604 c 0,34,35
 1002 604 1002 604 1043 658 c 0,36,37
 1167 820 1167 820 1245.5 820 c 128,-1,38
 1324 820 1324 820 1324 737 c 0,0,1
EndSplineSet
Validated: 1
EndChar

StartChar: cent
Encoding: 162 162 90
Width: 1163
VWidth: 1894
Flags: W
HStem: -46 148<563.069 756.807> 116 208<986 1081.34>
VStem: 33 210<259.139 500.063> 670 203<938.768 1193.83>
LayerCount: 2
Fore
SplineSet
1056 914 m 0,0,1
 1120 914 1120 914 1120 850 c 0,2,-1
 1120 848 l 0,3,4
 1120 759 1120 759 1023 673 c 0,5,6
 997 650 997 650 963.5 650 c 128,-1,7
 930 650 930 650 913.5 665 c 128,-1,8
 897 680 897 680 866 716 c 128,-1,9
 835 752 835 752 791 752 c 2,10,-1
 787 752 l 2,11,12
 759 752 759 752 733 668 c 128,-1,13
 707 584 707 584 679 523 c 128,-1,14
 651 462 651 462 608 328 c 0,15,16
 562 185 562 185 562 130 c 0,17,18
 562 129 562 129 562 128 c 0,19,20
 562 123 562 123 562 119 c 1,21,22
 596 102 596 102 658 102 c 128,-1,23
 720 102 720 102 758 119 c 128,-1,24
 796 136 796 136 853 215 c 128,-1,25
 910 294 910 294 932 307 c 128,-1,26
 954 320 954 320 980 322 c 1,27,-1
 986 324 l 1,28,-1
 992 324 l 1,29,30
 1019 322 1019 322 1069.5 288 c 128,-1,31
 1120 254 1120 254 1120 202 c 128,-1,32
 1120 150 1120 150 1104 137 c 128,-1,33
 1088 124 1088 124 1046 116 c 128,-1,34
 1004 108 1004 108 930 46 c 128,-1,35
 856 -16 856 -16 810.5 -30 c 128,-1,36
 765 -44 765 -44 640 -46 c 1,37,-1
 506 -50 l 1,38,-1
 489 -88 l 1,39,40
 452 -276 452 -276 375 -378 c 0,41,42
 362 -395 362 -395 340 -395 c 2,43,-1
 334 -395 l 1,44,-1
 245 -387 l 1,45,-1
 245 -331 l 2,46,47
 245 -220 245 -220 293 -78 c 1,48,-1
 310 -10 l 1,49,-1
 283 8 l 1,50,51
 62 164 62 164 33 297 c 1,52,-1
 29 508 l 1,53,-1
 120 634 l 2,54,55
 208 757 208 757 320 829 c 0,56,57
 432 900 432 900 518.5 909 c 128,-1,58
 605 918 605 918 621.5 934 c 128,-1,59
 638 950 638 950 670 1072 c 128,-1,60
 702 1194 702 1194 733.5 1216 c 128,-1,61
 765 1238 765 1238 803 1238 c 128,-1,62
 841 1238 841 1238 857 1222 c 128,-1,63
 873 1206 873 1206 873 1164 c 128,-1,64
 873 1122 873 1122 860 1064 c 128,-1,65
 847 1006 847 1006 843 986 c 1,66,-1
 839 951 l 1,67,-1
 835 928 l 1,68,-1
 847 914 l 1,69,-1
 868 900 l 1,70,-1
 960 870 l 1,71,-1
 992 890 l 1,72,73
 1026 914 1026 914 1056 914 c 0,0,1
377 189 m 8,74,75
 386 204 386 204 443 375 c 0,76,77
 499 542 499 542 532.5 628 c 128,-1,78
 566 714 566 714 566 732 c 128,-1,79
 566 750 566 750 557 750 c 0,80,81
 536 750 536 750 505 732 c 0,82,83
 458 704 458 704 386 627 c 0,84,85
 382 623 382 623 279 492 c 0,86,87
 243 445 243 445 243 391 c 0,88,89
 243 343 243 343 271 288 c 0,90,91
 328 176 328 176 359 176 c 0,92,93
 370 176 370 176 377 189 c 8,74,75
EndSplineSet
Validated: 1
EndChar

StartChar: sterling
Encoding: 163 163 91
Width: 1050
VWidth: 1894
Flags: W
HStem: -64 188<682.283 827.25> 545 136<565.7 624> 1246 180<540 746.29>
VStem: 753 171<1120.37 1245.63> 789 221<127.193 231.495>
LayerCount: 2
Fore
SplineSet
910 262 m 0,0,1
 1009 262 1009 262 1010 160 c 0,2,3
 1010 136 1010 136 995 126 c 128,-1,4
 980 116 980 116 934.5 42 c 128,-1,5
 889 -32 889 -32 872 -48 c 128,-1,6
 855 -64 855 -64 799.5 -64 c 128,-1,7
 744 -64 744 -64 608.5 27 c 128,-1,8
 473 118 473 118 405 118 c 128,-1,9
 337 118 337 118 323.5 110 c 128,-1,10
 310 102 310 102 253 41 c 128,-1,11
 196 -20 196 -20 170 -38 c 128,-1,12
 144 -56 144 -56 107 -56 c 2,13,-1
 40 -56 l 1,14,-1
 22 47 l 1,15,-1
 33 94 l 1,16,17
 44 114 44 114 109 189 c 128,-1,18
 174 264 174 264 192.5 318 c 128,-1,19
 211 372 211 372 215.5 421.5 c 128,-1,20
 220 471 220 471 230.5 641.5 c 128,-1,21
 241 812 241 812 291 1118 c 1,22,23
 300 1274 300 1274 455 1384 c 1,24,25
 518 1426 518 1426 562 1426 c 0,26,27
 711 1426 711 1426 801 1372 c 128,-1,28
 891 1318 891 1318 908 1280 c 0,29,30
 924 1244 924 1244 924 1193 c 0,31,32
 924 1190 924 1190 924 1188 c 0,33,34
 924 1104 924 1104 855 1104 c 0,35,36
 814 1104 814 1104 789.5 1127 c 128,-1,37
 765 1150 765 1150 753 1184.5 c 128,-1,38
 741 1219 741 1219 732.5 1232.5 c 128,-1,39
 724 1246 724 1246 712.5 1246 c 128,-1,40
 701 1246 701 1246 667.5 1220 c 128,-1,41
 634 1194 634 1194 618 1173 c 1,42,-1
 587 1094 l 1,43,44
 574 1042 574 1042 548 887.5 c 128,-1,45
 522 733 522 733 516 687 c 1,46,47
 586 685 586 685 602 681 c 0,48,49
 625 674 625 674 635 632 c 1,50,-1
 642 587 l 1,51,-1
 624 545 l 1,52,-1
 563 530 l 1,53,-1
 560 506 l 1,54,55
 520 478 520 478 507 450 c 128,-1,56
 494 422 494 422 494 356.5 c 128,-1,57
 494 291 494 291 495 280 c 1,58,59
 499 276 499 276 520 270 c 128,-1,60
 541 264 541 264 629.5 194 c 128,-1,61
 718 124 718 124 741.5 124 c 128,-1,62
 765 124 765 124 772 127 c 1,63,64
 777 133 777 133 789 160 c 0,65,66
 829 262 829 262 910 262 c 0,0,1
EndSplineSet
Validated: 1
EndChar

StartChar: section
Encoding: 167 167 92
Width: 888
VWidth: 1894
Flags: W
HStem: -76 136<213.424 416.603> 446 154<284.681 420> 817 174<464.069 637.963> 1244 148<372.253 630.883>
VStem: 43 168<84 172.57> 555 210<212.691 401.911> 651 195<1137.55 1234.42>
LayerCount: 2
Fore
SplineSet
267 60 m 0,0,1
 365 60 365 60 411 99 c 0,2,3
 474 153 474 153 513 216.5 c 128,-1,4
 552 280 552 280 555 295 c 1,5,-1
 557 339 l 1,6,7
 552 355 552 355 512 400.5 c 128,-1,8
 472 446 472 446 456.5 446 c 128,-1,9
 441 446 441 446 366 422 c 128,-1,10
 291 398 291 398 252 398 c 0,11,12
 94 398 94 398 46 534 c 1,13,-1
 30 615 l 1,14,-1
 36 678 l 1,15,16
 42 714 42 714 77 752 c 128,-1,17
 112 790 112 790 115 808 c 1,18,-1
 115 816 l 2,19,20
 115 835 115 835 97 873.5 c 128,-1,21
 79 912 79 912 72 932 c 1,22,-1
 64 932 l 1,23,-1
 79 1048 l 1,24,25
 92 1130 92 1130 154.5 1206 c 128,-1,26
 217 1282 217 1282 276.5 1315 c 128,-1,27
 336 1348 336 1348 430.5 1370 c 128,-1,28
 525 1392 525 1392 582.5 1392 c 128,-1,29
 640 1392 640 1392 719.5 1372.5 c 128,-1,30
 799 1353 799 1353 822.5 1320 c 128,-1,31
 846 1287 846 1287 846 1230 c 128,-1,32
 846 1173 846 1173 828.5 1138.5 c 128,-1,33
 811 1104 811 1104 772 1076 c 128,-1,34
 733 1048 733 1048 687.5 1048 c 128,-1,35
 642 1048 642 1048 619 1056 c 1,36,-1
 598 1084 l 1,37,-1
 650 1174 l 1,38,39
 651 1184 651 1184 651 1200.5 c 128,-1,40
 651 1217 651 1217 631.5 1230.5 c 128,-1,41
 612 1244 612 1244 562 1244 c 2,42,-1
 469 1244 l 1,43,44
 396 1242 396 1242 324 1149 c 0,45,46
 278 1090 278 1090 274.5 1070 c 128,-1,47
 271 1050 271 1050 271 1041.5 c 128,-1,48
 271 1033 271 1033 273 1022 c 128,-1,49
 275 1011 275 1011 307 966 c 128,-1,50
 339 921 339 921 378 921 c 2,51,-1
 385 921 l 2,52,53
 402 921 402 921 486.5 956 c 128,-1,54
 571 991 571 991 639 991 c 2,55,-1
 642 991 l 1,56,57
 713 990 713 990 779.5 939 c 128,-1,58
 846 888 846 888 846 818 c 1,59,-1
 832 732 l 1,60,61
 815 638 815 638 713 562 c 0,62,63
 692 546 692 546 683 533 c 1,64,-1
 707 504 l 1,65,66
 746 464 746 464 753.5 440 c 128,-1,67
 761 416 761 416 763 405 c 128,-1,68
 765 394 765 394 765 364 c 128,-1,69
 765 334 765 334 754.5 272 c 128,-1,70
 744 210 744 210 731 181 c 128,-1,71
 718 152 718 152 676 97 c 0,72,73
 595 -8 595 -8 457 -42 c 128,-1,74
 319 -76 319 -76 282.5 -76 c 128,-1,75
 246 -76 246 -76 193 -52 c 0,76,77
 92 -8 92 -8 59 94 c 1,78,79
 44 131 44 131 43.5 142.5 c 128,-1,80
 43 154 43 154 43 171 c 128,-1,81
 43 188 43 188 49 212.5 c 128,-1,82
 55 237 55 237 95 270.5 c 128,-1,83
 135 304 135 304 180.5 304 c 128,-1,84
 226 304 226 304 260 271 c 1,85,-1
 295 213 l 1,86,-1
 285 207 l 1,87,88
 275 185 275 185 245.5 165 c 128,-1,89
 216 145 216 145 211 125 c 1,90,-1
 211 119 l 1,91,-1
 208 107 l 1,92,-1
 216 84 l 1,93,-1
 217 84 l 1,94,95
 239 60 239 60 267 60 c 0,0,1
267 608 m 1,96,97
 339 600 339 600 349 600 c 0,98,99
 349 600 349 600 350 600 c 0,100,101
 385 607 385 607 420 608 c 2,102,-1
 506 646 l 1,103,104
 535 655 535 655 561 669 c 0,105,106
 623 703 623 703 638 767 c 1,107,-1
 638 771 l 2,108,109
 638 781 638 781 621 799 c 128,-1,110
 604 817 604 817 567 817 c 128,-1,111
 530 817 530 817 479.5 790.5 c 128,-1,112
 429 764 429 764 356 745 c 128,-1,113
 283 726 283 726 263 708 c 128,-1,114
 243 690 243 690 237 654 c 1,115,-1
 267 608 l 1,96,97
EndSplineSet
Validated: 1
EndChar

StartChar: guillemotleft
Encoding: 171 171 93
Width: 1329
VWidth: 1894
Flags: W
HStem: 1052 88<690.594 723.375>
LayerCount: 2
Fore
SplineSet
659 1140 m 2,0,-1
 661 1140 l 2,1,2
 691 1140 691 1140 709.5 1118 c 128,-1,3
 728 1096 728 1096 728 1076 c 2,4,-1
 728 1052 l 1,5,-1
 726 1052 l 1,6,7
 669 983 669 983 644 950 c 0,8,9
 644 950 644 950 644 949 c 0,10,11
 644 933 644 933 472 711 c 0,12,13
 448 680 448 680 436 665 c 1,14,-1
 425 642 l 1,15,16
 466 588 466 588 555 506 c 128,-1,17
 644 424 644 424 685.5 387 c 128,-1,18
 727 350 727 350 727 308 c 2,19,-1
 727 304 l 1,20,21
 726 270 726 270 701.5 251 c 128,-1,22
 677 232 677 232 640 232 c 2,23,-1
 630 232 l 1,24,25
 557 236 557 236 437 340 c 1,26,-1
 298 442 l 1,27,28
 166 535 166 535 142 562.5 c 128,-1,29
 118 590 118 590 118 608 c 2,30,-1
 118 632 l 1,31,-1
 125 632 l 1,32,33
 144 675 144 675 230.5 759.5 c 128,-1,34
 317 844 317 844 403 947 c 128,-1,35
 489 1050 489 1050 561 1095 c 128,-1,36
 633 1140 633 1140 659 1140 c 2,0,-1
1160 1135 m 1,37,38
 1203 1115 1203 1115 1203 1066 c 2,39,-1
 1203 1064 l 2,40,41
 1203 1063 1203 1063 1203 1062 c 0,42,43
 1203 1037 1203 1037 1182 1018 c 0,44,45
 1102 942 1102 942 1101 939 c 0,46,47
 1097 922 1097 922 976 762 c 0,48,49
 912 676 912 676 887 651 c 1,50,-1
 878 633 l 1,51,52
 908 578 908 578 1040.5 507 c 128,-1,53
 1173 436 1173 436 1187 395 c 128,-1,54
 1201 354 1201 354 1201 310 c 2,55,-1
 1201 306 l 1,56,57
 1200 272 1200 272 1176 253 c 128,-1,58
 1152 234 1152 234 1114 234 c 2,59,-1
 1103 234 l 1,60,-1
 1101 236 l 1,61,62
 1027 244 1027 244 910 344 c 1,63,-1
 770 447 l 1,64,65
 639 539 639 539 624 557 c 128,-1,66
 609 575 609 575 609 596.5 c 128,-1,67
 609 618 609 618 657.5 690.5 c 128,-1,68
 706 763 706 763 748 804.5 c 128,-1,69
 790 846 790 846 876.5 949 c 128,-1,70
 963 1052 963 1052 1035.5 1097 c 128,-1,71
 1108 1142 1108 1142 1134 1142 c 2,72,-1
 1160 1142 l 1,73,-1
 1160 1135 l 1,37,38
EndSplineSet
Validated: 1
EndChar

StartChar: guillemotright
Encoding: 187 187 94
Width: 1329
VWidth: 1894
Flags: W
LayerCount: 2
Fore
SplineSet
685 990 m 1,0,-1
 690 988 l 1,1,2
 763 983 763 983 882 882 c 1,3,-1
 1021 780 l 1,4,5
 1153 687 1153 687 1177 659.5 c 128,-1,6
 1201 632 1201 632 1201 614 c 2,7,-1
 1201 604 l 1,8,-1
 1197 601 l 1,9,10
 1187 560 1187 560 1094 469 c 128,-1,11
 1001 378 1001 378 915.5 275 c 128,-1,12
 830 172 830 172 757.5 127 c 128,-1,13
 685 82 685 82 659 82 c 2,14,-1
 649 82 l 1,15,-1
 645 85 l 1,16,17
 623 89 623 89 606.5 107.5 c 128,-1,18
 590 126 590 126 590 158 c 2,19,-1
 590 168 l 1,20,-1
 593 171 l 1,21,22
 589 186 589 186 590 199 c 0,23,24
 590 236 590 236 618 263 c 0,25,26
 747 382 747 382 864 525 c 0,27,28
 889 556 889 556 899 572 c 1,29,-1
 911 595 l 1,30,31
 899 611 899 611 851.5 649 c 128,-1,32
 804 687 804 687 710 737 c 128,-1,33
 616 787 616 787 604 829.5 c 128,-1,34
 592 872 592 872 592 914 c 2,35,-1
 592 918 l 1,36,37
 593 952 593 952 617 971 c 128,-1,38
 641 990 641 990 679 990 c 2,39,-1
 685 990 l 1,0,-1
212 988 m 1,40,41
 285 984 285 984 408 878 c 1,42,-1
 548 777 l 1,43,44
 679 686 679 686 703 657 c 128,-1,45
 727 628 727 628 727 606.5 c 128,-1,46
 727 585 727 585 701 551.5 c 128,-1,47
 675 518 675 518 601 447 c 128,-1,48
 527 376 527 376 440.5 273 c 128,-1,49
 354 170 354 170 281 125 c 128,-1,50
 208 80 208 80 181.5 80 c 128,-1,51
 155 80 155 80 135 102 c 128,-1,52
 115 124 115 124 115 156 c 2,53,-1
 115 160 l 2,54,55
 115 180 115 180 99 206 c 0,56,57
 95 211 95 211 97 218 c 0,58,59
 97 243 97 243 143 284 c 0,60,61
 238 367 238 367 375 531 c 0,62,63
 414 578 414 578 421 595 c 1,64,65
 410 613 410 613 361 652.5 c 128,-1,66
 312 692 312 692 219 744 c 128,-1,67
 126 796 126 796 122 833 c 128,-1,68
 118 870 118 870 118 912 c 2,69,-1
 118 916 l 1,70,71
 119 950 119 950 142.5 969 c 128,-1,72
 166 988 166 988 205 988 c 2,73,-1
 212 988 l 1,40,41
EndSplineSet
Validated: 1
EndChar

StartChar: questiondown
Encoding: 191 191 95
Width: 821
VWidth: 1894
Flags: W
HStem: 64 218<482.828 581.341> 842 20G<430.75 460.25> 964 318<324.771 536.659>
VStem: 22 195<-129.078 115.409> 272 316<1016.57 1236.78> 345 193<580.942 816.328> 354 199<477.557 765.058> 618 167<-79 91.5913>
LayerCount: 2
Fore
SplineSet
461.5 1282 m 128,-1,1
 518 1282 518 1282 553 1224 c 128,-1,2
 588 1166 588 1166 588 1124 c 128,-1,3
 588 1082 588 1082 578 1060 c 128,-1,4
 568 1038 568 1038 528.5 1001 c 128,-1,5
 489 964 489 964 454 964 c 2,6,-1
 421 964 l 2,7,8
 369 964 369 964 320.5 1012 c 128,-1,9
 272 1060 272 1060 272 1138 c 2,10,-1
 272 1140 l 1,11,12
 285 1268 285 1268 386 1280 c 0,13,0
 405 1282 405 1282 461.5 1282 c 128,-1,1
553 570 m 2,14,15
 553 538 553 538 509.5 452 c 128,-1,16
 466 366 466 366 378 271 c 0,17,18
 217 96 217 96 217 -18 c 0,19,20
 217 -76 217 -76 265 -133 c 128,-1,21
 313 -190 313 -190 370.5 -190 c 128,-1,22
 428 -190 428 -190 531 -152 c 1,23,-1
 608 -79 l 1,24,-1
 618 -7 l 1,25,26
 616 48 616 48 599 93 c 1,27,-1
 582 100 l 1,28,29
 561 97 561 97 529 80.5 c 128,-1,30
 497 64 497 64 473 64 c 2,31,-1
 463 64 l 1,32,-1
 432 73 l 1,33,34
 412 86 412 86 412 108 c 2,35,-1
 412 134 l 2,36,37
 412 160 412 160 442.5 197 c 128,-1,38
 473 234 473 234 512 258 c 128,-1,39
 551 282 551 282 604 282 c 128,-1,40
 657 282 657 282 703.5 252 c 128,-1,41
 750 222 750 222 767.5 148 c 128,-1,42
 785 74 785 74 785 46 c 0,43,44
 785 -152 785 -152 702 -222 c 1,45,46
 678 -278 678 -278 579 -307 c 1,47,-1
 447 -356 l 1,48,-1
 255 -326 l 1,49,50
 204 -316 204 -316 133.5 -251 c 128,-1,51
 63 -186 63 -186 42.5 -151 c 128,-1,52
 22 -116 22 -116 22 -64 c 0,53,54
 22 146 22 146 135 252 c 1,55,56
 144 262 144 262 230.5 371 c 128,-1,57
 317 480 317 480 335.5 523 c 128,-1,58
 354 566 354 566 354 600 c 1,59,-1
 345 712 l 1,60,61
 345 796 345 796 368 817 c 0,62,63
 416 862 416 862 445.5 862 c 128,-1,64
 475 862 475 862 505.5 832 c 128,-1,65
 536 802 536 802 538 774 c 2,66,-1
 553 572 l 1,67,-1
 553 570 l 2,14,15
EndSplineSet
Validated: 1
EndChar

StartChar: germandbls
Encoding: 223 223 115
Width: 1098
VWidth: 1894
Flags: W
HStem: -42 142<474.36 665.968> 1342 20G<536 685.5>
VStem: 155 188<93.5 525.883> 686 285<813.998 1175.61> 736 310<179.703 539.812>
LayerCount: 2
Fore
SplineSet
155 402 m 128,-1,1
 155 468 155 468 196 664 c 1,2,3
 224 842 224 842 239.5 964 c 128,-1,4
 255 1086 255 1086 364 1227 c 0,5,6
 469 1362 469 1362 603 1362 c 0,7,8
 609 1362 609 1362 615 1362 c 0,9,10
 756 1356 756 1356 796.5 1336 c 128,-1,11
 837 1316 837 1316 904 1214 c 128,-1,12
 971 1112 971 1112 971 1003 c 128,-1,13
 971 894 971 894 928.5 816.5 c 128,-1,14
 886 739 886 739 886 721 c 1,15,-1
 887 721 l 1,16,17
 887 704 887 704 966.5 595 c 128,-1,18
 1046 486 1046 486 1046 366 c 2,19,-1
 1046 364 l 2,20,21
 1046 246 1046 246 989 157 c 128,-1,22
 932 68 932 68 859.5 13 c 128,-1,23
 787 -42 787 -42 612 -42 c 128,-1,24
 437 -42 437 -42 396.5 -17 c 128,-1,25
 356 8 356 8 356 42 c 2,26,-1
 356 76 l 1,27,-1
 358 115 l 1,28,-1
 372 137 l 1,29,30
 396 160 396 160 425 160 c 128,-1,31
 454 160 454 160 498.5 130 c 128,-1,32
 543 100 543 100 575 100 c 0,33,34
 605 100 605 100 626 114 c 0,35,36
 721 177 721 177 724 219 c 2,37,-1
 735 417 l 2,38,39
 736 427 736 427 736 436 c 0,40,41
 736 535 736 535 676 583 c 1,42,43
 664 578 664 578 633 564.5 c 128,-1,44
 602 551 602 551 554 551 c 128,-1,45
 506 551 506 551 489.5 577.5 c 128,-1,46
 473 604 473 604 473 623 c 0,47,48
 473 685 473 685 587 745 c 0,49,50
 609 757 609 757 630 768 c 1,51,52
 686 875 686 875 686 963 c 0,53,54
 686 1151 686 1151 665 1185 c 1,55,56
 625 1170 625 1170 617 1165 c 1,57,58
 380 639 380 639 343 291 c 1,59,60
 343 77 343 77 302 -236 c 1,61,-1
 269 -400 l 1,62,-1
 44 -400 l 1,63,-1
 120 164 l 2,64,65
 133 266 133 266 144 302 c 0,66,0
 155 336 155 336 155 402 c 128,-1,1
EndSplineSet
Validated: 1
EndChar

StartChar: quoteright
Encoding: 8217 8217 135
Width: 444
VWidth: 1894
Flags: W
HStem: 1082 444<88.7827 201.987>
VStem: 29 306<1264.6 1455.18>
LayerCount: 2
Fore
SplineSet
99 1082 m 128,-1,1
 60 1082 60 1082 59 1122 c 0,2,3
 59 1140 59 1140 73.5 1161.5 c 128,-1,4
 88 1183 88 1183 88 1218.5 c 128,-1,5
 88 1254 88 1254 58.5 1280 c 128,-1,6
 29 1306 29 1306 29 1372 c 2,7,-1
 29 1378 l 2,8,9
 29 1430 29 1430 45.5 1456 c 128,-1,10
 62 1482 62 1482 105 1504 c 128,-1,11
 148 1526 148 1526 182 1526 c 1,12,-1
 223 1521 l 1,13,-1
 224 1520 l 1,14,15
 270 1506 270 1506 301 1473 c 128,-1,16
 332 1440 332 1440 335 1360 c 1,17,-1
 335 1356 l 2,18,19
 335 1222 335 1222 202 1126 c 1,20,0
 138 1082 138 1082 99 1082 c 128,-1,1
EndSplineSet
EndChar

StartChar: quotedblleft
Encoding: 8220 8220 136
Width: 868
VWidth: 1894
Flags: W
HStem: 1078 464
VStem: 103 318<1169.74 1366.89> 512 249<1207 1386.86>
LayerCount: 2
Fore
SplineSet
344 1394 m 1,0,1
 382 1374 382 1374 401.5 1328 c 128,-1,2
 421 1282 421 1282 421 1228.5 c 128,-1,3
 421 1175 421 1175 384 1133.5 c 128,-1,4
 347 1092 347 1092 292 1092 c 128,-1,5
 237 1092 237 1092 217.5 1106 c 128,-1,6
 198 1120 198 1120 156 1161 c 128,-1,7
 114 1202 114 1202 108.5 1224 c 128,-1,8
 103 1246 103 1246 103 1285 c 128,-1,9
 103 1324 103 1324 168.5 1413 c 128,-1,10
 234 1502 234 1502 263.5 1522 c 128,-1,11
 293 1542 293 1542 329 1542 c 128,-1,12
 365 1542 365 1542 380 1532 c 128,-1,13
 395 1522 395 1522 395 1490 c 128,-1,14
 395 1458 395 1458 373 1431.5 c 128,-1,15
 351 1405 351 1405 344 1394 c 1,0,1
649 1478 m 1,16,17
 714 1520 714 1520 738 1520 c 128,-1,18
 762 1520 762 1520 787.5 1504 c 128,-1,19
 813 1488 813 1488 787 1454 c 128,-1,20
 761 1420 761 1420 761 1384 c 128,-1,21
 761 1348 761 1348 788 1322 c 128,-1,22
 815 1296 815 1296 815 1232 c 128,-1,23
 815 1168 815 1168 795.5 1144 c 128,-1,24
 776 1120 776 1120 736 1099 c 128,-1,25
 696 1078 696 1078 661 1078 c 2,26,-1
 659 1078 l 1,27,-1
 621 1083 l 1,28,-1
 620 1084 l 1,29,30
 573 1098 573 1098 542.5 1133 c 128,-1,31
 512 1168 512 1168 512 1246 c 0,32,33
 513 1382 513 1382 649 1478 c 1,16,17
EndSplineSet
Validated: 1
EndChar

StartChar: quotedblright
Encoding: 8221 8221 137
Width: 868
VWidth: 1894
Flags: W
HStem: 1068 458
VStem: 29 306<1264.6 1455.18>
LayerCount: 2
Fore
SplineSet
99 1082 m 128,-1,1
 60 1082 60 1082 59 1122 c 0,2,3
 59 1140 59 1140 73.5 1161.5 c 128,-1,4
 88 1183 88 1183 88 1218.5 c 128,-1,5
 88 1254 88 1254 58.5 1280 c 128,-1,6
 29 1306 29 1306 29 1372 c 2,7,-1
 29 1378 l 2,8,9
 29 1430 29 1430 45.5 1456 c 128,-1,10
 62 1482 62 1482 105 1504 c 128,-1,11
 148 1526 148 1526 182 1526 c 1,12,-1
 223 1521 l 1,13,-1
 224 1520 l 1,14,15
 270 1506 270 1506 301 1473 c 128,-1,16
 332 1440 332 1440 335 1360 c 1,17,-1
 335 1356 l 2,18,19
 335 1222 335 1222 202 1126 c 1,20,0
 138 1082 138 1082 99 1082 c 128,-1,1
744 1330 m 2,21,22
 744 1288 744 1288 680 1199 c 128,-1,23
 616 1110 616 1110 586.5 1089 c 128,-1,24
 557 1068 557 1068 523 1068 c 1,25,-1
 473 1076 l 1,26,27
 454 1088 454 1088 455 1103 c 2,28,-1
 455 1120 l 1,29,30
 456 1152 456 1152 477.5 1178.5 c 128,-1,31
 499 1205 499 1205 506 1216 c 1,32,33
 468 1236 468 1236 446.5 1282 c 128,-1,34
 425 1328 425 1328 425 1358 c 2,35,-1
 425 1362 l 2,36,37
 425 1435 425 1435 461 1476.5 c 128,-1,38
 497 1518 497 1518 551 1518 c 2,39,-1
 556 1518 l 2,40,41
 607 1518 607 1518 626.5 1505 c 128,-1,42
 646 1492 646 1492 688 1451.5 c 128,-1,43
 730 1411 730 1411 736 1389 c 1,44,-1
 744 1331 l 1,45,-1
 744 1330 l 2,21,22
EndSplineSet
Validated: 1
EndChar

StartChar: bullet
Encoding: 8226 8226 138
Width: 832
VWidth: 1894
Flags: W
HStem: 360 548<308.75 535.614>
VStem: 118 583<463.781 746.936>
LayerCount: 2
Fore
SplineSet
136.5 522 m 128,-1,1
 118 574 118 574 118 655 c 128,-1,2
 118 736 118 736 201 816 c 128,-1,3
 284 896 284 896 308 902 c 128,-1,4
 332 908 332 908 358 908 c 128,-1,5
 384 908 384 908 447 893 c 128,-1,6
 510 878 510 878 537 863 c 1,7,-1
 604 811 l 1,8,9
 701 711 701 711 701 625.5 c 128,-1,10
 701 540 701 540 667.5 475 c 128,-1,11
 634 410 634 410 579.5 385 c 128,-1,12
 525 360 525 360 434 360 c 128,-1,13
 343 360 343 360 313.5 366 c 128,-1,14
 284 372 284 372 237 401 c 128,-1,15
 190 430 190 430 172.5 450 c 128,-1,0
 155 470 155 470 136.5 522 c 128,-1,1
EndSplineSet
Validated: 1
EndChar

StartChar: Euro
Encoding: 8364 8364 139
Width: 1297
VWidth: 1894
Flags: W
HStem: -58 164<603.88 958.14> 42 300<1074.73 1234.3> 506 188<34.7812 222> 512 140<33.2578 81.8276> 534 180<687.917 1032.45> 562 152<508 984.893> 701.5 190.5<106.203 276.461> 720 198<669 960.016> 745 173<669 960.016>
VStem: 224 259<234.28 506>
LayerCount: 2
Fore
SplineSet
1000.5 1392 m 128,-1,1
 1019 1392 1019 1392 1043 1408 c 128,-1,2
 1067 1424 1067 1424 1123.5 1424 c 128,-1,3
 1180 1424 1180 1424 1180 1384 c 1,4,-1
 1181 1374 l 1,5,-1
 1181 1355 l 2,6,7
 1181 1314 1181 1314 1146.5 1263 c 128,-1,8
 1112 1212 1112 1212 1067.5 1179 c 128,-1,9
 1023 1146 1023 1146 1001 1142 c 1,10,-1
 971 1138 l 1,11,-1
 971 1147 l 1,12,13
 944 1155 944 1155 936.5 1178 c 128,-1,14
 929 1201 929 1201 918.5 1233.5 c 128,-1,15
 908 1266 908 1266 881.5 1274.5 c 128,-1,16
 855 1283 855 1283 835 1286 c 1,17,18
 766 1222 766 1222 687.5 1116 c 128,-1,19
 609 1010 609 1010 567 908 c 1,20,-1
 669 920 l 1,21,-1
 677 918 l 1,22,-1
 835 918 l 2,23,24
 930 918 930 918 961 891 c 128,-1,25
 992 864 992 864 992 825 c 128,-1,26
 992 786 992 786 970 767 c 128,-1,27
 948 748 948 748 838 745 c 128,-1,28
 728 742 728 742 704.5 731 c 128,-1,29
 681 720 681 720 616 720 c 1,30,-1
 512 724 l 1,31,32
 508 712 508 712 507 704 c 1,33,34
 559 714 559 714 756.5 714 c 128,-1,35
 954 714 954 714 995 708 c 128,-1,36
 1036 702 1036 702 1048 687 c 128,-1,37
 1060 672 1060 672 1060 633 c 128,-1,38
 1060 594 1060 594 1013 564 c 128,-1,39
 966 534 966 534 923.5 534 c 128,-1,40
 881 534 881 534 822 548 c 128,-1,41
 763 562 763 562 685.5 562 c 128,-1,42
 608 562 608 562 489 548 c 1,43,44
 484 470 484 470 484 374 c 0,45,46
 484 371 484 371 483 369 c 0,47,48
 483 277 483 277 501 224 c 1,49,50
 596 148 596 148 651.5 127 c 128,-1,51
 707 106 707 106 805.5 106 c 128,-1,52
 904 106 904 106 932 112 c 1,53,-1
 932 117 l 1,54,-1
 943 117 l 1,55,56
 969 130 969 130 1001.5 169 c 128,-1,57
 1034 208 1034 208 1042.5 254 c 128,-1,58
 1051 300 1051 300 1074 321 c 128,-1,59
 1097 342 1097 342 1155 342 c 128,-1,60
 1213 342 1213 342 1235 309 c 128,-1,61
 1257 276 1257 276 1257 175 c 128,-1,62
 1257 74 1257 74 1240.5 48 c 128,-1,63
 1224 22 1224 22 1196 22 c 1,64,-1
 1150 29 l 1,65,66
 1121 42 1121 42 1113 42 c 0,67,68
 1113 42 1113 42 1112 42 c 0,69,70
 1104 42 1104 42 1085.5 24 c 128,-1,71
 1067 6 1067 6 990 -26 c 128,-1,72
 913 -58 913 -58 820 -58 c 0,73,74
 553 -58 553 -58 335 158 c 1,75,76
 268 222 268 222 248 270 c 128,-1,77
 228 318 228 318 224 420 c 1,78,-1
 222 506 l 1,79,-1
 63 512 l 1,80,81
 31 527 31 527 31 584 c 2,82,-1
 31 652 l 1,83,-1
 109 674 l 1,84,85
 172 694 172 694 237 694 c 2,86,-1
 241 694 l 1,87,-1
 248 692 l 1,88,89
 270 692 270 692 277 698 c 1,90,91
 260 701 260 701 212.5 701.5 c 128,-1,92
 165 702 165 702 124 731 c 128,-1,93
 83 760 83 760 83 786 c 0,94,95
 83 892 83 892 248 892 c 1,96,-1
 345 884 l 1,97,-1
 429 1060 l 1,98,99
 472 1162 472 1162 542 1261 c 128,-1,100
 612 1360 612 1360 658.5 1389 c 128,-1,101
 705 1418 705 1418 748 1420 c 1,102,-1
 763 1420 l 1,103,-1
 764 1418 l 1,104,105
 769 1418 769 1418 784 1417.5 c 128,-1,106
 799 1417 799 1417 890.5 1404.5 c 128,-1,0
 982 1392 982 1392 1000.5 1392 c 128,-1,1
EndSplineSet
Validated: 1
EndChar

StartChar: AE
Encoding: 198 198 140
Width: 1677
VWidth: 1894
Flags: W
HStem: 94 144<1021.91 1293.99> 536 289<1120.71 1235.32> 543 158<430.148 688> 1080 200<1368.21 1464.31> 1142 162<997.188 1136> 1176 130<1105 1358.4> 1200 169<474.062 651>
VStem: 668 328<761.926 1142> 688 308<758 1137.88> 1307 138<-9.04297 73.7445>
LayerCount: 2
Fore
SplineSet
574 1200 m 1,0,1
 542 1198 542 1198 509 1195 c 1,2,-1
 506 1195 l 1,3,4
 490 1186 490 1186 473 1162 c 1,5,6
 453 931 453 931 430 701 c 1,7,-1
 540 700 l 1,8,9
 621 700 621 700 688 693 c 1,10,11
 676 938 676 938 668 1184 c 1,12,-1
 651 1200 l 1,13,-1
 574 1200 l 1,0,1
1030 608 m 1,14,15
 1006 601 1006 601 1006 552 c 1,16,-1
 1017 378 l 1,17,-1
 1013 334 l 1,18,-1
 1015 228 l 1,19,-1
 1065 234 l 1,20,21
 1091 238 1091 238 1144 238 c 0,22,23
 1170 238 1170 238 1202 237 c 0,24,25
 1300 234 1300 234 1343 227 c 1,26,-1
 1394 221 l 1,27,28
 1403 230 1403 230 1422 261 c 128,-1,29
 1441 292 1441 292 1486 296 c 1,30,-1
 1491 296 l 2,31,32
 1547 296 1547 296 1547 223 c 128,-1,33
 1547 150 1547 150 1501.5 98 c 128,-1,34
 1456 46 1456 46 1445 28 c 1,35,-1
 1445 26 l 2,36,37
 1445 0 1445 0 1416 -12 c 128,-1,38
 1387 -24 1387 -24 1366 -24 c 128,-1,39
 1345 -24 1345 -24 1329.5 -9.5 c 128,-1,40
 1314 5 1314 5 1307 35.5 c 128,-1,41
 1300 66 1300 66 1295 74 c 1,42,43
 1263 94 1263 94 1199.5 94 c 128,-1,44
 1136 94 1136 94 737 4 c 1,45,-1
 731 4 l 2,46,47
 701 4 701 4 680 18 c 128,-1,48
 659 32 659 32 657 60 c 1,49,-1
 665 100 l 1,50,51
 679 138 679 138 719 159 c 1,52,53
 706 346 706 346 696 533 c 1,54,55
 649 534 649 534 557 540 c 0,56,57
 518 543 518 543 492 543 c 0,58,59
 488 542 488 542 484 542 c 0,60,61
 455 542 455 542 445 540 c 0,62,63
 422 534 422 534 412 532 c 1,64,65
 391 342 391 342 369 153 c 1,66,-1
 410 138 l 1,67,-1
 416 112 l 1,68,-1
 369 56 l 1,69,70
 356 26 356 26 311.5 16 c 128,-1,71
 267 6 267 6 198 6 c 128,-1,72
 129 6 129 6 91 17 c 128,-1,73
 53 28 53 28 48 68 c 1,74,-1
 48 74 l 2,75,76
 48 108 48 108 81 135 c 128,-1,77
 114 162 114 162 114 174 c 1,78,-1
 146 486 l 1,79,-1
 155 667 l 1,80,-1
 153 677 l 1,81,-1
 153 680 l 2,82,83
 153 746 153 746 184 907 c 0,84,85
 236 1170 236 1170 375 1313 c 0,86,87
 428 1368 428 1368 565 1369 c 1,88,-1
 568 1369 l 2,89,90
 698 1369 698 1369 793 1284 c 1,91,-1
 796 1285 l 1,92,93
 869 1304 869 1304 1105 1304 c 1,94,-1
 1136 1306 l 1,95,-1
 1138 1306 l 1,96,97
 1348 1304 1348 1304 1381.5 1292 c 128,-1,98
 1415 1280 1415 1280 1426 1280 c 128,-1,99
 1437 1280 1437 1280 1448 1283 c 1,100,101
 1457 1287 1457 1287 1481.5 1323.5 c 128,-1,102
 1506 1360 1506 1360 1552 1360 c 0,103,104
 1619 1360 1619 1360 1619 1282 c 0,105,106
 1619 1254 1619 1254 1587 1194 c 0,107,108
 1524 1080 1524 1080 1448 1080 c 0,109,110
 1407 1080 1407 1080 1385 1108 c 128,-1,111
 1363 1136 1363 1136 1306 1156 c 128,-1,112
 1249 1176 1249 1176 1229 1176 c 128,-1,113
 1209 1176 1209 1176 1134.5 1159 c 128,-1,114
 1060 1142 1060 1142 1015 1142 c 2,115,-1
 996 1142 l 1,116,-1
 996 758 l 1,117,118
 1001 759 1001 759 1014.5 763.5 c 128,-1,119
 1028 768 1028 768 1088 774.5 c 128,-1,120
 1148 781 1148 781 1159 803 c 128,-1,121
 1170 825 1170 825 1191 825 c 2,122,-1
 1193 825 l 1,123,-1
 1245 810 l 2,124,125
 1248 778 1248 778 1290 730 c 0,126,127
 1291 729 1291 729 1291 728 c 0,128,129
 1290 668 1290 668 1246 596 c 0,130,131
 1209 537 1209 537 1158 536 c 0,132,133
 1147 536 1147 536 1136 539 c 0,134,135
 1072 554 1072 554 1030 608 c 1,14,15
EndSplineSet
Validated: 1
EndChar

StartChar: ae
Encoding: 230 230 141
Width: 1405
VWidth: 1894
Flags: W
HStem: -18 154<865.344 1044.84> 6 153<347.83 493.171> 712 154<343.25 566.159> 758 126<863.188 984.374>
VStem: 63 238<200.901 403.773> 610 207<568 682.375> 1004 332<535.089 657.917> 1081 250<159.666 277.71>
LayerCount: 2
Fore
SplineSet
830 507 m 0,0,1
 830 507 830 507 830 506 c 0,2,3
 830 505 830 505 834 505 c 0,4,5
 856 505 856 505 991 534 c 1,6,7
 1004 569 1004 569 1004 584 c 0,8,9
 1004 584 1004 584 1004 585 c 0,10,11
 1004 600 1004 600 1003 602 c 0,12,13
 1003 729 1003 729 948 758 c 1,14,15
 910 757 910 757 886 737.5 c 128,-1,16
 862 718 862 718 836 685 c 1,17,18
 827 601 827 601 817 518 c 1,19,20
 831 516 831 516 831 511 c 0,21,22
 831 511 831 511 831 510 c 0,23,24
 831 508 831 508 830 507 c 0,0,1
923 884 m 2,25,-1
 924 884 l 2,26,27
 985 884 985 884 1060.5 865 c 128,-1,28
 1136 846 1136 846 1163 826 c 128,-1,29
 1190 806 1190 806 1262.5 706 c 128,-1,30
 1335 606 1335 606 1336 484 c 0,31,32
 1336 435 1336 435 1305 413 c 128,-1,33
 1274 391 1274 391 1201 391 c 1,34,-1
 1068 403 l 1,35,36
 1067 404 1067 404 1063 404 c 0,37,38
 1041 404 1041 404 935 378 c 0,39,40
 860 360 860 360 840 354 c 1,41,42
 829 276 829 276 815 200 c 1,43,44
 858 161 858 161 864 159 c 0,45,46
 907 147 907 147 950 136 c 1,47,-1
 965 136 l 2,48,49
 1009 136 1009 136 1046 159 c 0,50,51
 1080 180 1080 180 1081 239 c 0,52,53
 1082 299 1082 299 1149 320 c 1,54,-1
 1192 356 l 1,55,-1
 1257 306 l 1,56,57
 1330 246 1330 246 1331 183 c 0,58,59
 1331 180 1331 180 1331 177 c 0,60,61
 1331 119 1331 119 1321 96 c 0,62,63
 1311 72 1311 72 1251.5 58 c 128,-1,64
 1192 44 1192 44 1155.5 26 c 128,-1,65
 1119 8 1119 8 1052.5 -5 c 128,-1,66
 986 -18 986 -18 954 -18 c 128,-1,67
 922 -18 922 -18 860 -4 c 128,-1,68
 798 10 798 10 751.5 30 c 128,-1,69
 705 50 705 50 638 107 c 1,70,71
 628 100 628 100 564 53 c 128,-1,72
 500 6 500 6 431.5 6 c 128,-1,73
 363 6 363 6 283 22 c 0,74,75
 65 66 65 66 63 257 c 0,76,77
 63 288 63 288 86.5 378 c 128,-1,78
 110 468 110 468 161.5 496.5 c 128,-1,79
 213 525 213 525 317 543 c 1,80,-1
 476 569 l 1,81,-1
 603 558 l 1,82,-1
 608 568 l 1,83,-1
 610 623 l 1,84,85
 610 660 610 660 567.5 686 c 128,-1,86
 525 712 525 712 428 712 c 2,87,-1
 358 712 l 1,88,89
 339 654 339 654 337 651 c 0,90,91
 303 599 303 599 279 578 c 0,92,93
 255 556 255 556 205 556 c 0,94,95
 204 556 204 556 202 556 c 0,96,97
 155 556 155 556 142.5 576 c 128,-1,98
 130 596 130 596 130 614 c 0,99,-1
 129 615 l 0,100,101
 129 633 129 633 150 687 c 0,102,103
 171 742 171 742 176 750 c 128,-1,104
 181 758 181 758 241 812 c 128,-1,105
 301 866 301 866 408.5 866 c 128,-1,106
 516 866 516 866 591 831 c 1,107,-1
 688 780 l 1,108,109
 700 771 700 771 710 755 c 1,110,111
 799 884 799 884 923 884 c 2,25,-1
421 163 m 0,112,113
 429 159 429 159 437 159 c 0,114,115
 457 160 457 160 479 186 c 0,116,117
 509 224 509 224 534 246 c 128,-1,118
 559 268 559 268 561.5 276.5 c 128,-1,119
 564 285 564 285 564 343.5 c 128,-1,120
 564 402 564 402 554.5 424 c 128,-1,121
 545 446 545 446 473.5 446 c 128,-1,122
 402 446 402 446 395 444 c 2,123,-1
 369 436 l 1,124,125
 302 352 302 352 301 314 c 0,126,-1
 301 313 l 0,127,128
 301 246 301 246 353 189 c 1,129,130
 394 178 394 178 421 163 c 0,112,113
EndSplineSet
Validated: 1
EndChar

StartChar: dotlessi
Encoding: 305 305 142
Width: 584
VWidth: 1894
Flags: W
HStem: 0 159<448 518.768>
VStem: 141 307<159 391.344> 156 290<258.299 418.809>
LayerCount: 2
Fore
SplineSet
530 86 m 2,0,1
 530 0 530 0 388 0 c 0,2,3
 338 0 338 0 271.5 28.5 c 128,-1,4
 205 57 205 57 173 119.5 c 128,-1,5
 141 182 141 182 141 256 c 128,-1,6
 141 330 141 330 148.5 350.5 c 128,-1,7
 156 371 156 371 156 392 c 128,-1,8
 156 413 156 413 155 419 c 1,9,10
 148 420 148 420 135.5 423 c 128,-1,11
 123 426 123 426 109 430 c 0,12,13
 57 446 57 446 57 500.5 c 128,-1,14
 57 555 57 555 103.5 672.5 c 128,-1,15
 150 790 150 790 157 819 c 0,16,17
 163 846 163 846 238 846 c 0,18,19
 242 846 242 846 248 846 c 0,20,21
 290 845 290 845 320 845 c 128,-1,22
 350 845 350 845 368 846 c 1,23,24
 394 825 394 825 420 805 c 1,25,26
 445 476 445 476 446 311 c 2,27,-1
 448 159 l 1,28,-1
 530 155 l 1,29,-1
 530 86 l 2,0,1
EndSplineSet
Validated: 1
EndChar

StartChar: uni0237
Encoding: 567 567 143
Width: 525
VWidth: 1894
Flags: W
HStem: 840 20G<292 389.5>
VStem: 159 304<-221.058 365>
LayerCount: 2
Fore
SplineSet
127 361 m 2,0,1
 113 377 113 377 97 392 c 1,2,-1
 76 429 l 1,3,4
 72 439 72 439 72 450 c 1,5,-1
 71 453 l 1,6,-1
 77 520 l 1,7,8
 83 572 83 572 110 683 c 0,9,10
 146 836 146 836 167 840 c 0,11,12
 267 860 267 860 317 860 c 0,13,14
 462 860 462 860 463 781 c 0,15,16
 463 780 463 780 453 250.5 c 128,-1,17
 443 -279 443 -279 433 -311.5 c 128,-1,18
 423 -344 423 -344 367.5 -372 c 128,-1,19
 312 -400 312 -400 252 -400 c 2,20,-1
 190 -400 l 2,21,22
 149 -400 149 -400 74 -379 c 0,23,24
 -62 -340 -62 -340 -62 -260 c 2,25,-1
 -62 -256 l 2,26,27
 -62 -221 -62 -221 -36 -185 c 1,28,-1
 -34 -180 l 1,29,-1
 0 -166 l 1,30,-1
 31 -172 l 1,31,32
 47 -178 47 -178 59.5 -204 c 128,-1,33
 72 -230 72 -230 84 -235 c 128,-1,34
 96 -240 96 -240 114.5 -233.5 c 128,-1,35
 133 -227 133 -227 142 -223 c 1,36,37
 158 -161 158 -161 162 -81 c 2,38,-1
 173 172 l 1,39,-1
 159 365 l 1,40,-1
 131 361 l 1,41,-1
 127 361 l 2,0,1
EndSplineSet
Validated: 1
EndChar

StartChar: degree
Encoding: 176 176 144
Width: 714
VWidth: 1894
Flags: W
HStem: 1100 145<283.88 407.91> 1390 168<294.9 411.386>
VStem: 118 165<1250.71 1358.09> 419 171<1286.35 1381.74>
LayerCount: 2
Fore
SplineSet
352 1558 m 0,0,1
 445 1558 445 1558 489 1534 c 1,2,3
 590 1483 590 1483 590 1374 c 0,4,-1
 590 1372 l 2,5,-1
 590 1360 l 2,6,7
 590 1260 590 1260 543.5 1195 c 128,-1,8
 497 1130 497 1130 457 1115 c 128,-1,9
 417 1100 417 1100 384 1100 c 2,10,-1
 319 1100 l 2,11,12
 276 1100 276 1100 223 1126 c 128,-1,13
 170 1152 170 1152 144 1210 c 128,-1,14
 118 1268 118 1268 118 1321 c 128,-1,15
 118 1374 118 1374 133 1416 c 0,16,17
 181 1558 181 1558 352 1558 c 0,0,1
374.5 1390 m 128,-1,19
 356 1390 356 1390 328 1374.5 c 128,-1,20
 300 1359 300 1359 291.5 1342.5 c 128,-1,21
 283 1326 283 1326 283 1297 c 0,22,23
 283 1255 283 1255 352 1245 c 0,24,25
 353 1245 353 1245 355 1245 c 0,26,27
 374 1245 374 1245 409 1286 c 0,28,29
 419 1297 419 1297 419 1335.5 c 128,-1,30
 419 1374 419 1374 406 1382 c 128,-1,18
 393 1390 393 1390 374.5 1390 c 128,-1,19
EndSplineSet
Validated: 1
EndChar

StartChar: registered
Encoding: 174 174 145
Width: 1399
VWidth: 1894
Flags: W
HStem: 406 136<452.871 862.166> 1100 154<656.184 748.005> 1302 132<496.683 869.499>
VStem: 114 159<792.735 1110.77> 473 187<636.066 785.833> 490 170<938 1047.21> 765 165<978.591 1079.46>
LayerCount: 2
Fore
SplineSet
132 1027 m 128,-1,1
 150 1096 150 1096 166 1127 c 128,-1,2
 182 1158 182 1158 259.5 1226 c 128,-1,3
 337 1294 337 1294 433.5 1353 c 128,-1,4
 530 1412 530 1412 578 1423 c 128,-1,5
 626 1434 626 1434 664 1434 c 0,6,7
 788 1434 788 1434 826.5 1423 c 128,-1,8
 865 1412 865 1412 934.5 1368 c 128,-1,9
 1004 1324 1004 1324 1039.5 1314 c 128,-1,10
 1075 1304 1075 1304 1142 1261 c 128,-1,11
 1209 1218 1209 1218 1241.5 1173 c 128,-1,12
 1274 1128 1274 1128 1274 1049 c 128,-1,13
 1274 970 1274 970 1258 914 c 128,-1,14
 1242 858 1242 858 1193.5 759 c 128,-1,15
 1145 660 1145 660 1113.5 623 c 128,-1,16
 1082 586 1082 586 1037 529 c 128,-1,17
 992 472 992 472 915.5 439 c 128,-1,18
 839 406 839 406 668 406 c 128,-1,19
 497 406 497 406 406 447 c 128,-1,20
 315 488 315 488 248 551 c 128,-1,21
 181 614 181 614 157 664 c 128,-1,22
 133 714 133 714 123.5 795 c 128,-1,23
 114 876 114 876 114 917 c 128,-1,0
 114 958 114 958 132 1027 c 128,-1,1
1025 1131 m 1,24,25
 1008 1142 1008 1142 949 1203 c 0,26,27
 914 1240 914 1240 838.5 1271 c 128,-1,28
 763 1302 763 1302 679 1302 c 0,29,30
 584 1302 584 1302 512 1274 c 0,31,32
 389 1227 389 1227 303 1098 c 1,33,34
 273 1052 273 1052 273 1024 c 0,35,36
 273 848 273 848 328 776 c 0,37,38
 348 750 348 750 388.5 692.5 c 128,-1,39
 429 635 429 635 433.5 608 c 128,-1,40
 438 581 438 581 529 561.5 c 128,-1,41
 620 542 620 542 687 542 c 128,-1,42
 754 542 754 542 815 563 c 128,-1,43
 876 584 876 584 925 643 c 128,-1,44
 974 702 974 702 1019 783 c 128,-1,45
 1064 864 1064 864 1075 890 c 1,46,-1
 1057 1029 l 1,47,-1
 1025 1131 l 1,24,25
376 968 m 2,48,49
 329 968 329 968 328 1024 c 0,50,51
 328 1050 328 1050 365 1122 c 128,-1,52
 402 1194 402 1194 499.5 1224 c 128,-1,53
 597 1254 597 1254 687.5 1254 c 128,-1,54
 778 1254 778 1254 854 1179 c 128,-1,55
 930 1104 930 1104 930 1054 c 128,-1,56
 930 1004 930 1004 914.5 963 c 128,-1,57
 899 922 899 922 888.5 913 c 128,-1,58
 878 904 878 904 878 892 c 128,-1,59
 878 880 878 880 908.5 847 c 128,-1,60
 939 814 939 814 939 774 c 128,-1,61
 939 734 939 734 895.5 693 c 128,-1,62
 852 652 852 652 798 652 c 2,63,-1
 723 652 l 1,64,-1
 737 772 l 1,65,-1
 736 785 l 1,66,-1
 695 786 l 1,67,68
 665 781 665 781 664 730 c 1,69,-1
 666 694 l 1,70,-1
 660 654 l 1,71,72
 648 629 648 629 606 627 c 0,73,74
 594 626 594 626 559.5 626 c 128,-1,75
 525 626 525 626 499 649 c 128,-1,76
 473 672 473 672 473 704 c 128,-1,77
 473 736 473 736 481 779 c 1,78,-1
 490 978 l 1,79,80
 490 1023 490 1023 487 1048 c 1,81,-1
 464 1022 l 2,82,83
 418 970 418 970 381 968 c 1,84,-1
 376 968 l 2,48,49
670 1100 m 2,85,-1
 655 1100 l 1,86,-1
 660 938 l 1,87,88
 682 948 682 948 723.5 980.5 c 128,-1,89
 765 1013 765 1013 765 1027.5 c 128,-1,90
 765 1042 765 1042 731.5 1071 c 128,-1,91
 698 1100 698 1100 670 1100 c 2,85,-1
EndSplineSet
Validated: 1
EndChar

StartChar: copyright
Encoding: 169 169 146
Width: 1533
VWidth: 1894
Flags: W
HStem: 332 155<530.99 654 656 978> 568 132<638.299 826.717> 646 228<897 1023.16> 988 196<882.102 996.313> 1066 130<667.136 860.194> 1308 114<627.882 1022.67>
VStem: 114 202<683.742 956.676> 412 156<767.061 961.491> 1234 173<769.839 1078.9>
LayerCount: 2
Fore
SplineSet
767.5 568 m 128,-1,1
 709 568 709 568 653 580 c 1,2,3
 412 638 412 638 412 854 c 2,4,-1
 412 894 l 2,5,6
 412 946 412 946 445 962 c 1,7,-1
 463 1006 l 1,8,9
 467 1014 467 1014 507.5 1060 c 128,-1,10
 548 1106 548 1106 627.5 1151 c 128,-1,11
 707 1196 707 1196 798 1196 c 1,12,-1
 915 1184 l 1,13,14
 936 1184 936 1184 955.5 1193 c 128,-1,15
 975 1202 975 1202 997 1202 c 0,16,17
 1051 1202 1051 1202 1051 1141 c 0,18,19
 1051 1140 1051 1140 1051 1139 c 2,20,-1
 1051 1138 l 2,21,22
 1051 1076 1051 1076 1008 1032 c 128,-1,23
 965 988 965 988 937 988 c 2,24,-1
 934 988 l 1,25,26
 902 992 902 992 886 1025 c 128,-1,27
 870 1058 870 1058 860.5 1062 c 128,-1,28
 851 1066 851 1066 803 1066 c 0,29,30
 688 1066 688 1066 608 966 c 0,31,32
 576 927 576 927 572 906.5 c 128,-1,33
 568 886 568 886 568 868 c 128,-1,34
 568 850 568 850 580 817 c 128,-1,35
 592 784 592 784 604 771 c 128,-1,36
 616 758 616 758 663.5 729 c 128,-1,37
 711 700 711 700 724 700 c 128,-1,38
 737 700 737 700 750 704 c 0,39,40
 848 736 848 736 856.5 796 c 128,-1,41
 865 856 865 856 897 871 c 1,42,-1
 918 874 l 1,43,-1
 919 874 l 2,44,45
 947 874 947 874 995 847 c 128,-1,46
 1043 820 1043 820 1060 793 c 128,-1,47
 1077 766 1077 766 1077 716 c 2,48,-1
 1077 640 l 1,49,-1
 1000 646 l 1,50,-1
 992 646 l 1,51,52
 960 644 960 644 893 606 c 128,-1,0
 826 568 826 568 767.5 568 c 128,-1,1
746.5 1308 m 128,-1,54
 740 1308 740 1308 733.5 1307.5 c 128,-1,55
 727 1307 727 1307 641.5 1269.5 c 128,-1,56
 556 1232 556 1232 538.5 1204 c 128,-1,57
 521 1176 521 1176 495 1168.5 c 128,-1,58
 469 1161 469 1161 461 1134.5 c 128,-1,59
 453 1108 453 1108 384.5 998.5 c 128,-1,60
 316 889 316 889 316 819 c 128,-1,61
 316 749 316 749 364 679 c 128,-1,62
 412 609 412 609 502.5 548.5 c 128,-1,63
 593 488 593 488 654 487 c 1,64,-1
 656 488 l 1,65,-1
 883 492 l 1,66,67
 1022 520 1022 520 1170 705 c 1,68,69
 1217 761 1217 761 1225.5 829 c 128,-1,70
 1234 897 1234 897 1234 959 c 0,71,72
 1234 1031 1234 1031 1216 1051 c 0,73,74
 1120 1153 1120 1153 1084 1215 c 0,75,76
 1059 1257 1059 1257 937 1298 c 1,77,-1
 846 1294 l 1,78,79
 790 1294 790 1294 771.5 1301 c 128,-1,53
 753 1308 753 1308 746.5 1308 c 128,-1,54
815 1422 m 128,-1,81
 940 1422 940 1422 978.5 1401 c 128,-1,82
 1017 1380 1017 1380 1087 1363 c 128,-1,83
 1157 1346 1157 1346 1233 1285 c 128,-1,84
 1309 1224 1309 1224 1350.5 1165 c 128,-1,85
 1392 1106 1392 1106 1399.5 1080 c 128,-1,86
 1407 1054 1407 1054 1407 996 c 2,87,-1
 1407 900 l 2,88,89
 1407 852 1407 852 1381 806 c 128,-1,90
 1355 760 1355 760 1343.5 721 c 128,-1,91
 1332 682 1332 682 1266.5 595 c 128,-1,92
 1201 508 1201 508 1145 460 c 0,93,94
 991 332 991 332 785 332 c 128,-1,95
 579 332 579 332 411 402 c 128,-1,96
 243 472 243 472 155 610 c 1,97,98
 127 656 127 656 120.5 686 c 128,-1,99
 114 716 114 716 114 793 c 128,-1,100
 114 870 114 870 119 899 c 128,-1,101
 124 928 124 928 154.5 969 c 128,-1,102
 185 1010 185 1010 191.5 1036 c 128,-1,103
 198 1062 198 1062 318 1193 c 128,-1,104
 438 1324 438 1324 547 1358 c 1,105,106
 599 1378 599 1378 644.5 1400 c 128,-1,80
 690 1422 690 1422 815 1422 c 128,-1,81
EndSplineSet
Validated: 1
EndChar

StartChar: oslash
Encoding: 248 248 147
Width: 1059
VWidth: 1894
Flags: W
HStem: -30 204<388.015 557> 754 128<556.669 658.19>
VStem: 703 272<261.954 539.673>
LayerCount: 2
Fore
SplineSet
469 732 m 1,0,1
 439 698 439 698 407 663 c 1,2,3
 374 629 374 629 359 537 c 0,4,5
 359 537 359 537 348 471 c 0,6,7
 348 467 348 467 348 463 c 0,8,9
 348 427 348 427 369 417 c 1,10,-1
 646 727 l 2,11,12
 653 735 653 735 659 743 c 1,13,14
 633 754 633 754 617 754 c 1,15,-1
 516 730 l 1,16,-1
 469 732 l 1,0,1
172.5 725 m 128,-1,18
 220 778 220 778 252 798 c 128,-1,19
 284 818 284 818 372 850 c 128,-1,20
 460 882 460 882 547 882 c 128,-1,21
 634 882 634 882 753 832 c 1,22,23
 764 843 764 843 788 867 c 128,-1,24
 812 891 812 891 840 891 c 2,25,-1
 849 891 l 1,26,-1
 851 889 l 1,27,28
 873 884 873 884 894 861 c 2,29,-1
 927 822 l 1,30,-1
 876 758 l 1,31,32
 957 687 957 687 974 643 c 1,33,-1
 1001 481 l 1,34,-1
 1001 480 l 2,35,36
 1001 448 1001 448 988 422 c 128,-1,37
 975 396 975 396 975 352 c 128,-1,38
 975 308 975 308 939.5 221 c 128,-1,39
 904 134 904 134 865 78 c 0,40,41
 793 -30 793 -30 628 -30 c 128,-1,42
 463 -30 463 -30 388 -1.5 c 128,-1,43
 313 27 313 27 279 43 c 1,44,45
 239 -7 239 -7 219 -23 c 128,-1,46
 199 -39 199 -39 158 -39 c 2,47,-1
 151 -39 l 1,48,49
 120 -37 120 -37 101 -20.5 c 128,-1,50
 82 -4 82 -4 82 16 c 0,51,52
 82 57 82 57 109 90 c 128,-1,53
 136 123 136 123 145 136 c 1,54,55
 115 173 115 173 87 240 c 1,56,-1
 48 340 l 1,57,-1
 59 458 l 1,58,59
 74 552 74 552 99.5 612 c 128,-1,17
 125 672 125 672 172.5 725 c 128,-1,18
386 174 m 1,60,61
 420 177 420 177 557 177 c 2,62,-1
 616 207 l 2,63,-1
 670 261 l 1,64,65
 688 291 688 291 702 387 c 0,66,67
 703 392 703 392 703 399 c 0,68,69
 703 436 703 436 676 543 c 1,70,-1
 523 350 l 1,71,72
 487 297 487 297 386 174 c 1,60,61
EndSplineSet
Validated: 1
EndChar

StartChar: Oslash
Encoding: 216 216 148
Width: 1357
VWidth: 1894
Flags: W
HStem: 1252 148<534.192 787>
VStem: 51 292<436 955.974> 1003 297<428.388 1008.58>
LayerCount: 2
Fore
SplineSet
836 1228 m 1,0,-1
 839 1233 l 1,1,2
 812 1245 812 1245 793 1248.5 c 128,-1,3
 774 1252 774 1252 692 1252 c 0,4,5
 602 1252 602 1252 532 1220 c 1,6,7
 474 1159 474 1159 429 1079 c 0,8,9
 344 925 344 925 343 567 c 0,10,11
 343 552 343 552 343 538 c 0,12,13
 343 444 343 444 348 435 c 1,14,15
 504 669 504 669 614 857 c 1,16,-1
 836 1228 l 1,0,-1
200 144 m 1,17,18
 185 160 185 160 158 192.5 c 128,-1,19
 131 225 131 225 99.5 306.5 c 128,-1,20
 68 388 68 388 62 436 c 1,21,-1
 51 572 l 1,22,23
 51 633 51 633 64 766.5 c 128,-1,24
 77 900 77 900 94.5 957 c 128,-1,25
 112 1014 112 1014 152.5 1114 c 128,-1,26
 193 1214 193 1214 213 1243 c 128,-1,27
 233 1272 233 1272 300 1314 c 0,28,29
 425 1392 425 1392 629 1400 c 1,30,-1
 762 1392 l 1,31,-1
 787 1388 l 1,32,33
 866 1374 866 1374 923 1357 c 1,34,35
 936 1374 936 1374 957.5 1401.5 c 128,-1,36
 979 1429 979 1429 1007 1429 c 2,37,-1
 1011 1429 l 2,38,39
 1036 1429 1036 1429 1060 1407 c 2,40,-1
 1097 1372 l 1,41,-1
 1059 1285 l 1,42,43
 1125 1236 1125 1236 1169 1184 c 128,-1,44
 1213 1132 1213 1132 1252 1019 c 128,-1,45
 1291 906 1291 906 1295.5 873 c 128,-1,46
 1300 840 1300 840 1300 793 c 128,-1,47
 1300 746 1300 746 1291.5 602 c 128,-1,48
 1283 458 1283 458 1194 269 c 128,-1,49
 1105 80 1105 80 950 16 c 1,50,-1
 922 3 l 1,51,52
 891 -11 891 -11 841 -27 c 1,53,-1
 753 -42 l 1,54,-1
 579 -20 l 1,55,-1
 423 20 l 1,56,57
 387 32 387 32 340 54 c 1,58,59
 297 -21 297 -21 278 -44 c 128,-1,60
 259 -67 259 -67 213 -69 c 2,61,-1
 212 -69 l 1,62,-1
 205 -69 l 2,63,64
 173 -69 173 -69 154 -49.5 c 128,-1,65
 135 -30 135 -30 135 1 c 2,66,-1
 135 10 l 1,67,68
 137 35 137 35 158 70 c 128,-1,69
 179 105 179 105 200 144 c 1,17,18
622 477 m 1,70,71
 521 330 521 330 420 183 c 1,72,73
 433 177 433 177 464 162.5 c 128,-1,74
 495 148 495 148 553.5 124.5 c 128,-1,75
 612 101 612 101 646 101 c 1,76,-1
 696 108 l 1,77,78
 759 126 759 126 809 154 c 1,79,80
 852 221 852 221 880 261 c 0,81,82
 1003 440 1003 440 1003 752 c 0,83,84
 1003 755 1003 755 1003 757 c 0,85,86
 1003 770 1003 770 1003 783 c 0,87,88
 1001 916 1001 916 956 1058 c 1,89,90
 913 980 913 980 869 903 c 1,91,-1
 761 711 l 1,92,-1
 622 477 l 1,70,71
EndSplineSet
Validated: 1
EndChar

StartChar: oe
Encoding: 339 339 149
Width: 1535
VWidth: 1894
Flags: W
HStem: -22 154<428.987 601.2 1028 1190.13> 393 117<944.063 1178.21> 721 149<440.359 570.685>
VStem: 1227 238<162.634 266.144>
LayerCount: 2
Fore
SplineSet
1115 750 m 1,0,1
 982 634 982 634 939 513 c 1,2,3
 967 510 967 510 983 510 c 0,4,5
 1022 510 1022 510 1108 534.5 c 128,-1,6
 1194 559 1194 559 1205 563 c 1,7,8
 1205 623 1205 623 1173 671 c 0,9,10
 1153 700 1153 700 1149 724 c 128,-1,11
 1145 748 1145 748 1115 750 c 1,0,1
775 101 m 1,12,13
 701 -22 701 -22 555 -22 c 128,-1,14
 409 -22 409 -22 314.5 20 c 128,-1,15
 220 62 220 62 173 99 c 128,-1,16
 126 136 126 136 88.5 225 c 128,-1,17
 51 314 51 314 48 341 c 1,18,-1
 59 456 l 1,19,20
 72 548 72 548 93.5 605.5 c 128,-1,21
 115 663 115 663 157.5 715 c 128,-1,22
 200 767 200 767 231.5 787.5 c 128,-1,23
 263 808 263 808 336.5 839 c 128,-1,24
 410 870 410 870 473.5 870 c 128,-1,25
 537 870 537 870 613.5 840 c 128,-1,26
 690 810 690 810 734 779 c 128,-1,27
 778 748 778 748 819 700 c 1,28,29
 917 876 917 876 1058 876 c 2,30,-1
 1060 876 l 2,31,32
 1118 876 1118 876 1194 857 c 128,-1,33
 1270 838 1270 838 1297 818 c 128,-1,34
 1324 798 1324 798 1381 720 c 0,35,36
 1469 598 1469 598 1469 478 c 0,37,38
 1469 477 1469 477 1469 475 c 0,39,40
 1469 427 1469 427 1440 403.5 c 128,-1,41
 1411 380 1411 380 1335 380 c 2,42,-1
 1334 380 l 1,43,-1
 1203 393 l 1,44,45
 1101 393 1101 393 928 349 c 1,46,-1
 923 348 l 1,47,48
 940 242 940 242 1028 132 c 1,49,-1
 1100 126 l 1,50,51
 1132 126 1132 126 1192 162 c 0,52,53
 1226 182 1226 182 1227 239 c 0,54,55
 1228 297 1228 297 1283 303 c 1,56,-1
 1324 338 l 1,57,-1
 1392 292 l 1,58,59
 1465 234 1465 234 1465 171 c 128,-1,60
 1465 108 1465 108 1455 86 c 128,-1,61
 1445 64 1445 64 1385.5 50 c 128,-1,62
 1326 36 1326 36 1289.5 18.5 c 128,-1,63
 1253 1 1253 1 1186.5 -11.5 c 128,-1,64
 1120 -24 1120 -24 1089 -24 c 128,-1,65
 1058 -24 1058 -24 996 -10 c 128,-1,66
 934 4 934 4 904 17 c 0,67,68
 849 41 849 41 775 101 c 1,12,13
681 291 m 1,69,-1
 681 326 l 1,70,-1
 685 376 l 1,71,72
 681 410 681 410 679 443 c 1,73,-1
 659 531 l 1,74,75
 648 604 648 604 614.5 653 c 128,-1,76
 581 702 581 702 571 711.5 c 128,-1,77
 561 721 561 721 542 721 c 2,78,-1
 540 721 l 1,79,80
 519 720 519 720 501.5 709 c 128,-1,81
 484 698 484 698 465 698 c 0,82,-1
 463 698 l 2,83,-1
 440 699 l 1,84,85
 360 664 360 664 335 509 c 0,86,87
 323 438 323 438 323 389 c 0,88,89
 323 385 323 385 323 381 c 0,90,91
 323 319 323 319 341 293 c 0,92,93
 427 158 427 158 427 155 c 0,94,95
 491 132 491 132 501 132 c 2,96,-1
 507 132 l 2,97,98
 561 132 561 132 602.5 158 c 128,-1,99
 644 184 644 184 681 291 c 1,69,-1
EndSplineSet
Validated: 1
EndChar

